<?xml version="1.0" encoding="utf-8"?>
<!-- Generator: Adobe Illustrator 23.0.3, SVG Export Plug-In . SVG Version: 6.00 Build 0)  -->
<svg version="1.1" id="Layer_1" xmlns="http://www.w3.org/2000/svg" xmlns:xlink="http://www.w3.org/1999/xlink" x="0px" y="0px"
	 viewBox="0 0 1148 587.6" style="enable-background:new 0 0 1148 587.6;" xml:space="preserve">
<style type="text/css">
	.st0{clip-path:url(#SVGID_2_);}
	.st1{fill:#FFFFFF;}
	.st2{fill-rule:evenodd;clip-rule:evenodd;fill:#E4EBF7;}
	.st3{fill:#597EF7;}
	.st4{fill:#ADC6FF;}
	.st5{fill:#FF7946;}
	.st6{fill-rule:evenodd;clip-rule:evenodd;fill:#253368;}
	.st7{fill-rule:evenodd;clip-rule:evenodd;fill:#FF7946;}
	.st8{fill-rule:evenodd;clip-rule:evenodd;fill:#FAAD14;}
	.st9{fill-rule:evenodd;clip-rule:evenodd;fill:#7CB305;}
	.st10{fill:#FAAD14;}
	.st11{fill:#253368;}
	.st12{fill-rule:evenodd;clip-rule:evenodd;fill:#FFC999;}
	.st13{fill-rule:evenodd;clip-rule:evenodd;fill:#4E5C93;}
	.st14{fill-rule:evenodd;clip-rule:evenodd;fill:#597EF7;}
	.st15{fill:#DD936F;}
	.st16{fill-rule:evenodd;clip-rule:evenodd;fill:#FFFFFF;}
	.st17{fill-rule:evenodd;clip-rule:evenodd;fill:#ADC6FF;}
	.st18{fill-rule:evenodd;clip-rule:evenodd;fill:#997C79;}
	.st19{fill:#7C5B4D;}
	.st20{fill-rule:evenodd;clip-rule:evenodd;}
	.st21{fill-rule:evenodd;clip-rule:evenodd;fill:#604346;}
	.st22{fill:#604346;}
	.st23{fill-rule:evenodd;clip-rule:evenodd;fill:#7C5B4D;}
	.st24{fill-rule:evenodd;clip-rule:evenodd;fill:#A3B5D6;}
	.st25{fill-rule:evenodd;clip-rule:evenodd;fill:#F4B784;}
	.st26{fill:#C44343;}
	.st27{fill:#A3B5D6;}
	.st28{fill-rule:evenodd;clip-rule:evenodd;fill:#C44343;}
	.st29{clip-path:url(#SVGID_4_);}
	.st30{fill:#E4EBF7;}
	.st31{fill:#FFA940;}
	.st32{fill:#FFE7BA;}
	.st33{fill:#FE9921;}
	.st34{fill:#50548B;}
	.st35{fill:#F5F5F5;}
	.st36{fill:#3D60E0;}
	.st37{clip-path:url(#SVGID_6_);}
	.st38{fill:#0ACF83;}
	.st39{fill:#F24E1E;}
	.st40{fill:#FF7262;}
	.st41{fill:#1ABCFE;}
	.st42{fill:#A259FF;}
	.st43{fill-rule:evenodd;clip-rule:evenodd;fill:#CCD7EE;}
	.st44{fill:none;stroke:#597EF7;stroke-width:0.9473;}
	.st45{fill-rule:evenodd;clip-rule:evenodd;fill:#5B8C00;}
	.st46{fill-rule:evenodd;clip-rule:evenodd;fill:#E4ECF7;}
</style>
<g>
	<defs>
		<rect id="SVGID_1_" x="-142" y="-312.4" width="1440" height="900"/>
	</defs>
	<clipPath id="SVGID_2_">
		<use xlink:href="#SVGID_1_"  style="overflow:visible;"/>
	</clipPath>
	<g class="st0">
		<rect x="-142" y="-312.4" class="st1" width="1440" height="900"/>
		<path class="st2" d="M606.2,237c-3.3,0-6-2.4-6-5.4V103.8h198.4v127.8c0,3-2.7,5.4-6,5.4H606.2z"/>
		<path class="st1" d="M783.4,115.4H668.5c-1.3,0-2.4,1.1-2.4,2.4V225c0,1.3,1.1,2.4,2.4,2.4h114.9c1.3,0,2.4-1.1,2.4-2.4V117.8
			C785.7,116.5,784.7,115.4,783.4,115.4z"/>
		<path class="st1" d="M654.1,114.5h-39.1c-1.3,0-2.4,1.1-2.4,2.4v107.1c0,1.3,1.1,2.4,2.4,2.4h39.1c1.3,0,2.4-1.1,2.4-2.4V116.9
			C656.5,115.6,655.5,114.5,654.1,114.5z"/>
		<path class="st3" d="M645.8,159.1h-21.9c-0.8,0-1.4,0.6-1.4,1.4v3.4c0,0.8,0.6,1.4,1.4,1.4h21.9c0.8,0,1.4-0.6,1.4-1.4v-3.4
			C647.1,159.7,646.5,159.1,645.8,159.1z"/>
		<path class="st4" d="M645.8,170.6h-22c-0.7,0-1.3,0.6-1.3,1.3v3.2c0,0.7,0.6,1.3,1.3,1.3h22c0.7,0,1.3-0.6,1.3-1.3V172
			C647.1,171.2,646.5,170.6,645.8,170.6z"/>
		<path class="st5" d="M645.8,182.2h-22c-0.7,0-1.3,0.6-1.3,1.3v3.2c0,0.7,0.6,1.3,1.3,1.3h22c0.7,0,1.3-0.6,1.3-1.3v-3.2
			C647.1,182.8,646.5,182.2,645.8,182.2z"/>
		<path class="st4" d="M645.8,193.8h-22c-0.7,0-1.3,0.6-1.3,1.3v3.2c0,0.7,0.6,1.3,1.3,1.3h22c0.7,0,1.3-0.6,1.3-1.3v-3.2
			C647.1,194.4,646.5,193.8,645.8,193.8z"/>
		<path class="st3" d="M747.9,197.4h-68.6c-0.9,0-1.6,0.7-1.6,1.6v0c0,0.9,0.7,1.6,1.6,1.6h68.6c0.9,0,1.6-0.7,1.6-1.6v0
			C749.5,198.1,748.8,197.4,747.9,197.4z"/>
		<path class="st3" d="M747.9,214.3h-68.6c-0.9,0-1.6,0.7-1.6,1.6v0c0,0.9,0.7,1.6,1.6,1.6h68.6c0.9,0,1.6-0.7,1.6-1.6v0
			C749.5,215,748.8,214.3,747.9,214.3z"/>
		<path class="st3" d="M771.8,205.4h-92.5c-0.9,0-1.6,0.7-1.6,1.6v0c0,0.9,0.7,1.6,1.6,1.6h92.5c0.9,0,1.6-0.7,1.6-1.6v0
			C773.4,206.1,772.7,205.4,771.8,205.4z"/>
		<path class="st3" d="M770.7,126.1h-89.8c-1.8,0-3.2,1.4-3.2,3.2V187c0,1.8,1.4,3.2,3.2,3.2h89.8c1.8,0,3.2-1.4,3.2-3.2v-57.7
			C773.9,127.5,772.4,126.1,770.7,126.1z"/>
		<path class="st6" d="M798.7,106H600.4V92.3c0-3,2.4-5.4,5.4-5.4h187.6c3,0,5.4,2.4,5.4,5.4V106z"/>
		<path class="st7" d="M614.3,95.9c0,1.9-1.5,3.4-3.4,3.4c-1.9,0-3.4-1.5-3.4-3.4s1.5-3.4,3.4-3.4C612.8,92.5,614.3,94,614.3,95.9z"
			/>
		<path class="st8" d="M626.9,95.9c0,1.9-1.5,3.4-3.4,3.4s-3.4-1.5-3.4-3.4s1.5-3.4,3.4-3.4S626.9,94,626.9,95.9z"/>
		<path class="st9" d="M639.4,95.9c0,1.9-1.5,3.4-3.4,3.4c-1.9,0-3.4-1.5-3.4-3.4s1.5-3.4,3.4-3.4C637.9,92.5,639.4,94,639.4,95.9z"
			/>
		<path class="st10" d="M635.4,146.6c6.1,0,11-5,11-11.1c0-6.1-4.9-11.1-11-11.1c-6.1,0-11,5-11,11.1
			C624.4,141.7,629.3,146.6,635.4,146.6z"/>
		<path class="st11" d="M635.4,146.6c3.2,0,6.2-1.4,8.2-3.9c-1.6-3.1-4.8-5-8.2-5c-3.5,0-6.6,1.9-8.2,5
			C629.2,145.2,632.2,146.6,635.4,146.6z"/>
		<path class="st11" d="M635.4,138.2c2.3,0,4.1-1.9,4.1-4.2c0-2.3-1.9-4.2-4.1-4.2c-2.3,0-4.1,1.9-4.1,4.2
			C631.3,136.3,633.1,138.2,635.4,138.2z"/>
		<path class="st1" d="M774.2,148.4c0.2,0,0.4,0.2,0.4,0.4c0,0.2-0.2,0.4-0.4,0.4l0,0h-95.6c-0.2,0-0.4-0.2-0.4-0.4
			c0-0.2,0.2-0.4,0.4-0.4l0,0H774.2z"/>
		<path class="st1" d="M699.9,125.3c0.2,0,0.4,0.2,0.4,0.4l0,0v64.5c0,0.2-0.2,0.4-0.4,0.4c-0.2,0-0.4-0.2-0.4-0.4l0,0v-64.5
			C699.5,125.5,699.7,125.3,699.9,125.3z"/>
		<path class="st1" d="M725.8,125.3c0.2,0,0.4,0.2,0.4,0.4l0,0v64.5c0,0.2-0.2,0.4-0.4,0.4c-0.2,0-0.4-0.2-0.4-0.4l0,0v-64.5
			C725.3,125.5,725.5,125.3,725.8,125.3z"/>
		<path class="st1" d="M750.7,125.3c0.2,0,0.4,0.2,0.4,0.4l0,0v64.5c0,0.2-0.2,0.4-0.4,0.4c-0.2,0-0.4-0.2-0.4-0.4l0,0v-64.5
			C750.3,125.5,750.5,125.3,750.7,125.3z"/>
		<path class="st1" d="M774.2,169.7c0.2,0,0.4,0.2,0.4,0.4c0,0.2-0.2,0.4-0.4,0.4l0,0h-95.6c-0.2,0-0.4-0.2-0.4-0.4
			c0-0.2,0.2-0.4,0.4-0.4l0,0H774.2z"/>
		<path class="st1" d="M532.1-15.5h2v13.3h7.6v1.8h-9.7V-15.5z M551.5-6.6l-2.3-6.7l-2.4,6.7H551.5z M548.2-15.5h2.3l5.5,15.1h-2.2
			L552.2-5h-6l-1.6,4.5h-2.1L548.2-15.5z M557.8-15.5h2.4l7.6,12.2v-12.2h1.9v15.1h-2.3l-7.7-12.2v12.2h-1.9V-15.5z M578.8-2.2
			c0.7,0,1.3-0.1,1.7-0.2c0.8-0.3,1.4-0.8,1.9-1.5c0.4-0.6,0.7-1.4,0.9-2.3c0.1-0.6,0.2-1.1,0.2-1.6c0-1.9-0.4-3.3-1.1-4.3
			c-0.7-1-1.9-1.5-3.6-1.5h-3.6v11.6H578.8z M573.1-15.5h6.1c2.1,0,3.7,0.7,4.8,2.2c1,1.3,1.5,3,1.5,5.1c0,1.6-0.3,3-0.9,4.3
			c-1.1,2.3-2.9,3.4-5.5,3.4h-6.1V-15.5z M588.6-15.5h2.1v15.1h-2.1V-15.5z M594-15.5h2.4L604-3.3v-12.2h1.9v15.1h-2.3l-7.7-12.2
			v12.2H594V-15.5z M615.7-15.9c1.4,0,2.6,0.3,3.7,0.8c1.5,0.8,2.4,2.2,2.7,4.1h-2c-0.2-1.1-0.8-1.9-1.5-2.4
			c-0.8-0.5-1.7-0.8-2.9-0.8c-1.4,0-2.6,0.5-3.5,1.6c-1,1-1.4,2.6-1.4,4.7c0,1.8,0.4,3.3,1.2,4.4c0.8,1.1,2.1,1.7,3.8,1.7
			c1.4,0,2.5-0.4,3.4-1.2c0.9-0.8,1.4-2.1,1.4-3.8h-4.7v-1.7h6.6v8.1H621l-0.5-1.9c-0.7,0.8-1.3,1.3-1.8,1.6c-0.9,0.5-2,0.8-3.4,0.8
			c-1.8,0-3.3-0.6-4.6-1.7c-1.4-1.4-2.1-3.4-2.1-6c0-2.5,0.7-4.5,2.1-6C611.9-15.2,613.6-15.9,615.7-15.9z"/>
		<path class="st12" d="M381.8,272.7l-9.3-22.7l17.5-10.3c0,0,17.9,31.2,14.2,38.2C399.6,286.7,389.2,286.7,381.8,272.7z"/>
		<path class="st13" d="M304.9,515.7c-10.7,4.6-16.3-1.9-16.3-1.9s-0.3-2.3,1.5-4.8c2.3-3.2,7.6-4.4,13.7-10.5
			c4.7-4.7,7.8-12,7.8-12c3.4-5.1,14.4,0.9,14.4,0.9s0.3,10.5,0.1,16.5c0,0-0.4,3.3-8.6,4.6C311.5,509.3,311.3,513,304.9,515.7z"/>
		<path class="st13" d="M368.6,484.1c0,0-0.4,15.3,0.9,19.4c3.6,4,6.7,2.1,11.4,6.1c4.7,3.9,14.7,10.5,23.5,3.5
			c1.1-4.7-1.9-6.7-5.6-9.2c-15.1-10.1-12.5-11.9-15.3-17.8C379.3,477,368.5,477.7,368.6,484.1z"/>
		<path class="st14" d="M327.2,281.4c0,0-5.1-24.9-7.4-34c-2.3-9.2-5.7-31.2-2-32.8c3.8-1.7,12.9-5.2,12.9-5.2s7.2-0.3,15.4,1.4
			c6.5,1.3,6.4-2.5,14.2-1.2c3.3,0.5,16.3,4.5,18.8,6.5c2.5,2-1.7,66.5-1.7,66.5s3.1,3.2-0.6,7.3c-1.8,1.9-9.9,1.3-20.2,1.4
			c-11.7,0.1-25.5,1.7-28.1-0.5C323.7,286.5,327.2,281.4,327.2,281.4z"/>
		<path class="st14" d="M356.6,205l-7.4,6.4l8.5,8.6l4.2-10.4L356.6,205z"/>
		<path class="st12" d="M325.9,286.2l-1.1,11.2c0,0-29.8-15.8-35.7-25c-5.3-8.1,7.2-28.1,7.2-28.1s12.4,8.6,14.7,14.1l-2,6.1
			L325.9,286.2z"/>
		<path class="st14" d="M379.3,267c0,0-12.4-21.3-13.4-33.6c-0.9-12.1,9.7-21.2,15.3-16c8.1,7.7,16.7,33.6,16.7,33.6
			S388.8,262.6,379.3,267z"/>
		<path class="st11" d="M394.3,253.2c0.1-0.2,0.4-0.2,0.6-0.1c0.2,0.1,0.2,0.4,0.1,0.6c-1.3,1.9-2.7,3.6-4.2,5.2
			c-2.4,2.5-5,4.6-7.6,6.3c-0.9,0.6-1.7,1.1-2.5,1.5c-0.2,0.1-0.3,0.2-0.4,0.2l-0.4,0.2c-0.1,0-0.1,0-0.1,0.1
			c-0.2,0.1-0.5,0-0.6-0.2c-0.1-0.2,0-0.5,0.2-0.6l0.2-0.1l0.1,0c0.2-0.1,0.3-0.2,0.5-0.3l0.1-0.1c0.7-0.4,1.6-0.9,2.4-1.4
			c2.5-1.6,5.1-3.7,7.4-6.1C391.7,256.7,393.1,255,394.3,253.2z"/>
		<path class="st14" d="M290.9,254.3c0,0,14.4-30.8,22.1-36.8c7.8-6,11.2-2.9,14.3,1.4c2,2.7,6.5,10.4-3.5,26.6
			c-7.5,12.2-10.7,16.7-11.6,18.7C299.7,263.3,290.9,254.3,290.9,254.3z"/>
		<path class="st12" d="M349.3,212.6l7.2-7.4l-1.3-25.1l-19.6,1.1l-0.8,24.8L349.3,212.6z"/>
		<path class="st12" d="M360.3,177.8c0,0,3-3.1,4.3-1c1.2,2.1-1,9.5-4.2,9.7C356,186.7,360.3,177.8,360.3,177.8z"/>
		<path class="st12" d="M341.3,196.8c0,0,6.3,5.2,14.8,0.1c6.1-3.7,6.9-17.1,5.8-27c-0.6-5.6-3.2-8.6-8.6-10.3
			c-5.4-1.7-20.2-1.8-20.4,14.6C332.7,192.5,341.3,196.8,341.3,196.8z"/>
		<path class="st15" d="M352.4,172.4c0.1,0,0.2,0.2,0.2,0.3l0,0.1l-0.9,3.4l1.8,9.3c0,0.2-0.1,0.3-0.2,0.4l-0.1,0l-3.9,0
			c-0.2,0-0.3-0.1-0.3-0.3c0-0.1,0.1-0.3,0.3-0.3l0,0l3.6,0l-1.7-9c0,0,0-0.1,0-0.1l0,0l0.9-3.5
			C352.1,172.5,352.2,172.4,352.4,172.4L352.4,172.4z"/>
		<path class="st11" d="M348.6,171.5c0,0.4-0.3,0.8-0.7,0.9l-3,0.3l-0.7,0.1c-2.1,0.2-3.5,0.2-4.3,0.1c-0.4-0.1-0.7-0.5-0.6-0.9
			c0.1-0.4,0.5-0.7,0.9-0.6c0.7,0.1,2.2,0.1,4.6-0.2l3-0.3C348.2,170.7,348.6,171,348.6,171.5z"/>
		<path class="st5" d="M346.1,188.2c0.1-0.2,0.3-0.4,0.5-0.3l0.1,0l0.1,0c0.2,0,0.5,0.1,0.8,0.1c1.6,0.2,3.5,0.3,5.6,0.1
			c0.2,0,0.4,0.1,0.5,0.4c0,0.2-0.1,0.4-0.4,0.5c-2.2,0.2-4.2,0.2-5.9-0.1c-0.3,0-0.5-0.1-0.7-0.1l-0.2,0c-0.1,0-0.3-0.1-0.3-0.1
			C346.1,188.6,346,188.4,346.1,188.2z"/>
		<path class="st6" d="M334.7,181.3l-3.2-6.4c0,0-2-9.2,0.2-13.1c3.3-6.1,10.8-5.9,15.3-7.5c4.5-1.6,4.4-3.1,6.2-2.8
			c1.8,0.3,8.8,5.2,9.5,10.3c0.7,4.5-0.5,15.9-0.5,15.9s-1.2-10.1-2.2-12.8c-3.5-1.5-16.4-1.6-21.7,0c0,0-0.5,3.4-0.8,5.9
			C334.7,172.8,334.7,181.3,334.7,181.3z"/>
		<path class="st15" d="M356.2,196.3c0.1-0.1,0.3-0.1,0.4,0c0.1,0.1,0.1,0.3,0,0.4c-0.1,0.1-0.2,0.2-0.5,0.4
			c-0.4,0.3-0.8,0.6-1.3,0.9c-3,1.6-7,1.8-12-0.1c-0.2-0.1-0.2-0.2-0.2-0.4c0.1-0.2,0.2-0.2,0.4-0.2c4.8,1.9,8.6,1.6,11.5,0.1
			c0.5-0.3,0.9-0.5,1.2-0.8l0.1-0.1C356.1,196.5,356.2,196.4,356.2,196.3z"/>
		<path class="st11" d="M352.1,175.6c0.3,0,0.6,0.2,0.6,0.6c0,0.3-0.2,0.6-0.5,0.6l-0.1,0l-2.9,0.1c-0.3,0-0.6-0.2-0.6-0.6
			c0-0.3,0.2-0.6,0.5-0.6l0.1,0L352.1,175.6z"/>
		<path class="st11" d="M349.5,177.5c0.6-0.3,1.2-0.4,1.8-0.3c0.6,0.1,1.1,0.3,1.5,0.7c0.2,0.2,0.2,0.6,0,0.8
			c-0.2,0.2-0.6,0.2-0.8,0l-0.1,0c-0.2-0.2-0.4-0.3-0.7-0.3c-0.4,0-0.8,0.1-1.2,0.2c-0.2,0.1-0.3,0.1-0.4,0.2l-0.1,0.1
			c-0.3,0.2-0.6,0.1-0.8-0.2c-0.2-0.3-0.1-0.6,0.2-0.8C349,177.8,349.2,177.7,349.5,177.5z"/>
		<path class="st11" d="M354.2,170.7c1.4-0.5,2.7-0.8,4-0.7c1,0.1,2,0.4,2.8,0.9c0.4,0.2,0.5,0.7,0.2,1.1c-0.2,0.4-0.7,0.5-1.1,0.2
			c-0.6-0.4-1.2-0.6-2-0.6c-1.1-0.1-2.2,0.2-3.4,0.6c-0.3,0.1-0.6,0.2-0.8,0.3l-0.2,0.1c-0.2,0.1-0.3,0.1-0.3,0.2
			c-0.4,0.2-0.9,0.1-1.1-0.3c-0.2-0.4-0.1-0.9,0.3-1.1C352.9,171.3,353.5,171,354.2,170.7z"/>
		<path class="st15" d="M351.6,191.1c0.2,0,0.3,0.1,0.3,0.3c0,0.1-0.1,0.3-0.2,0.3l0,0l-2.4,0.1c-0.2,0-0.3-0.1-0.3-0.3
			c0-0.1,0.1-0.3,0.2-0.3l0,0L351.6,191.1z"/>
		<path class="st11" d="M338.5,175.9c0.3,0,0.6,0.3,0.6,0.6c0,0.3-0.2,0.6-0.5,0.6l-0.1,0l-4.8,0.1c-0.3,0-0.6-0.3-0.6-0.6
			c0-0.3,0.2-0.6,0.5-0.6l0.1,0L338.5,175.9z"/>
		<path class="st16" d="M338.8,175.6l9.1-0.2c0.6,0,1.2,0.5,1.2,1.1c0,1.2,0,3.1-0.3,4.7c-0.3,1.9-2,3.1-4,3.3
			c-2.4,0.2-4.6,0.2-5.7-1c-1.7-1.9-1.4-5.1-1.4-6.7C337.7,176.1,338.2,175.6,338.8,175.6z"/>
		<path class="st11" d="M348,175.2L348,175.2l-9.2,0.2c-0.7,0-1.3,0.6-1.3,1.3l0,0.4l0,0.9c0,1,0,1.6,0.1,2.4
			c0.2,1.4,0.6,2.5,1.4,3.3c1,1.1,2.6,1.3,5.9,1.1c2.1-0.1,3.8-1.5,4.1-3.4c0.2-1.4,0.3-3,0.3-4.7
			C349.3,175.8,348.7,175.2,348,175.2z M338.8,175.8l9.1-0.2c0.5,0,1,0.4,1,0.9c0,1.7-0.1,3.3-0.3,4.7c-0.3,1.8-1.8,3-3.8,3.1
			l-0.6,0c-2.8,0.1-4.1-0.1-4.9-1c-0.7-0.8-1.1-1.8-1.3-3.1c-0.1-0.7-0.1-1.3-0.1-2.3l0-1.1c0,0,0-0.1,0-0.1
			C337.9,176.2,338.3,175.8,338.8,175.8z"/>
		<path class="st11" d="M345.1,177.7c0.2,0,0.4,0.2,0.4,0.4c0,1.3-0.9,2.3-2,2.3s-2.1-1-2.1-2.2c0-0.2,0.2-0.4,0.4-0.4
			c0.2,0,0.4,0.2,0.4,0.4c0,0.8,0.6,1.5,1.3,1.5c0.7,0,1.2-0.7,1.2-1.5C344.7,177.9,344.9,177.7,345.1,177.7z"/>
		<path class="st16" d="M353,175.2l10.3-0.2c0.4,1.5,0.2,7.3-1.6,8.6c-2.3,1.3-7.1,0.9-7.9-0.4c-1.2-1.9-1.7-5.5-1.7-7.1
			C352.1,175.6,352.5,175.2,353,175.2z"/>
		<path class="st11" d="M363.3,174.7L353,175c-0.6,0-1.1,0.5-1,1.1c0,2.2,0.7,5.6,1.7,7.2c0.9,1.4,5.8,1.7,8.2,0.5
			c1.6-1.2,2.3-6.7,1.7-8.8C363.4,174.8,363.4,174.7,363.3,174.7z M363.1,175.1L363.1,175.1c0.5,2.3-0.2,7.2-1.5,8.2
			c-2.1,1.2-6.9,0.9-7.6-0.3c-1-1.6-1.6-4.8-1.7-7c0-0.4,0.3-0.7,0.7-0.7L363.1,175.1z"/>
		<path class="st11" d="M357.9,177.4c0.2,0,0.4,0.2,0.4,0.4c0,1.3-0.9,2.3-2,2.3c-1.1,0-2.1-1-2.1-2.2c0-0.2,0.2-0.4,0.4-0.4
			c0.2,0,0.4,0.2,0.4,0.4c0,0.8,0.6,1.5,1.3,1.5c0.7,0,1.2-0.7,1.2-1.5C357.5,177.6,357.7,177.4,357.9,177.4z"/>
		<path class="st11" d="M337.9,175.1l11.3,0c0.3,0,0.6,0.3,0.6,0.6c0,0.3-0.2,0.6-0.5,0.6l-0.1,0l-11.3,0c-0.3,0-0.6-0.3-0.6-0.6
			C337.3,175.4,337.5,175.1,337.9,175.1L337.9,175.1z"/>
		<path class="st11" d="M363.3,174.6c0.3,0,0.6,0.2,0.6,0.6c0,0.3-0.2,0.6-0.5,0.6l-0.1,0l-11,0.4c-0.3,0-0.6-0.2-0.6-0.6
			c0-0.3,0.2-0.6,0.5-0.6l0.1,0L363.3,174.6z"/>
		<path class="st12" d="M333.3,176.1c-1.1-1.2-2.9-1.6-4.2-0.2c-2.1,2.2-0.3,10.5,5.2,10.9C336.4,186.6,335.1,178,333.3,176.1z"/>
		<path class="st12" d="M385.1,271.7c0,0,3.6,12.8,15,10.5c7.8-1.6,15.3-42.1,15.9-46.8c0.4-3.4-9.7-3.9-9.7-3.9L385.1,271.7z"/>
		<path class="st12" d="M406.2,232.1c0,0,0.4-2.3,1.2-6.8c0.8-4.5,9.5-14.4,10-14.9c1.9-1.7,3.5,0.7-0.6,6.8c5-1.5,8.1-3.8,9.8-7
			c1.7-3.2,5.2-0.9,4.1,4.2c-1.1,5.1-1.3,9.3-4.6,13.1c-4.7,5.5-8.7,7.3-10.9,8.2C413.5,236.5,407.6,235.7,406.2,232.1z"/>
		<path class="st17" d="M328.9,489.7L352,333.1l1.5-0.3l12.3,156.1c0,0,13,3.8,19.8-0.4c0.1-30.5-1.7-129.3-5-174.5
			c-0.5-7.3-2.8-17.2-3.3-19.9c-20.8-3.4-49.1,1.6-49.1,1.6L309,487.5C309,487.5,319.3,492.9,328.9,489.7z"/>
		<path class="st3" d="M364,326.6c0.1-0.1,0.3,0,0.4,0.1c0.1,0.1,0,0.3-0.1,0.4l0,0l-12.5,6.2c-0.1,0.1-0.3,0-0.4-0.1
			c-0.1-0.1,0-0.3,0.1-0.4l0,0L364,326.6z"/>
		<path class="st17" d="M328.4,290.6c0,0,26.4-4.1,48.4-0.4c0.2,1.9,0.4,4.3,0.4,4.3s-17.8-4.3-48.9,1.9
			C328.4,291.1,328.4,290.6,328.4,290.6z"/>
		<path class="st3" d="M337.5,296.1c9.5-0.8,19.3-1.2,28.4-0.8c3.9,0.2,7.5,0.5,10.9,0.9c0.2,0,0.3,0.2,0.3,0.3
			c0,0.2-0.2,0.3-0.3,0.3c-3.4-0.4-7-0.7-10.8-0.9c-9.1-0.4-18.8-0.1-28.3,0.8c-2,0.2-3.9,0.4-5.5,0.5l-0.9,0.1
			c-0.4,0-0.7,0.1-1.1,0.1l-1.3,0.2c-0.2,0-0.3-0.1-0.3-0.3c0-0.2,0.1-0.3,0.3-0.3l0.8-0.1l1-0.1l0.6-0.1
			C332.9,296.5,335.1,296.3,337.5,296.1z"/>
		<path class="st11" d="M337.3,289.3c9.5-0.8,19.3-1.2,28.4-0.8c3.9,0.2,7.5,0.5,10.9,0.9c0.2,0,0.4,0.2,0.4,0.5
			c0,0.2-0.2,0.4-0.5,0.4c-3.4-0.4-7-0.7-10.8-0.9c-8.7-0.4-18.1-0.1-27.2,0.7l-1.1,0.1c-2.2,0.2-4.2,0.4-6,0.6l-1,0.1l-1.3,0.2
			l-0.5,0.1c-0.2,0-0.4-0.1-0.5-0.4c0-0.2,0.1-0.4,0.4-0.5l0.6-0.1c0.4,0,0.8-0.1,1.2-0.1l0.6-0.1
			C332.8,289.8,334.9,289.5,337.3,289.3z"/>
		<path class="st3" d="M354.9,289.8c0.1,0,0.3,0.1,0.3,0.3l0,0l0,2.2c0,1.7,0,3.5,0,5.5c-0.1,5.6-0.2,11.2-0.4,16.4l-0.1,1.5
			c-0.2,6.1-0.6,11.2-1,15c0,0.2-0.2,0.3-0.3,0.3c-0.2,0-0.3-0.2-0.3-0.3l0.1-1c0.4-4,0.7-9.3,0.9-15.5c0.2-4.8,0.3-10,0.4-15.2
			l0-2.8c0-1,0-2,0-3l0-3.1C354.6,289.9,354.8,289.8,354.9,289.8z"/>
		<path class="st16" d="M360.1,291.9c0,0.7-0.4,1.4-1,1.4c-0.6,0-1.1-0.6-1.1-1.3c0-0.7,0.4-1.4,1-1.4
			C359.6,290.6,360.1,291.2,360.1,291.9z"/>
		<path class="st15" d="M416.5,217.1c0.1-0.2,0.2-0.2,0.4-0.2c0.1,0.1,0.2,0.2,0.2,0.3l0,0.1l-1.2,3.1l0,0c0,0.4,0,0.9,0,1.5l0,0.2
			c-0.1,1.1-0.2,2.1-0.3,3.1c-0.5,2.7-1.3,4.5-2.7,5c-0.2,0.1-0.3,0-0.4-0.2c-0.1-0.2,0-0.3,0.2-0.4c1.1-0.4,1.9-2.1,2.4-4.6
			c0.2-1,0.3-2,0.3-3.1l0-0.5c0-0.4,0-0.7,0-1l0-0.4l0-0.1L416.5,217.1z"/>
		<path class="st15" d="M428.6,218.9c0.5-0.1,0.9,0.1,1.2,0.5c0.1,0.1,0.1,0.3-0.1,0.4c-0.1,0.1-0.3,0.1-0.4-0.1
			c-0.2-0.3-0.3-0.3-0.6-0.3c-0.3,0.1-0.6,0.3-0.9,0.6c-0.1,0.1-0.2,0.2-0.3,0.3l-0.1,0.2c-0.1,0.1-0.1,0.2-0.1,0.2l-0.1,0.1
			c0,0,0,0.1-0.1,0.1c-0.1,0.2-0.2,0.4-0.4,0.6c-0.4,0.6-0.9,1.3-1.5,1.9c-1.1,1.1-2.4,1.9-3.9,2.3c-0.2,0-0.3,0-0.4-0.2
			c0-0.2,0-0.3,0.2-0.4c1.4-0.4,2.6-1.2,3.6-2.2c0.6-0.6,1.1-1.2,1.5-1.8c0.1-0.2,0.2-0.3,0.3-0.4l0.1-0.1c0.1-0.1,0.1-0.2,0.1-0.2
			l0.1-0.1c0,0,0.1-0.1,0.1-0.1c0.1-0.2,0.3-0.3,0.4-0.5C427.8,219.3,428.2,219,428.6,218.9z"/>
		<path class="st15" d="M428.7,215c0.8-0.4,1.5,0,1.7,1.1c0,0.2-0.1,0.3-0.2,0.4c-0.2,0-0.3-0.1-0.4-0.2c-0.2-0.8-0.4-0.9-0.9-0.7
			c-0.2,0.1-0.5,0.3-0.7,0.5c-0.2,0.1-0.3,0.3-0.4,0.4l-0.1,0.1c0,0,0,0,0,0c-1.6,2.1-3,3.6-4.4,4.4c-0.8,0.5-1.4,0.7-1.8,0.8
			c-0.2,0-0.3-0.1-0.3-0.3c0-0.1,0.1-0.3,0.2-0.3l0.1,0c0.1,0,0.2,0,0.3-0.1c0.3-0.1,0.7-0.3,1.2-0.6c1.3-0.8,2.7-2.2,4.2-4.3
			l0.1-0.1c0,0,0.1-0.1,0.1-0.2c0.1-0.2,0.3-0.3,0.5-0.5C428.2,215.4,428.4,215.2,428.7,215z"/>
		<path class="st15" d="M429.4,211c0.5-0.1,0.9,0.1,1.3,0.5c0.1,0.1,0.1,0.3,0,0.4c-0.1,0.1-0.3,0.1-0.4,0c-0.3-0.3-0.6-0.4-0.8-0.3
			c-0.4,0.1-0.8,0.4-1.4,1.1l-0.1,0.1c-0.1,0.2-1.5,1.8-2,2.5l-0.1,0.1c-0.2,0.2-0.3,0.4-0.5,0.6c-1.1,1.1-2.2,2-3.2,2.6
			c-0.3,0.2-0.6,0.3-0.8,0.5l-0.1,0.1c-0.2,0.1-0.3,0.1-0.4,0.2c-0.2,0.1-0.3,0-0.4-0.2c-0.1-0.2,0-0.3,0.2-0.4l0.1,0
			c0.1,0,0.1-0.1,0.3-0.1c0.3-0.1,0.6-0.3,0.9-0.5c1-0.6,2-1.4,3.1-2.5c0.1-0.1,0.2-0.2,0.3-0.4l0.2-0.2c0.5-0.6,1.9-2.3,2.1-2.5
			C428.3,211.5,428.8,211.1,429.4,211z"/>
		<path class="st15" d="M397.3,248.4c0.1-0.1,0.3-0.2,0.4-0.1c0.1,0.1,0.2,0.2,0.1,0.4l0,0l-8.9,15.7c-0.1,0.1-0.3,0.2-0.4,0.1
			c-0.1-0.1-0.2-0.2-0.1-0.4l0,0L397.3,248.4z"/>
		<path class="st14" d="M349.2,212.4l-7.2,9.6l-11-12.7l3.9-5L349.2,212.4z"/>
		<path class="st11" d="M349.5,212.9c0.2-0.1,0.4,0,0.5,0.2l0.1,0.2l0.1,0.3c0,0.1,0.1,0.3,0.1,0.5l0.2,0.6c0.2,0.7,0.4,1.6,0.6,2.6
			c0.8,3.7,1.6,8.7,2.4,15c0.8,6.4,1.4,13.9,1.9,22.6l0.1,1.3c0.7,12.6,0.6,23.4,0.1,31.5c0,0.2-0.2,0.4-0.4,0.4
			c-0.2,0-0.4-0.2-0.4-0.4l0.1-0.9c0.5-8.3,0.6-19.2-0.2-31.9l-0.1-1.5c-0.5-7.8-1.1-14.6-1.8-20.4l-0.2-1.5
			c-0.7-5.7-1.4-10.2-2.2-13.7l-0.1-0.3c-0.3-1.3-0.5-2.3-0.8-3.1l-0.1-0.3c0-0.1-0.1-0.2-0.1-0.3l-0.1-0.2c0,0,0-0.1,0-0.1
			C349.2,213.3,349.3,213,349.5,212.9z"/>
		<path class="st11" d="M379.5,217.9c0.2,0,0.4,0.2,0.4,0.4l0,0.5c0.1,2.2,0,4.8-0.3,7.3c-0.2,1.5-0.4,2.9-0.7,4l-0.1,0.2l0,0l0,0.1
			c0.1,0.2,0.1,0.4,0.2,0.7c0.1,0.6,0.2,1.4,0.3,2.6l0,0.5c0.2,2.5,0.4,5.7,0.4,9.5c0.1,10.3-0.6,22.7-2.1,36.3l-0.1,0.7l0.1,0.3
			l0,0.1c0.1,0.4,0.3,0.8,0.4,1.2c0.3,1,0.5,2.1,0.6,3.1c0.1,1.6-0.2,3-1.1,3.9c-0.2,0.2-0.4,0.2-0.6,0c-0.2-0.2-0.2-0.4,0-0.6
			c0.7-0.7,0.9-1.8,0.9-3.2c-0.1-0.9-0.2-1.9-0.5-2.9c-0.1-0.3-0.2-0.6-0.3-0.9l-0.1-0.2c-0.1-0.2-0.1-0.4-0.2-0.4
			c0-0.1,0-0.1,0-0.2c1.6-13.6,2.3-26,2.2-36.4l0-0.6c0-3.8-0.2-7-0.4-9.4l0-0.5c-0.1-1.1-0.2-1.9-0.3-2.5c0-0.1-0.1-0.3-0.1-0.3
			l0-0.1c-0.1-0.1-0.2-0.2-0.2-0.4l0-0.1c0.4-1.2,0.6-2.7,0.8-4.4c0.2-2.2,0.3-4.6,0.3-6.7l0-0.9c0,0,0-0.1,0-0.1
			C379.1,218.1,379.3,217.9,379.5,217.9z"/>
		<path class="st11" d="M359,225.3L359,225.3c-0.3,0-0.5,0.2-0.5,0.4l1.1,14.9c0,0.1,0.1,0.3,0.2,0.3l8.1,4.5c0.1,0.1,0.3,0.1,0.4,0
			l6.2-4.3c0.1-0.1,0.2-0.2,0.2-0.3l0-0.5l0-0.5c0-0.2,0-0.5,0-0.8l0-0.8c0.1-2.7,0.1-6.2,0-10.4c0-0.2-0.1-0.3-0.2-0.4
			c-2-0.9-5.2-1.5-9.2-1.8c-1.4-0.1-2.9-0.2-4.3-0.3l-0.9,0C359.9,225.3,359.4,225.3,359,225.3z M360.4,240.4l-1-14.2l0.7,0
			c0.4,0,0.8,0,1.2,0c1.4,0,2.8,0.1,4.2,0.3l0.3,0l0.7,0.1c3.2,0.3,5.8,0.8,7.5,1.5l0.1,0l0,0.6c0.1,3.9,0,7.2-0.1,9.7l0,0.7
			c0,0.2,0,0.4,0,0.6l-0.1,0.8l-5.8,4L360.4,240.4z"/>
		<path class="st12" d="M333.4,281.5c0,0-6.7-6.3-8.9-6c-3.4,0.4-1,7-1,7s-2.9,2-0.9,5.3c-1.2,3.3,0.7,4.8,0.7,4.8s-1.9,2.5,0.9,4.5
			c2.7,2,8.9,1.3,7.9-3c2.4-2.4,0.3-4.7,0.3-4.7s1.7-2.3-0.3-4.5C333.9,283.8,334.1,282.1,333.4,281.5z"/>
		<path class="st15" d="M325.3,281.1c0.1-0.1,0.2-0.2,0.4-0.1l0,0l6.6,3.7c0.1,0.1,0.2,0.3,0.1,0.4c-0.1,0.1-0.2,0.2-0.4,0.1l0,0
			l-6.6-3.7C325.2,281.4,325.2,281.2,325.3,281.1z"/>
		<path class="st15" d="M323.4,282.3c0.1-0.1,0.3-0.1,0.4,0c0.1,0.1,0.1,0.3,0,0.4l-0.1,0.1c0,0-0.1,0.1-0.1,0.1
			c-0.2,0.2-0.4,0.4-0.5,0.7c-0.9,1.3-1.1,2.7-0.1,4c0.1,0.1,0.1,0.2,0,0.3c-0.7,1.7-0.6,3,0.1,3.9c0.1,0.2,0.2,0.3,0.4,0.4
			c0.1,0.1,0.1,0.1,0.1,0.1c0.1,0,0.1,0.1,0.1,0.2l0,0l0,3c0,0.2-0.1,0.3-0.3,0.3c-0.1,0-0.3-0.1-0.3-0.2l0,0l0-2.9l-0.1-0.1
			c-0.1-0.1-0.3-0.3-0.4-0.4l-0.1-0.1c-0.7-1-0.9-2.4-0.3-4.1l0.1-0.2l-0.1-0.1c-0.9-1.4-0.7-2.9,0.2-4.3l0.1-0.1
			c0.2-0.3,0.4-0.5,0.6-0.7l0.1-0.1C323.3,282.4,323.3,282.3,323.4,282.3z"/>
		<path class="st15" d="M326.2,287.4l6.3,1.7c0.2,0,0.3,0.2,0.2,0.4c0,0.1-0.2,0.2-0.3,0.2l-0.1,0L326,288c-0.2,0-0.3-0.2-0.2-0.4
			C325.9,287.5,326,287.4,326.2,287.4L326.2,287.4z"/>
		<path class="st15" d="M326.1,292.8l6.1,1c0.2,0,0.3,0.2,0.2,0.3c0,0.1-0.2,0.3-0.3,0.3l0,0l-6.1-1c-0.2,0-0.3-0.2-0.2-0.3
			C325.7,292.9,325.9,292.8,326.1,292.8L326.1,292.8z"/>
		<path class="st16" d="M349.8,219.6c0,0.7-0.5,1.4-1.1,1.4c-0.6,0-1.1-0.6-1.2-1.3c0-0.7,0.5-1.4,1.1-1.4
			C349.3,218.3,349.8,218.9,349.8,219.6z"/>
		<path class="st16" d="M351.7,233.3c0,0.7-0.5,1.4-1.1,1.4c-0.6,0-1.1-0.6-1.2-1.3c0-0.7,0.5-1.4,1.1-1.4
			C351.2,232,351.7,232.6,351.7,233.3z"/>
		<path class="st16" d="M352.9,248.2c0,0.7-0.5,1.4-1.1,1.4c-0.6,0-1.1-0.6-1.2-1.3c0-0.7,0.5-1.4,1.1-1.4
			C352.4,246.8,352.9,247.4,352.9,248.2z"/>
		<path class="st16" d="M353.5,262.1c0,0.7-0.5,1.4-1.1,1.4c-0.6,0-1.1-0.6-1.2-1.3c0-0.7,0.5-1.4,1.1-1.4
			C352.9,260.8,353.4,261.4,353.5,262.1z"/>
		<path class="st16" d="M353.7,280.6c0,0.7-0.5,1.4-1.1,1.4c-0.6,0-1.1-0.6-1.2-1.3c0-0.7,0.5-1.4,1.1-1.4
			C353.1,279.2,353.6,279.8,353.7,280.6z"/>
		<path class="st11" d="M330.9,209.4c0.2-0.1,0.4-0.1,0.5,0l0,0l10.3,12l7.2-8.5c0.1-0.2,0.4-0.2,0.5-0.1l0,0
			c0.2,0.1,0.2,0.4,0.1,0.5l0,0l-7.5,8.9c-0.1,0.2-0.4,0.2-0.6,0l0,0L330.9,210C330.7,209.8,330.7,209.6,330.9,209.4z"/>
		<path class="st11" d="M361.4,209.8c0.1-0.2,0.3-0.3,0.5-0.3c0.2,0.1,0.3,0.3,0.3,0.5l0,0.1l-3.9,11.7c-0.1,0.3-0.4,0.4-0.6,0.2
			l0,0l-8.3-8.5c-0.2-0.2-0.2-0.4,0-0.6c0.1-0.1,0.4-0.2,0.5,0l0,0l7.8,8.1L361.4,209.8z"/>
		<path class="st3" d="M361.5,295.5c0.2,0,0.3,0.1,0.3,0.3l0,0.2c0,0.2,0,0.3,0.1,0.6l0.1,0.5c0.1,0.5,0.1,1,0.2,1.5
			c0.3,3.2,0.4,6.6,0.2,9.7l0,0.5c-0.5,7-2.6,11.5-6.8,12.1c-0.2,0-0.3-0.1-0.3-0.3c0-0.2,0.1-0.3,0.3-0.3c3.9-0.6,5.9-5,6.4-12
			c0.2-3.1,0.1-6.4-0.2-9.6l-0.1-0.6c0-0.4-0.1-0.8-0.1-1.1l-0.1-0.6l-0.1-0.4C361.3,295.7,361.4,295.6,361.5,295.5z"/>
		<path class="st11" d="M313,220.2c0.1-0.2,0.4-0.3,0.6-0.2l0.1,0c0.1,0,0.2,0.1,0.3,0.2c0.3,0.2,0.6,0.5,1,0.8c1,0.9,2,1.9,2.9,3.2
			c3.6,5,5.2,12,3.6,21.1c0,0.2-0.3,0.4-0.5,0.3s-0.4-0.3-0.3-0.5c1.5-8.9,0-15.6-3.5-20.5c-0.9-1.2-1.8-2.3-2.8-3.1
			c-0.3-0.2-0.5-0.4-0.8-0.6l-0.1-0.1c-0.2-0.1-0.3-0.2-0.3-0.2C313,220.7,312.9,220.4,313,220.2z"/>
		<path class="st15" d="M290.6,254c0.2-0.2,0.4-0.2,0.6,0l0.2,0.2c0.1,0.1,0.2,0.2,0.3,0.3l0.3,0.3c0.3,0.3,0.6,0.5,0.9,0.8
			c1.3,1.1,2.9,2.3,4.5,3.4c4.8,3.1,9.9,4.9,14.9,4.9c0.2,0,0.4,0.2,0.4,0.4c0,0.2-0.2,0.4-0.4,0.4c-5.2,0.1-10.4-1.8-15.4-5
			c-1.7-1.1-3.2-2.3-4.6-3.4l-0.4-0.3c-0.3-0.2-0.5-0.4-0.7-0.6l-0.3-0.2l-0.4-0.3C290.4,254.4,290.4,254.1,290.6,254z"/>
		<path class="st15" d="M330.5,177c0.1-0.2,0.2-0.2,0.4-0.2l0.1,0c0.1,0,0.1,0.1,0.2,0.1c0.2,0.1,0.5,0.3,0.7,0.5
			c0.8,0.7,1.3,1.6,1,2.7c-0.1,0.4-0.3,0.6-0.6,0.9l-0.2,0.1c-0.3,0.2-0.4,0.3-0.4,0.5c-0.1,0.5,0.2,0.9,0.6,1.1
			c0.1,0.1,0.3,0.2,0.5,0.2l0.1,0c0,0,0.1,0,0.1,0c0.2,0,0.3,0.2,0.2,0.4c0,0.2-0.2,0.3-0.4,0.2c-0.2-0.1-0.5-0.2-0.9-0.4
			c-0.6-0.4-1-1-0.9-1.7c0-0.5,0.2-0.7,0.6-0.9l0.1-0.1c0.3-0.2,0.4-0.3,0.4-0.5c0.2-0.9-0.1-1.5-0.8-2.1c-0.2-0.2-0.4-0.3-0.6-0.4
			l-0.1-0.1c-0.1,0-0.1,0-0.1-0.1C330.6,177.4,330.5,177.2,330.5,177z"/>
		<path class="st3" d="M367.1,331.7c0.2,0,0.3,0.1,0.3,0.3c0,0.1-0.1,0.3-0.2,0.3l0,0l-9.9,0.7c-0.2,0-0.3-0.1-0.3-0.3
			c0-0.1,0.1-0.3,0.2-0.3l0,0L367.1,331.7z"/>
		<path class="st18" d="M784.2,203.5c0,0-7.1-24.2-16.4-30.8c-2.9,0-0.3,3.9,1.5,7.1c1,1.6,1.5,3.7,1.5,3.7s-3.9-0.6-3.3,2.8
			c-3.1-0.3-2.2,3.3-2.2,3.3s-2.4-0.1-1.8,3.2c0.4,2.3,3.5,5,4,7.5c1.1,6.3,6.5,8.4,8.3,8.8C780.3,209.9,782.9,208.3,784.2,203.5z"
			/>
		<path class="st19" d="M776.5,185.5c-0.7-3-1.9-4.3-3.1-3.2c-1,0.9-1.2,3.1-0.5,5.1l0.2,0.5c1.2,3.5,1.3,4.8,0.6,6.3l-0.1,0.3
			c-0.2,0.5-0.4,0.9-0.4,1.3l-0.1,0.8c-0.1,1.2-0.2,2,0,2.9c0.3,2,1.5,3.4,3.6,4.1c0.2,0.1,0.5-0.1,0.5-0.3c0.1-0.2-0.1-0.5-0.3-0.5
			c-1.9-0.6-2.8-1.8-3.1-3.4c-0.1-0.7-0.1-1.5,0-2.4l0-0.3c0-0.2,0.1-0.4,0.1-0.5c0-0.4,0.1-0.6,0.3-1.1l0.1-0.2
			c0.8-1.8,0.8-3.4-0.7-7.5c-0.6-1.8-0.4-3.6,0.3-4.2c0.5-0.4,1.2,0.3,1.7,2.8l0,0.2l0,0.1l3.2,7.7c0.1,0.2,0.3,0.3,0.6,0.2
			c0.2-0.1,0.3-0.3,0.3-0.5l0-0.1l-3.1-7.7L776.5,185.5z"/>
		<path class="st19" d="M767.4,185.8c-0.2,0.1-0.3,0.3-0.2,0.6l0.1,0.2l0.2,0.4c0,0.1,0.1,0.1,0.1,0.2c0.3,0.6,0.6,1.3,1,1.8
			c0.4,0.7,0.8,1.3,1.2,1.8c0.7,0.8,1.3,1.2,1.9,1c1.4-0.4,1.9-1.4,1.6-2.8c-0.1-0.5-0.3-1-0.6-1.5c-0.1-0.3-0.3-0.5-0.5-0.8
			l-0.1-0.2c0-0.1-0.1-0.1-0.1-0.1c-0.1-0.2-0.4-0.2-0.6-0.1c-0.2,0.1-0.2,0.4-0.1,0.6l0.1,0.1c0,0,0.1,0.1,0.1,0.1
			c0.1,0.2,0.3,0.5,0.4,0.7c0.2,0.4,0.4,0.9,0.5,1.3c0.2,1,0,1.5-1,1.8c-0.2,0-0.5-0.2-1-0.8c-0.4-0.4-0.7-1-1.1-1.7
			c-0.3-0.6-0.6-1.2-0.9-1.8l-0.2-0.5L768,186C767.9,185.8,767.6,185.7,767.4,185.8z"/>
		<path class="st19" d="M765.4,189.3c-0.2,0.1-0.4,0.3-0.3,0.5l0,0.1l0,0.1c0,0.2,0.1,0.3,0.2,0.5c0.2,0.5,0.4,1,0.7,1.5
			c0.8,1.5,1.7,2.4,2.9,2.4c1.2,0,1.7-0.8,1.8-1.9c0-0.4,0-0.8-0.1-1.2c0-0.2-0.1-0.4-0.1-0.4c-0.1-0.2-0.3-0.4-0.5-0.3
			c-0.2,0.1-0.4,0.3-0.3,0.5l0,0.1c0,0.1,0,0.2,0.1,0.3c0.1,0.3,0.1,0.7,0.1,1c0,0.7-0.3,1.1-1,1.1c-0.7,0-1.4-0.7-2.1-1.9
			c-0.2-0.4-0.5-0.9-0.6-1.4c0-0.1-0.1-0.2-0.1-0.3l-0.1-0.3C765.9,189.3,765.7,189.2,765.4,189.3z"/>
		<path class="st19" d="M763.5,191.8c-0.2,0-0.4,0.3-0.3,0.5l0,0.2c0,0.1,0.1,0.3,0.1,0.5c0.1,0.5,0.3,0.9,0.5,1.4
			c0.7,1.6,1.7,2.5,3.1,2.1c1-0.3,1.4-1.1,1.2-1.9c-0.1-0.4-0.2-0.8-0.5-1.2c-0.2-0.3-0.3-0.5-0.5-0.7c-0.2-0.2-0.4-0.2-0.6-0.1
			c-0.2,0.2-0.2,0.4-0.1,0.6l0.1,0.1c0,0,0,0,0.1,0.1c0.1,0.1,0.2,0.3,0.3,0.4c0.2,0.3,0.3,0.6,0.4,0.9c0.1,0.5-0.1,0.8-0.7,1
			c-0.8,0.3-1.5-0.3-2-1.6c-0.2-0.4-0.3-0.8-0.5-1.3l-0.1-0.2c0-0.2-0.1-0.3-0.1-0.4C763.9,191.9,763.7,191.8,763.5,191.8
			L763.5,191.8z"/>
		<path class="st17" d="M800.4,264.4c4.6,4.1,11.7,3.8,15.9-0.8l35.7-38c5.1-5.5,4.7-14.1-0.9-19c-5.6-4.9-14.2-4.2-18.9,1.5
			l-33.1,40.3C795.2,253.3,795.7,260.3,800.4,264.4z"/>
		<path class="st17" d="M784.1,201.1l-13.7,8.1L798,262c3.2,5.7,10.6,7.6,16.2,4c5.4-3.5,6.8-10.8,3.2-16.1L784.1,201.1z"/>
		<path class="st3" d="M784.5,200.8c-0.1-0.2-0.3-0.3-0.5-0.2l-0.1,0l-13.2,8.2c-0.2,0.1-0.3,0.4-0.1,0.6c0.1,0.2,0.3,0.3,0.5,0.2
			l0.1,0l13.2-8.2C784.6,201.2,784.6,201,784.5,200.8z"/>
		<path class="st3" d="M787.8,207.3c-0.1-0.2-0.3-0.2-0.5-0.2l-0.1,0l-12.7,8.4c-0.2,0.1-0.3,0.4-0.1,0.6c0.1,0.2,0.3,0.2,0.5,0.2
			l0.1,0l12.7-8.4C787.9,207.7,787.9,207.5,787.8,207.3z"/>
		<path class="st16" d="M774,210.2c-0.5,0.3-0.7,1-0.4,1.5c0.3,0.5,1,0.7,1.5,0.4s0.7-1,0.4-1.5C775.2,210.1,774.5,209.9,774,210.2z
			"/>
		<path class="st6" d="M906.4,497.7c0,0,5.8,14.6,19.9,18.2c9.2,2.4-0.6,10.5-16.8,6.4c-9.2-2.4-6.9-7-12.1-7.3
			c-3-0.2-8.9-2.1-9.1-4.4c-0.3-4-0.4-5.1-0.4-9.8C887.7,473.2,898.5,472.9,906.4,497.7z"/>
		<path class="st13" d="M892.4,289.1c0,0-41.5,0.4-47.2,0.2c-3-0.1-7,18.3-7.2,30.8c1.9,3.8,18.3,11.5,26.7,15.4
			c3.2,1.5,6.1,0.7,6.1,0.7c4.2,1.1,28.7-17,28.7-17S899.2,299.2,892.4,289.1z"/>
		<path class="st20" d="M844.4,284l-0.2,5.8c0,0,6.6,2.7,22.7,3.8c15.4,1.1,25.8-2.8,25.8-2.8l-0.1-6.1
			C892.5,284.7,872.7,290.9,844.4,284z"/>
		<path class="st2" d="M858.7,292.2l0-4.2c0-1.2,1-2.1,2.1-2c2.7,0.2,7.5,0.6,10.9,0.4c1.1-0.1,2.1,0.9,2,2.1l-0.2,4.3
			c0,1-0.8,1.8-1.7,1.9c-2.3,0.3-6.6,0.5-11.6-0.5C859.4,294,858.7,293.2,858.7,292.2z"/>
		<path class="st20" d="M860.5,291.7l0-3c0-0.8,0.8-1.5,1.6-1.4c2.1,0.2,5.8,0.4,8.4,0.3c0.9,0,1.6,0.7,1.6,1.5l-0.1,3
			c0,0.7-0.6,1.3-1.3,1.4c-1.7,0.2-5.1,0.4-9-0.4C861,293,860.5,292.4,860.5,291.7z"/>
		<path class="st18" d="M859.3,191.9l2-13.3l20-4.8l1.1,19.4c0.1,4.6-3.5,8.9-7.9,10.4c-0.5,0.2-0.9,0.3-1.4,0.4
			C865.8,205.7,858.5,199.3,859.3,191.9z"/>
		<path class="st18" d="M888.8,165.2c-3.3,14.6-14,20.5-23.9,20.3c-11.7-0.3-13.6-10.5-11.9-25.1c1.8-14.8,8.5-19.4,19.5-18.9
			C884,142,892.1,150.4,888.8,165.2z"/>
		<path class="st21" d="M880.5,166.8c0.4-1.1,0.9-3,2.8-3.7c2.6-0.9,4.7,2.2,4.1,5.2c-0.7,3.7-4.2,5.8-6.1,5.6
			c-0.1,3.7,0.1,5.7,0.1,5.7s4.4-3.8,7.2-10c4.3-9.6,2-23.4-8.8-27.3c-19-4.8-23.4,6.6-23.4,6.6l21.5,1.2l-1,7.2c0,0,3.8,0.5,2.4,9
			L880.5,166.8z"/>
		<path class="st22" d="M865.4,157.8c-0.2,0-0.4,0.2-0.5,0.4c0,0.2,0.1,0.4,0.3,0.5l0.1,0l6.6,0.6l2,0.8c0.2,0.1,0.4,0,0.5-0.2
			l0-0.1c0.1-0.2,0-0.4-0.2-0.5l0,0l-2.1-0.8l-0.1,0L865.4,157.8z"/>
		<path class="st23" d="M874,177.8c-2.2-3.7-1.8-6.8-12-7.3c-5-0.3-6.8,1.3-8.9,5.1c0.9,6.2,5.6,10.4,12.3,10.4
			c14-0.1,15.6-14,15.6-14s-2,0.4-2.7,1.4C876.4,176.1,875.2,176.7,874,177.8z"/>
		<path class="st16" d="M858.4,173.1c0,0,3.6,0.5,9.1,0.3c0,0-1,2.2-4.9,2C859.4,175.2,858.4,173.1,858.4,173.1z"/>
		<path class="st22" d="M858.4,172.8l0.3,0l0.6,0.1c0.3,0,0.7,0.1,1.1,0.1c2.1,0.2,4.5,0.2,7.1,0.2c0.2,0,0.4,0.2,0.3,0.4l0,0.1
			c-0.2,0.4-0.6,0.8-1.2,1.3c-1,0.7-2.3,1-4.1,0.9c-1.4-0.1-2.5-0.5-3.3-1.2c-0.6-0.5-0.9-0.9-1.1-1.3
			C858,173,858.2,172.7,858.4,172.8z M859,173.5L859,173.5c0.2,0.2,0.3,0.4,0.5,0.5c0.8,0.6,1.7,1,3,1.1c1.6,0.1,2.8-0.2,3.7-0.8
			l0.1-0.1c0.2-0.1,0.3-0.3,0.5-0.4l0-0.1l-0.4,0c-2.1,0-4.1,0-5.8-0.1l-0.4,0c-0.3,0-0.6,0-0.9-0.1L859,173.5z"/>
		<path class="st22" d="M860,157.4c-0.2,0-0.4,0.2-0.3,0.4l0,0.1l0.5,2.3l-2.3,8.5c-0.2,0.8,0.3,1.7,1.2,1.8l0.1,0l5.4,0.4
			c0.2,0,0.4-0.2,0.5-0.4c0-0.2-0.1-0.4-0.3-0.5l0,0l-5.4-0.4c-0.3,0-0.6-0.3-0.5-0.7l0-0.1l2.3-8.6c0,0,0-0.1,0-0.1l0-0.1l-0.5-2.4
			C860.5,157.5,860.3,157.4,860,157.4L860,157.4z"/>
		<path class="st22" d="M861.3,177.7c-0.2,0-0.3,0.1-0.3,0.3c0,0.2,0.1,0.3,0.2,0.3l0.1,0l2.6,0.2c0.2,0,0.3-0.1,0.3-0.3
			c0-0.2-0.1-0.3-0.2-0.3l0,0L861.3,177.7z"/>
		<path class="st22" d="M854.2,156.8c-0.2,0-0.4,0.1-0.5,0.4c0,0.2,0.1,0.4,0.3,0.5l0.1,0l5.7,0.6c0.2,0,0.4-0.1,0.5-0.4
			c0-0.2-0.1-0.4-0.3-0.5l-0.1,0L854.2,156.8z"/>
		<path class="st22" d="M873.6,184.1c-0.1-0.2-0.3-0.2-0.4-0.1c-3.9,1.9-7.7,2.1-11.1,1.3c-0.3-0.1-0.6-0.1-0.8-0.2l-0.2-0.1
			c-0.2-0.1-0.3-0.1-0.3-0.1c-0.2-0.1-0.3,0-0.4,0.2c-0.1,0.2,0,0.4,0.2,0.4l0.1,0.1c0.1,0,0.1,0,0.2,0.1c0.3,0.1,0.6,0.2,1,0.3
			c3.5,0.8,7.5,0.6,11.5-1.4C873.6,184.4,873.7,184.2,873.6,184.1z"/>
		<path class="st22" d="M884.7,164.8c-0.5-0.1-1-0.1-1.5,0.2c-0.8,0.4-1.4,1.4-1.6,2.9c0,0.2,0.1,0.3,0.3,0.4c0.8,0.2,1.2,0.5,1.2,1
			c0,0.4-0.3,0.9-0.7,1.2c-0.1,0.1-0.2,0.3-0.1,0.4c0.1,0.1,0.3,0.2,0.4,0.1c0.6-0.4,1-1.1,1-1.8c0-0.7-0.5-1.2-1.3-1.5l-0.1,0v-0.1
			c0.2-1.1,0.6-1.7,1.1-2l0.1,0c0.4-0.2,0.8-0.2,1.1-0.2l0.1,0c0,0,0,0,0,0c0.2,0.1,0.3,0,0.4-0.2c0.1-0.2,0-0.3-0.2-0.4l-0.1,0
			C884.8,164.8,884.8,164.8,884.7,164.8z"/>
		<path class="st22" d="M866.8,162.1c-0.2,0-0.4,0.2-0.5,0.4c-0.1,1.2,0.8,2.3,2,2.4c1.2,0.1,2.2-0.9,2.3-2.1c0-0.2-0.2-0.4-0.4-0.5
			c-0.2,0-0.4,0.2-0.5,0.4c0,0.8-0.7,1.3-1.4,1.3c-0.7,0-1.3-0.7-1.2-1.5C867.2,162.3,867,162.1,866.8,162.1z"/>
		<path class="st22" d="M854.9,161.3c-0.2,0-0.4,0.2-0.5,0.4c-0.1,1.2,0.8,2.3,2,2.4c1.2,0.1,2.2-0.9,2.3-2.1c0-0.2-0.2-0.4-0.4-0.5
			c-0.2,0-0.4,0.2-0.5,0.4c0,0.8-0.7,1.3-1.4,1.3c-0.7,0-1.3-0.7-1.2-1.5C855.4,161.5,855.2,161.3,854.9,161.3z"/>
		<path class="st13" d="M890.4,410.4c7.3-0.6,12.9-6.9,12.6-14.2l-3-76.2c-0.4-9.5-8.6-16.9-18.1-16.1c-9.5,0.8-16.4,9.3-15.3,18.7
			l9,75.7C876.5,405.7,883.1,411,890.4,410.4z"/>
		<path class="st13" d="M887.7,496.8l-12.2-98.3c-1-7.9,4.9-15.1,12.8-15.6c7.8-0.5,14.5,5.4,14.9,13.2l4.8,98.9
			C908,495.1,899.7,500.3,887.7,496.8z"/>
		<path class="st6" d="M841.5,496.8c0,0-6.2,14.4-20.3,17.7c-9.3,2.1,0.3,10.5,16.6,6.8c9.3-2.1,7.1-6.8,12.3-7c3-0.1,9-1.8,9.2-4.1
			c0.4-4,0.5-5.1,0.7-9.8C860.8,472.8,850,472.2,841.5,496.8z"/>
		<path class="st13" d="M852.8,412c-7.4-0.2-13.3-6.1-13.4-13.5l-1.5-76.2c-0.2-9.5,7.6-17.3,17.1-17.1c9.5,0.2,17,8.3,16.4,17.8
			l-4.6,76.1C866.4,406.5,860.2,412.2,852.8,412z"/>
		<path class="st13" d="M861.2,496.8l5.6-96.4c0.5-7.7-5.6-14.3-13.3-14.4c-7.7-0.2-13.9,6-13.9,13.7l0.3,96.7
			C840,496.4,849.4,501.1,861.2,496.8z"/>
		<path class="st17" d="M842.4,273.6c0,0-10.8-44.9-5.5-68.3c6.3-3.8,11.1-3.9,22-7.4c2.2-0.7,6.8,4.6,9.5,4.5
			c4-0.1,12.3-5.8,16.1-4.9c16.4,3.7,22.2,6.4,22.2,6.4l-3.1,32.4c-3.7,17.7-9,35.7-9,35.7s8.7,12.2-9.2,14.4
			c-12.4,1.6-33.2,2-41-2.6C841,281.7,840.7,278,842.4,273.6z"/>
		<path class="st17" d="M859.2,193.3l-4.5,5.8l5.5,10.7l8.9-8.7L859.2,193.3z"/>
		<path class="st17" d="M869,201.2l12.7-7.7l3.9,4.5l-8.1,11.2L869,201.2z"/>
		<path class="st6" d="M862.1,207.8l6.8-6.7l6.6,7l-4,7.5l-7.5-0.2L862.1,207.8z"/>
		<path class="st6" d="M864,215.3l7.5,0l3.9,46.2l-10.9,15.2l-9.3-15.8L864,215.3z"/>
		<path class="st3" d="M885.9,197.7c-0.2-0.1-0.4-0.1-0.5,0.1l0,0.1l-7.8,11.5l-8.4-8.6c-0.1-0.2-0.4-0.2-0.5-0.1l0,0l-8.5,8
			l-4.4-9.9c-0.1-0.2-0.3-0.3-0.5-0.2l-0.1,0c-0.2,0.1-0.3,0.3-0.2,0.5l0,0.1l4.6,10.4c0.1,0.2,0.4,0.3,0.6,0.2l0,0l8.6-8.1l8.4,8.7
			c0.2,0.2,0.5,0.2,0.6,0l0,0l8.1-12C886.2,198.1,886.1,197.9,885.9,197.7z"/>
		<path class="st3" d="M864.3,215.1c-0.2,0-0.4,0.2-0.4,0.4c0,0.2,0.2,0.4,0.4,0.4l0.1,0h6.7c0.2,0,0.4-0.2,0.4-0.4
			c0-0.2-0.2-0.4-0.4-0.4l-0.1,0H864.3z"/>
		<path class="st3" d="M836.5,217.5c-0.2,0-0.4,0.2-0.4,0.4c-0.2,4.6-0.1,9.7,0.2,15.2c0.5,7.7,1.6,15.8,3,24.2
			c0.7,4,1.4,7.8,2.1,11.3l0.1,0.7c0.2,1,0.4,2,0.6,2.8l0.3,1.2l0.1,0.5l-0.1,0.3c-0.2,0.3-0.3,0.7-0.5,1.1
			c-0.6,1.5-0.9,3.1-0.6,4.6c0.3,2,1.6,3.6,3.9,4.6c0.2,0.1,0.5,0,0.6-0.2c0.1-0.2,0-0.5-0.2-0.6c-2-0.9-3.1-2.3-3.4-4
			c-0.2-1.3,0-2.7,0.6-4.1c0.1-0.3,0.2-0.6,0.4-0.8l0.1-0.2c0.1-0.2,0.2-0.3,0.2-0.4c0.1-0.1,0.1-0.2,0-0.3l-0.2-0.8l-0.2-1
			c-0.2-0.7-0.3-1.6-0.5-2.4l-0.1-0.4c-0.8-3.7-1.6-7.7-2.3-12c-1.4-8.3-2.5-16.5-3-24.1c-0.4-5.5-0.5-10.6-0.2-15.1
			C836.9,217.7,836.7,217.5,836.5,217.5z"/>
		<path class="st24" d="M854.5,281.9l-12.3-38.7c-0.2-0.6-0.8-1.1-1.5-1.1l-34.6-0.5c-1.1,0-1.8,1-1.5,2.1l12.9,37.6
			c0.2,0.6,0.8,1,1.4,1l34,1.5C854,284,854.8,283,854.5,281.9z"/>
		<path class="st6" d="M840.6,243.5c-0.2-0.8-1-1.3-1.8-1.3l-35-0.5c-0.8,0-1.3,0.7-1,1.4l13.1,38.1c0.2,0.7,0.8,1.1,1.6,1.2
			l33.5,1.5c1.3,0.1,2.3-1.2,1.9-2.5L840.6,243.5z"/>
		<path class="st13" d="M835.8,245.8c-0.4,0.4-0.3,1.2,0.3,1.7c0.6,0.5,1.3,0.6,1.7,0.1c0.4-0.4,0.3-1.2-0.3-1.7
			C837,245.5,836.2,245.4,835.8,245.8z"/>
		<path class="st2" d="M836.3,246.3c-0.2,0.2-0.1,0.6,0.2,0.9c0.3,0.3,0.7,0.3,0.9,0.1c0.2-0.2,0.1-0.6-0.2-0.9
			C836.9,246.1,836.5,246.1,836.3,246.3z"/>
		<path class="st18" d="M839.1,274.7c-2-0.2-3-1-2.8-2.7c-2.4-0.8-2.1-2.8-2.1-2.8s-4.6-0.1-5.4-2c-0.3-0.8,0.3-1.6,1.1-1.6
			c9.9-0.7,16.9-5.9,16.9-5.9s-3.9-5.7-3.5-8.3c0.1-0.8,1.1-1,1.6-0.4c4.1,5.4,12.2,9.6,12.2,9.6s9.8,9.2-0.8,13.3
			c0,0-8.1,3.2-13.7,2.8C839.9,276.4,839.1,274.7,839.1,274.7z"/>
		<path class="st19" d="M841.5,267.4c-0.1-0.2-0.4-0.3-0.6-0.2c-0.7,0.4-1.5,0.7-2.4,1c-1.1,0.3-2.3,0.5-3.4,0.6l-0.4,0
			c-0.5,0-0.9,0-1.2,0.1l-0.2,0c-0.2,0-0.4,0.2-0.4,0.4c0,0.2,0.2,0.4,0.4,0.4l0.1,0h0.1c0.4,0,1,0,1.7-0.1c1.2-0.1,2.4-0.3,3.6-0.6
			c1-0.3,1.9-0.6,2.6-1C841.5,267.9,841.6,267.6,841.5,267.4z"/>
		<path class="st19" d="M842.4,270.4c-0.1-0.2-0.4-0.3-0.6-0.2c-0.1,0-0.2,0.1-0.3,0.1c-1.2,0.5-2.4,0.9-3.7,1
			c-0.7,0.1-1.2,0.1-1.6,0.1l-0.2,0c-0.2,0-0.4,0.2-0.4,0.4c0,0.2,0.2,0.4,0.4,0.4l0.1,0l0.2,0c0.4,0,1-0.1,1.7-0.2
			c1.3-0.2,2.6-0.6,3.9-1.1c0.1,0,0.2-0.1,0.3-0.1C842.4,270.9,842.5,270.6,842.4,270.4z"/>
		<path class="st19" d="M844.2,273.8c-0.1-0.2-0.4-0.3-0.6-0.2c-0.3,0.1-1.1,0.3-2.1,0.4c-0.5,0.1-1.1,0.1-1.7,0.2l-0.6,0l-0.2,0
			c-0.2,0-0.4,0.2-0.4,0.4c0,0.2,0.2,0.4,0.4,0.4l0.2,0c0.2,0,0.4,0,0.6,0c0.6,0,1.2-0.1,1.7-0.2l0.4,0c0.9-0.1,1.6-0.3,2-0.4
			C844.2,274.3,844.3,274,844.2,273.8z"/>
		<path class="st17" d="M919.6,277.2c5.9-1.7,9.4-7.9,7.9-13.9l-13-50.6c-1.9-7.2-9.3-11.5-16.5-9.4c-7.2,2.1-11.2,9.7-8.8,16.8
			l16.3,49.6C907.4,275.6,913.6,278.9,919.6,277.2z"/>
		<path class="st3" d="M905.5,206.9c-0.1-0.2-0.4-0.3-0.6-0.2c-3.8,1.8-6.6,5.6-8.8,10.7c-1.1,2.6-1.9,5.3-2.4,8.1
			c-0.2,0.8-0.3,1.6-0.4,2.4l-0.1,0.6c0,0.2,0,0.3-0.1,0.4l0,0.3c0,0,0,0.1,0,0.1l0,0.1l7.3,26.4c0.1,0.2,0.3,0.4,0.5,0.3
			c0.2-0.1,0.3-0.3,0.3-0.5l0-0.1l-7.3-26.3l0.1-0.4c0-0.1,0-0.3,0.1-0.5c0.1-0.8,0.3-1.7,0.5-2.6c0.6-2.7,1.4-5.4,2.4-7.9
			c2-4.9,4.8-8.6,8.3-10.3C905.6,207.4,905.6,207.1,905.5,206.9z"/>
		<path class="st17" d="M857,257.7l-0.2,17.2l59.5,3c6.6,0.3,12.1-4.9,12-11.5c-0.1-6.4-5.4-11.5-11.9-11.3L857,257.7z"/>
		<path class="st3" d="M912.4,254.7l-55.5,2.5c-0.2,0-0.4,0.2-0.4,0.4l0,0.1l-0.2,17.2c0,0.2,0.1,0.4,0.3,0.4l0.1,0l40.3,2.5
			c0.2,0,0.4-0.2,0.4-0.4c0-0.2-0.1-0.4-0.3-0.4l-0.1,0l-39.9-2.4l0.1-16.4l55.1-2.5c0.2,0,0.4-0.2,0.4-0.4v-0.1
			C912.8,254.9,912.7,254.7,912.4,254.7L912.4,254.7z"/>
		<path class="st3" d="M864,258.5c-0.2,0-0.4,0.2-0.4,0.4v0.1l0.4,14.7c0,0.2,0.2,0.4,0.4,0.4c0.2,0,0.4-0.2,0.4-0.4v-0.1l-0.4-14.7
			C864.5,258.7,864.3,258.5,864,258.5z"/>
		<path class="st16" d="M859.8,270.4c0,0.6,0.5,1.1,1.1,1.1c0.6,0,1.1-0.5,1.1-1.1c0-0.6-0.5-1.1-1.1-1.1
			C860.3,269.4,859.8,269.8,859.8,270.4z"/>
		<path class="st11" d="M859.4,331.8c-0.2-0.1-0.5,0-0.6,0.2c-0.1,0.2,0,0.4,0.2,0.5l0,0l8.7,3.9l19.5,160.4c0,0.2,0.2,0.4,0.4,0.4
			l0.1,0c0.2,0,0.4-0.2,0.4-0.4v-0.1l-19.5-160.6c0-0.1-0.1-0.2-0.2-0.3l0,0L859.4,331.8z"/>
		<path class="st6" d="M483.2,484.6H522v-7.9h-38.8V484.6z"/>
		<path class="st14" d="M512.4,395.6l10.4,128.1h8.9l-10.4-128.1H512.4z"/>
		<path class="st14" d="M484,395.6l-10.4,128.1h8.9l10.4-128.1H484z"/>
		<path class="st24" d="M480.2,404c-4.6,0-8.3-3.7-8.3-8.3s3.7-8.3,8.3-8.3h45.7c4.6,0,8.3,3.7,8.3,8.3s-3.7,8.3-8.3,8.3H480.2z"/>
		<path class="st12" d="M572.2,436c0-0.2,5.9,53.9,6,57.8c0.3,10.7-0.9,12.2,4.8,14.9c1.5,0.7,3.7-0.2,6,2.4
			c6.5,7,15.8,10.8,16.9,6.6c0.7-3.8-14.5-15.7-16.2-23.5c-1.7-8.2,7.2-72.1,1.4-76.6C585.4,413,573,391.1,572.2,436z"/>
		<path class="st6" d="M579.4,510.2c0,0-2-5.7-1-12.9c0,0,4.9,4.3,9.2,9c5,5.4,6.2,5.7,6.2,5.7c6.1,1.7,7.4-1.8,7.4-1.8
			s3.4,4.2,9.8,8.6c5.7,4-16.1,5.3-19.2-0.1c-3.1-5.4-7.1-8.6-7.1-8.6l-1.5,8.4l-2.1,0L579.4,510.2z"/>
		<path class="st24" d="M600.1,387.7l-7.6,93.1l-32.9-2.6c0,0,2.3-50.5,7.2-92.9c0,0,1-22.3,18.6-20.7
			C602.8,366.2,600.1,387.7,600.1,387.7z"/>
		<path class="st24" d="M581.4,362.9c-34.2-4.2-59.4-4.6-67.3-2.6c0,0-16.4,3.3-13.3,15.9c3.8,15.4,21.4,15.7,21.4,15.7l57.1,4.5
			c4.5,0.4,19.5,2.1,20.3-15.4C600.5,364.4,582.2,363,581.4,362.9z"/>
		<path class="st12" d="M562.4,285.4c0,0-27.1,34.2-30.4,39.2c-9.2,13.9,8.3,20,13.6,12.4c3.4-4.7,7.7-15.5,12.4-24.4
			c6.6-12.5,11.1-21.8,11.1-21.8L562.4,285.4z"/>
		<path class="st6" d="M503.9,229.1c0,0,22.6,4.4,22.4,17.4c-0.1,6.7-6.8,13.8-3.7,15.9c12.1,8.3-1.4,11.3,6.3,17.9
			c11.4,9.9,3.8,26-8.5,24.6c-12.7-1.5-7.1,16.8-29,11.1c-12.3-3.3-15.9-6.1-24.5-10.7c-8.7-4.6-13.5-27.8-2.3-38.8
			c6.9-7,13.3-6.1,17.4-17.9s7.9-19,13.7-17.9C497.8,227.8,503.9,229.1,503.9,229.1z"/>
		<path class="st16" d="M516.4,257.7c0.1-0.2,0.4-0.3,0.5,0c0.7,2.2,2.3,8.1,0,8.3C514.3,266.2,515.7,260,516.4,257.7z"/>
		<path class="st25" d="M493.8,274.9c1-9,2-16.3,2-16.3l13.8,7.8l-0.8,10.9c-0.6,4-4.5,6.7-8.5,6
			C496.1,282.5,493.3,279.2,493.8,274.9z"/>
		<path class="st12" d="M502.8,242.9c0,0,1.5-4,4.3-2.1c2,1.4,1.5,0.3,1.9-0.8c1.7-4.1,2.5,5.4,8.9,7.5c0.1,5.1,0.1,21.8-10.8,22.4
			c-4.3,0.2-9.4-2.4-11.6-8.6c-1.3-3.7-0.2-7.6,1.3-8.3C501.6,250.5,501.5,248,502.8,242.9z"/>
		<path class="st15" d="M511.8,247.4c-0.2,0-0.3,0-0.4,0.2l0,0.1l-0.8,2.6l0,0.1l0,0.2c0,0.1,0,0.2,0,0.3l0,0.4c0,0.3,0,0.7,0.1,1.1
			c0.1,1.4,0.3,2.9,0.5,4.6l0.1,0.6l0,0c-0.5,0.2-0.9,0.3-1.4,0.3l-0.3,0c-0.4,0-0.7,0.1-1,0.1l-0.2,0c-0.2,0-0.4,0.1-0.4,0.3
			c0,0.2,0.1,0.4,0.3,0.4l0.1,0c0.3,0,0.7,0,1.2-0.1c0.7-0.1,1.4-0.2,2.1-0.5c0.2-0.1,0.2-0.2,0.2-0.4c-0.3-2-0.5-3.9-0.7-5.5l0-0.5
			c0-0.3,0-0.6-0.1-0.8l0-0.5l0-0.1l0.8-2.5C512.1,247.7,512,247.5,511.8,247.4L511.8,247.4z"/>
		<path class="st26" d="M504.8,259.9c-0.2-0.1-0.5,0.1-0.6,0.3s0.1,0.5,0.3,0.6c0.3,0.1,0.7,0.2,1.1,0.3c1.5,0.3,3.1,0.3,4.5,0.2
			l0.2,0l0.3,0c0.1,0,0.1,0,0.2,0c0.2,0,0.4-0.3,0.4-0.5c0-0.2-0.3-0.4-0.5-0.4l-0.1,0c-0.1,0-0.3,0-0.5,0c-1.4,0.1-2.9,0.1-4.3-0.2
			C505.4,260.1,505.1,260,504.8,259.9z"/>
		<path class="st11" d="M517.1,246.7c-1.3-0.3-3.2-0.2-5.6,0.6c-0.2,0.1-0.4,0.3-0.3,0.6c0.1,0.2,0.3,0.4,0.6,0.3
			c2.3-0.7,4-0.8,5.1-0.6l0.1,0c0.1,0,0.1,0,0.2,0.1l0,0c0.2,0.1,0.5,0,0.6-0.2c0.1-0.2,0-0.5-0.2-0.6
			C517.5,246.8,517.4,246.8,517.1,246.7z"/>
		<path class="st11" d="M503.9,246.3c-1-0.1-1.8-0.2-2.5,0c-0.2,0-0.4,0.3-0.3,0.5c0,0.2,0.3,0.4,0.5,0.4c0.6-0.1,1.3-0.1,2.2,0
			c0.7,0.1,1.4,0.3,2.1,0.5c0.3,0.1,0.7,0.2,1,0.3l0.3,0.1c0.2,0.1,0.4,0.1,0.5,0.2c0.2,0.1,0.5,0,0.6-0.2s0-0.5-0.2-0.6l-0.2-0.1
			c-0.1,0-0.1,0-0.2-0.1l-0.1,0c-0.4-0.1-0.8-0.3-1.3-0.4C505.3,246.6,504.6,246.4,503.9,246.3z"/>
		<path class="st15" d="M507.2,263c-0.2,0-0.3,0.1-0.4,0.3c0,0.2,0.1,0.3,0.3,0.3l0.1,0l1.2,0c0.2,0,0.3-0.1,0.4-0.3
			c0-0.2-0.1-0.3-0.3-0.3l-0.1,0L507.2,263z"/>
		<path class="st12" d="M489.1,255.5c-0.8-4.3,3.3-4,3.3-4s0,4.3,1.1,8.1C489.3,259.4,489.1,255.5,489.1,255.5z"/>
		<path class="st16" d="M491.4,258.5c0.1-0.2,0.4-0.3,0.5,0c0.7,2.2,2.3,8.1,0,8.3C489.2,267.1,490.7,260.8,491.4,258.5z"/>
		<path class="st11" d="M512.9,251.9c-0.2,0-0.5,0.2-0.5,0.4c-0.1,1.2,0.6,2.3,1.6,2.4c1,0.1,1.9-0.9,2-2.1c0-0.2-0.2-0.5-0.4-0.5
			c-0.2,0-0.5,0.2-0.5,0.4c-0.1,0.8-0.5,1.4-1,1.3c-0.5,0-0.8-0.7-0.8-1.5C513.3,252.1,513.1,251.9,512.9,251.9z"/>
		<path class="st11" d="M503.1,251.5c-0.2,0-0.5,0.2-0.5,0.4c-0.1,1.2,0.6,2.3,1.6,2.4c1,0.1,1.9-0.9,2-2.1c0-0.2-0.2-0.5-0.4-0.5
			c-0.2,0-0.5,0.2-0.5,0.4c-0.1,0.8-0.5,1.4-1,1.3c-0.5,0-0.8-0.7-0.8-1.5C503.6,251.7,503.4,251.5,503.1,251.5z"/>
		<path class="st12" d="M545.2,330.1c0,0-9.5-30.6-12-36.1c-6-13.3-15.6-12.8-19.4-5.4c-4.6,8.9,18,48.1,18,48.1s2.6,5.5,9.1,3.6
			C548.4,338,545.2,330.1,545.2,330.1z"/>
		<path class="st14" d="M539.2,309.3c-1.1-2.8-7.2-29.2-19.2-25.5c-9.4,2.9-8.1,13.1,1.2,32.8L539.2,309.3z"/>
		<path class="st14" d="M488.7,338c7,1.7,24.7,0.6,26.8-0.3c2.1-0.9-0.3-5.9-0.3-5.9c12.7-32.5,11.1-44,10-46.4
			c-1.5-3.3-14.6-2.5-15.1-5c-0.3-1.3-0.2-5.6-0.2-5.6l-17.4-1c0,0-1,4.8-1.9,6.3c-1.8,3-12.8,0.7-17.3,6.7
			c-8.1,10.8,7.7,31.3,13.8,44.8C487.1,331.6,484.9,334.9,488.7,338z"/>
		<path class="st2" d="M511.3,384.5l14.9-15.5c0,0-3.2-17.3-11.4-24.9l-29.4-1c0,0-12.6,8.8-11.2,30.1l22.5,11.5L511.3,384.5z"/>
		<path class="st2" d="M484.7,343.4l30.1,0.7l-0.7-4.6l-28.3-0.9L484.7,343.4z"/>
		<path class="st27" d="M504.2,344.1c-0.2,0-0.3,0.2-0.3,0.4c0.3,2.9,0.6,6.1,0.8,9.5c0.4,7.6,0.4,15.8,0.2,23.5l0,1.4
			c0,0.7-0.1,1.4-0.1,2l-0.1,1.8l0,0.8c0,0.2,0.1,0.3,0.3,0.4c0.2,0,0.3-0.1,0.4-0.3l0.1-1l0.1-1.6c0-0.5,0-1,0.1-1.6l0-0.4
			c0.3-8.2,0.3-16.8-0.1-25c-0.2-3.4-0.4-6.6-0.8-9.6C504.6,344.2,504.5,344.1,504.2,344.1L504.2,344.1z"/>
		<path class="st27" d="M484.7,343.3c-0.2,0-0.3,0.1-0.3,0.3c0,0.2,0.1,0.3,0.3,0.3l0.1,0l29.5,0.5c0.2,0,0.3-0.1,0.3-0.3
			c0-0.2-0.1-0.3-0.3-0.3l-0.1,0L484.7,343.3z"/>
		<path class="st12" d="M536.9,437.9c0-0.2,6.8,54.3,7,58.2c0.4,10.7-0.7,12.3,5.1,14.9c1.5,0.7,3.7-0.2,6.1,2.3
			c6.7,6.9,16.1,10.6,17.1,6.4c0.6-3.9-14.9-15.6-16.7-23.5c-1.9-8.2,6.1-72.8,0.2-77.2C549.9,414.6,537,392.7,536.9,437.9z"/>
		<path class="st6" d="M545.3,512.6c0,0-2.1-5.8-1.2-13c0,0,5,4.2,9.4,8.9c5.1,5.4,6.3,5.6,6.3,5.6c6.2,1.7,7.5-1.9,7.5-1.9
			s3.5,4.2,10,8.6c5.8,3.9-16.1,5.6-19.3,0.2c-3.2-5.4-7.3-8.5-7.3-8.5l-1.4,8.5l-2.1,0L545.3,512.6z"/>
		<path class="st2" d="M564.3,381.6l9.6,93.7l-33.1,3.5c0,0-7-50.5-10-93.4c0,0-3.1-22.3,14.6-23.9
			C563.1,359.8,564.3,381.6,564.3,381.6z"/>
		<path class="st2" d="M543.6,359.7c-35.7-5.2-46.8-5.2-55.2-3.3c0,0-17.2,3.1-14.3,16.3c3.6,16.2,22,16.9,22,16.9l44.5,5
			c4.7,0.5,21.7,1.6,21.7-15.7C562.3,361.7,544.4,359.8,543.6,359.7z"/>
		<path class="st12" d="M484,329.6c0,0,5.7-25.9,5.5-31.9c-0.5-14.6-10.7-16.1-15.9-9.6c-4,5-6.5,43-6.5,43s1.5,6.5,8.2,7.2
			C483.3,339.1,484,329.6,484,329.6z"/>
		<path class="st14" d="M479.5,283.1c-7.1,1.5-9.8,8.4-10.4,28.2l18.6,3c0-3,12.2-33.4-9.7-30.9"/>
		<path class="st12" d="M558.8,292.4c0,0-0.3-3.1,0.8-7c1-3.9,3.9-8.6,3.9-13.3s4-0.8,1.8,8.1c6-1.6,12.3-4.5,14.1-9.1
			c0.7-1.7,2.3-1.4,2.3,0.2c0,1.6-0.6,3.1-0.6,3.1s1.2,1.3,0.4,3.1c1.6,2.7-1,4.5-1,4.5s1.6,1-1.6,5.1c-3.2,4.3-11.9,7.1-11.9,7.1
			l-7.8,14.8l-8.3-5.2L558.8,292.4z"/>
		<path class="st15" d="M565.7,280c-0.1-0.2-0.3-0.3-0.4-0.2s-0.3,0.3-0.2,0.4l0.1,0.2l0,0.1c0.1,0.3,0.2,0.5,0.3,0.9
			c0.3,1,0.4,2,0.4,2.9c0,1.1-0.4,2.1-1,2.7c-0.1,0.1-0.1,0.4,0,0.5c0.1,0.1,0.4,0.1,0.5,0c0.8-0.8,1.2-1.9,1.2-3.2
			c0-1-0.1-2-0.4-3.1c-0.1-0.2-0.1-0.5-0.2-0.7l-0.1-0.2C565.7,280.2,565.7,280.1,565.7,280z"/>
		<path class="st15" d="M579.5,279.9c-0.5-0.5-1-0.6-1.4-0.3c-0.4,0.3-0.5,1-0.5,2c0,0.3,0.1,0.7,0.2,1.1c0,0.1,0.1,0.3,0.1,0.4
			l0.1,0.3l0,0c0,0.1-0.1,0.1-0.1,0.2l-0.1,0.2c-0.3,0.4-0.6,0.8-1,1.2c-1.1,1.1-2.2,1.8-3.4,1.8c-4,0-8,1.1-8.7,3.2
			c-0.1,0.2,0,0.4,0.2,0.4c0.2,0.1,0.4,0,0.4-0.2c0.6-1.7,4.3-2.7,8.1-2.7c1.4,0,2.7-0.7,3.9-2c0.4-0.4,0.8-0.9,1.1-1.3
			c0.1-0.1,0.1-0.2,0.2-0.2l0.1-0.2c0.1-0.1,0.1-0.1,0.1-0.2c0-0.1,0.1-0.2,0-0.3l-0.1-0.2c0-0.2-0.1-0.4-0.1-0.5
			c-0.1-0.3-0.1-0.7-0.1-1c-0.1-0.8,0-1.3,0.2-1.4c0.1,0,0.2,0,0.5,0.3c0.2,0.2,0.4,0.4,0.6,0.7c0.2,0.2,0.4,0.5,0.5,0.7l0.1,0.2
			c0,0.1,0.1,0.1,0.1,0.1c0.1,0.2,0.3,0.2,0.5,0.1c0.2-0.1,0.2-0.3,0.1-0.5l-0.1-0.2c0,0-0.1-0.1-0.1-0.1c-0.2-0.3-0.4-0.5-0.5-0.8
			C579.9,280.4,579.7,280.1,579.5,279.9z"/>
		<path class="st15" d="M580.3,275.4c-0.7-0.5-1.3-0.6-1.7,0c-0.3,0.5-0.3,1.2-0.2,2c0.1,0.4,0.2,0.8,0.4,1.2
			c0.1,0.2,0.2,0.4,0.3,0.6l0.1,0.2c0.1,0.1,0.1,0.3,0.2,0.3c0.1,0.2,0.3,0.2,0.5,0.1c0.2-0.1,0.2-0.3,0.1-0.5l-0.1-0.1
			c0,0,0-0.1-0.1-0.1c-0.1-0.2-0.2-0.5-0.3-0.7c-0.2-0.4-0.3-0.8-0.4-1.1c-0.2-0.6-0.1-1.1,0.1-1.4c0.1-0.2,0.3-0.1,0.7,0.2
			c0.2,0.2,0.4,0.4,0.7,0.7c0.2,0.2,0.4,0.5,0.6,0.7l0.2,0.3c0,0,0,0.1,0.1,0.1c0.1,0.2,0.3,0.2,0.5,0.1c0.2-0.1,0.2-0.3,0.1-0.5
			l-0.1-0.2c0,0-0.1-0.1-0.1-0.1c-0.2-0.3-0.4-0.5-0.6-0.8C580.8,275.9,580.6,275.6,580.3,275.4z"/>
		<path class="st15" d="M578,281.5c-0.1-0.1-0.4-0.1-0.5,0c-1.1,1.4-2.2,2.2-3.9,2.9c-0.2,0.1-0.2,0.3-0.2,0.5
			c0.1,0.2,0.3,0.2,0.5,0.2c1.8-0.8,2.9-1.7,4.1-3.1C578.2,281.8,578.2,281.6,578,281.5z"/>
		<path class="st15" d="M579,278.8c-0.1-0.1-0.3-0.2-0.5,0l-0.2,0.1l-0.2,0.2c-0.1,0.1-0.2,0.1-0.3,0.2c-0.5,0.4-1.1,0.8-1.8,1.2
			c-1,0.6-1.9,1-2.9,1.3c-0.2,0.1-0.3,0.3-0.2,0.4c0.1,0.2,0.3,0.3,0.4,0.2c1-0.3,2-0.8,3-1.4c0.7-0.4,1.3-0.8,1.8-1.2l0.3-0.2
			l0.3-0.3c0,0,0.1-0.1,0.1-0.1C579.1,279.1,579.1,278.9,579,278.8z"/>
		<path class="st15" d="M578.8,276c-0.1-0.1-0.3-0.2-0.5,0l-0.2,0.2l-0.3,0.2c-0.1,0.1-0.2,0.2-0.3,0.3c-0.7,0.5-1.4,1-2.1,1.5
			c-0.9,0.6-1.8,1.1-2.7,1.4c-0.2,0.1-0.3,0.3-0.2,0.4c0.1,0.2,0.3,0.3,0.4,0.2c0.9-0.4,1.9-0.9,2.8-1.5c0.8-0.5,1.5-1,2.2-1.5
			c0.1-0.1,0.2-0.2,0.3-0.3l0.4-0.3c0,0,0.1-0.1,0.1-0.1C578.9,276.3,578.9,276.1,578.8,276z"/>
		<path class="st15" d="M571.8,278.5c-0.2,0.1-0.3,0.3-0.2,0.4l0.1,0.4c0,0.1,0.1,0.2,0.1,0.3c0.2,0.5,0.4,1.1,0.5,1.7
			c0.2,0.7,0.3,1.3,0.5,1.9l0.1,0.4c0.3,1.5,0.3,2.7,0,3.2c-0.1,0.2,0,0.4,0.1,0.5c0.2,0.1,0.4,0,0.5-0.1c0.4-0.8,0.4-2.2,0-4.1
			c-0.1-0.6-0.3-1.3-0.5-2c-0.1-0.5-0.3-1-0.4-1.4l-0.1-0.3c-0.1-0.2-0.1-0.4-0.2-0.5l-0.1-0.2C572.2,278.5,572,278.4,571.8,278.5z"
			/>
		<path class="st15" d="M580.5,272.6c-0.4-0.4-0.7-0.6-1-0.4c-0.5,0.3-0.7,0.8-0.8,1.4c0,0.3,0,0.7,0.1,1c0,0.2,0,0.3,0.1,0.3
			c0,0.2,0.2,0.3,0.4,0.2s0.3-0.2,0.2-0.4l0-0.1c0,0,0-0.1,0-0.1c0-0.3-0.1-0.6,0-0.9c0-0.5,0.2-0.8,0.4-0.9c0,0,0.1,0.1,0.2,0.2
			c0.1,0.1,0.3,0.3,0.4,0.6c0.1,0.1,0.2,0.3,0.3,0.4l0.1,0.2c0.1,0.1,0.1,0.2,0.1,0.3c0.1,0.2,0.3,0.2,0.5,0.2
			c0.2-0.1,0.2-0.3,0.2-0.5l0-0.1c0-0.1-0.1-0.1-0.1-0.2c-0.1-0.2-0.3-0.5-0.4-0.7C580.8,273,580.6,272.8,580.5,272.6z"/>
		<path class="st28" d="M514.7,343h37c1,0,2-0.7,2.3-1.7l12.6-39.5c0.5-1.5-0.7-3.1-2.3-3.1h-37c-1,0-2,0.7-2.3,1.7l-12.6,39.5
			C511.9,341.5,513.1,343,514.7,343z"/>
		<path class="st7" d="M517.1,343h37c1,0,2-0.7,2.3-1.7l12.6-39.5c0.5-1.5-0.7-3.1-2.3-3.1h-37c-1,0-2,0.7-2.3,1.7l-12.6,39.5
			C514.3,341.5,515.4,343,517.1,343z"/>
		<path class="st12" d="M528.6,329.4c0,0-45.6-7.9-51.6-7.8c-12.3,0.1-13.2,15.1-2.5,16.9c13.8,2.3,54.1,0.8,54.1,0.8L528.6,329.4z"
			/>
		<path class="st12" d="M535.8,339.7c0,0-11.2,0.6-13.7-4c-2.3-4.2,2.6-7.8,2.6-7.8s4.2-2.4,9.4-3.8c3.4-0.9,9.6-3.6,10.6-2
			c1.2,2.1-5.6,3.8-5.8,5.6c-0.5,3.6,10.5,2,12.4,2.7C554.9,331.8,549.2,339,535.8,339.7z"/>
		<path class="st15" d="M551.4,332.2c-0.1-0.2-0.2-0.3-0.4-0.2c-0.4,0.1-0.8,0.2-1.3,0.3c-2.6,0.6-5.3,0.6-7.9,0.3
			c-0.3,0-0.5-0.1-0.7-0.1l-0.4-0.1c0,0-0.1,0-0.1,0c-0.2,0-0.4,0.1-0.4,0.3c0,0.2,0.1,0.4,0.3,0.4l0.3,0.1c0.3,0,0.6,0.1,0.9,0.1
			c2.6,0.3,5.5,0.3,8.1-0.3c0.5-0.1,0.9-0.2,1.3-0.4C551.4,332.6,551.5,332.4,551.4,332.2z"/>
		<path class="st15" d="M550.2,334.7c-0.1-0.2-0.3-0.3-0.4-0.2l-0.2,0.1c-0.1,0-0.2,0-0.3,0.1c-0.4,0.1-0.9,0.2-1.4,0.3
			c-2.4,0.5-5.3,0.7-8.5,0.3c-0.2,0-0.4,0.1-0.4,0.3c0,0.2,0.1,0.4,0.3,0.4c3.3,0.3,6.2,0.1,8.7-0.4c0.5-0.1,0.9-0.2,1.3-0.3
			l0.4-0.1c0.2,0,0.3-0.1,0.3-0.1C550.2,335.1,550.3,334.9,550.2,334.7z"/>
		<path class="st15" d="M545.3,337.3c-2.9,0.5-5.3,0.6-7.1,0.4l-0.4,0c-0.2,0-0.3,0-0.4,0c-0.2,0-0.4,0.1-0.4,0.3
			c0,0.2,0.1,0.4,0.3,0.4l0.2,0l0.2,0c0.1,0,0.2,0,0.2,0c1.8,0.2,4.3,0.1,7.4-0.4c0.2,0,0.3-0.2,0.3-0.4
			C545.7,337.4,545.5,337.3,545.3,337.3L545.3,337.3z"/>
		<path class="st15" d="M544.8,322c-0.1-0.2-0.3-0.3-0.4-0.2c-0.2,0.1-0.3,0.3-0.2,0.4c0.1,0.3,0.1,0.5,0,0.7l-0.1,0.1
			c-0.1,0.1,0,0.1-0.3,0.3l-1.6,1.1c-0.2,0.1-0.4,0.3-0.6,0.4l-1.2,0.7c-0.9,0.5-1.3,0.9-1.6,1.3c-0.6,0.7-0.5,1.6,0.2,2.5
			c0.8,1,2.7,1.4,5.5,1.6c1.4,0.1,3,0,4.5,0c0.2,0,0.5,0,0.7,0l0.5,0c0.2,0,0.3-0.2,0.3-0.4c0-0.2-0.2-0.3-0.4-0.3l-0.3,0l-0.4,0
			c-0.1,0-0.3,0-0.4,0c-1.5,0.1-3,0.1-4.4,0c-2.6-0.1-4.4-0.6-5.1-1.3c-0.5-0.7-0.6-1.1-0.2-1.6c0.3-0.4,0.7-0.7,1.8-1.3l0.8-0.5
			c0.3-0.2,0.5-0.3,0.7-0.4l1.3-0.9l0,0c0.4-0.3,0.6-0.5,0.8-0.7C545,323,545,322.6,544.8,322z"/>
		<path class="st11" d="M484.6,286.8c-0.2-0.1-0.4,0-0.4,0.2c-0.1,0.2,0,0.4,0.2,0.4c1.5,0.7,2.7,2.4,3.6,4.9c0.4,1.2,0.8,2.4,1,3.7
			c0.1,0.4,0.1,0.7,0.2,1l0.1,0.4l0,0.2l-1.8,16.6c0,0.2,0.1,0.3,0.2,0.4l0.1,0c0.2,0,0.3-0.1,0.4-0.2l0-0.1l1.8-16.6v-0.1l0-0.3
			l0-0.2c-0.1-0.4-0.1-0.8-0.2-1.2c-0.3-1.3-0.6-2.6-1-3.8C487.6,289.5,486.3,287.6,484.6,286.8z"/>
		<path class="st11" d="M497.9,281.4c-0.2,0-0.3,0.1-0.3,0.3c0,0.2,0.1,0.3,0.3,0.3l0.1,0h9.6c0.2,0,0.3-0.1,0.3-0.3
			c0-0.2-0.1-0.3-0.3-0.3l-0.1,0H497.9z"/>
		<path class="st11" d="M507,283.2l-5,0.3c-0.2,0-0.4,0.2-0.4,0.5c0,0.2,0.2,0.4,0.4,0.4l0.1,0l5-0.3c0.2,0,0.4-0.2,0.4-0.5
			C507.4,283.4,507.3,283.2,507,283.2L507,283.2z"/>
		<path class="st11" d="M521.8,291.9c-0.2-0.1-0.3,0-0.4,0.2l0,0l-1,3c0,0,0,0.1,0,0.1l0,0l2.8,9.8c0.1,0.2,0.2,0.3,0.4,0.2
			c0.2,0,0.3-0.2,0.2-0.4l0-0.1l-2.7-9.7l1-2.9C522.1,292.1,522,291.9,521.8,291.9L521.8,291.9z"/>
		<path class="st15" d="M476.2,320c-0.2,0-0.4,0.1-0.4,0.3c0,0.2,0.1,0.3,0.2,0.4l0.1,0l14.6,2.8c0.2,0,0.4-0.1,0.4-0.3
			c0-0.2-0.1-0.3-0.2-0.4l-0.1,0L476.2,320z"/>
		<g>
			<defs>
				<rect id="SVGID_3_" x="605" y="321.6" width="212" height="212"/>
			</defs>
			<clipPath id="SVGID_4_">
				<use xlink:href="#SVGID_3_"  style="overflow:visible;"/>
			</clipPath>
			<g class="st29">
				<path class="st30" d="M665.5,407.7L642,425.1h117.4l-23.6-17.4H665.5z"/>
				<path class="st27" d="M735.7,425.1l23.6,0l-23.6-17.4V425.1z"/>
				<path class="st31" d="M662,376.7l20,114.7c0.5,2.6,3,4.4,5.6,3.9l8.9-1.6c2.6-0.5,4.4-3,3.9-5.6l-20-114.7L662,376.7z"/>
				<path class="st32" d="M664.7,357.3l-2.7,19.5l18.4-3.2l-8.6-17.5L664.7,357.3z"/>
				<path class="st11" d="M666.9,348.7c-0.2,0-0.3,0.2-0.3,0.3l-1.6,8.2l6.7-1.2l-4.4-7.2C667.2,348.8,667.1,348.7,666.9,348.7
					C666.9,348.7,666.9,348.7,666.9,348.7z"/>
				<path class="st33" d="M667.6,375.8l20.9,119.4l7.5-1.3l-20.9-119.4L667.6,375.8z"/>
				<path class="st11" d="M693.3,486.2l-0.3,9.1c-0.1,2.8,2.1,5.2,4.9,5.3c2.8,0.1,5.2-2.1,5.3-4.9l0.3-9.1L693.3,486.2L693.3,486.2
					z"/>
				<path class="st34" d="M702.6,349.4l-0.6,3.2c-0.1,0.7,0.4,1.4,1.1,1.5c0.7,0.1,1.4-0.4,1.5-1.1l0.6-3.2c0.1-0.7-0.4-1.4-1.1-1.5
					c-0.1,0-0.2,0-0.2,0C703.3,348.4,702.7,348.8,702.6,349.4z"/>
				<path class="st3" d="M674.1,477.8c-0.5,2.6,1.3,5.1,3.9,5.6l5.3,0.9c2.6,0.5,5.1-1.3,5.6-3.9l19.3-111.1l-14.8-2.6L674.1,477.8z
					"/>
				<path class="st30" d="M701.3,352.6l-7.9,14.1l14.8,2.6l-2.9-15.9c-0.1-0.3-0.3-0.6-0.7-0.7l-2.6-0.4c0,0-0.1,0-0.1,0
					C701.7,352.2,701.5,352.4,701.3,352.6z"/>
				<path class="st5" d="M639.6,364.5l-5.1,3.5c-0.6,0.4-0.8,1.2-0.5,1.8l3.1,7.1c0.3,0.8,1.2,1.1,2,0.8l5.6-2.4
					c0.8-0.3,1.1-1.2,0.8-2l-3.6-8.2c-0.2-0.4-0.5-0.7-1-0.8c-0.1,0-0.3-0.1-0.4-0.1C640.1,364.2,639.8,364.3,639.6,364.5z"/>
				<path class="st5" d="M638.7,397l38.6,88.5l20.9-9.1l-38.6-88.5L638.7,397z"/>
				<path class="st11" d="M638.7,397l3.4,7.7l20.9-9.1l-3.4-7.7L638.7,397z"/>
				<path class="st30" d="M636.1,375.7l0.5,16.6l2.1,4.8l20.9-9.1l-2.1-4.7l-12.5-11.4L636.1,375.7z"/>
				<path class="st35" d="M636.6,392.3l2.1,4.8l20.9-9.1l-2.1-4.8L636.6,392.3z"/>
				<path class="st1" d="M664.3,413.2l-11.1,0.8c-0.3,0-0.5,0.2-0.7,0.4c-0.1,0.2-0.2,0.5-0.1,0.8l0.1,0.2c0.1,0.3,0.5,0.5,0.8,0.5
					l3.7-0.3c0.4,0,0.7,0.2,0.8,0.5l0.9,2.2c1.2,2.7,3.1,3.9,5.7,3.7c2.6-0.2,3.3-1.7,2.2-4.3l-1.7-3.9
					C665,413.4,664.7,413.2,664.3,413.2C664.4,413.2,664.3,413.2,664.3,413.2z M662,419.7c-0.5-0.3-0.9-0.9-1.3-1.7l-0.7-1.5
					c-0.1-0.3-0.1-0.5,0.1-0.8c0.1-0.2,0.4-0.4,0.7-0.4l2.5-0.2c0.4,0,0.7,0.2,0.8,0.5l0.9,2c0.3,0.8,0.4,1.4,0.3,1.8
					c-0.2,0.4-0.6,0.6-1.4,0.7c-0.1,0-0.3,0-0.4,0C662.9,420.1,662.4,420,662,419.7z"/>
				<path class="st1" d="M668.6,423.1l-11,1c-0.3,0-0.5,0.2-0.7,0.4c-0.1,0.2-0.2,0.5-0.1,0.8l2.9,6.7c0.2,0.3,0.5,0.5,0.9,0.5
					c0.3,0,0.5-0.2,0.6-0.4c0.1-0.2,0.2-0.5,0-0.8l-1.9-4.3c-0.1-0.3-0.1-0.5,0-0.8c0.1-0.2,0.4-0.4,0.6-0.4l2.1-0.2
					c0.4,0,0.7,0.2,0.9,0.5l2,4.6c0.2,0.3,0.5,0.6,0.9,0.5c0.3,0,0.5-0.2,0.6-0.4c0.1-0.2,0.1-0.5,0-0.8l-1.6-3.6
					c-0.1-0.3-0.1-0.5,0-0.8c0.1-0.2,0.4-0.4,0.6-0.4l1.7-0.2c0.4,0,0.7,0.2,0.9,0.5l2.1,4.9c0.2,0.3,0.5,0.5,0.9,0.5
					c0.3,0,0.5-0.2,0.6-0.4c0.1-0.2,0.1-0.5,0-0.8l-2.7-6.2C669.4,423.3,669.1,423.1,668.6,423.1
					C668.7,423.1,668.7,423.1,668.6,423.1z"/>
				<path class="st3" d="M642.3,446.4v56.2c0,2.4,2,4.4,4.4,4.4h108.2c2.4,0,4.4-2,4.4-4.4v-56.2H642.3z"/>
				<path class="st36" d="M642.3,433.6v32.7l117-9.3v-23.4H642.3z"/>
				<g>
					<defs>
						
							<rect id="SVGID_5_" x="692.5" y="347.1" transform="matrix(0.5 -0.866 0.866 0.5 26.3658 845.2396)" width="105.5" height="105.5"/>
					</defs>
					<clipPath id="SVGID_6_">
						<use xlink:href="#SVGID_5_"  style="overflow:visible;"/>
					</clipPath>
					<g class="st37">
						<path class="st38" d="M709.3,432.3c7.1,4.1,16.3,1.5,20.5-5.9l7.7-13.3l-12.8-7.4c-7.1-4.1-16.3-1.5-20.5,5.9
							C699.9,419,702.2,428.2,709.3,432.3z"/>
						<path class="st39" d="M734.9,358.3c4.2-7.4,13.5-10,20.5-5.9l12.8,7.4l-15.4,26.7l-12.8-7.4
							C732.9,375,730.6,365.7,734.9,358.3z"/>
						<path class="st40" d="M768.2,359.8l12.8,7.4c7.1,4.1,9.4,13.4,5.1,20.7c-4.2,7.4-13.5,10-20.5,5.9l-12.8-7.4L768.2,359.8z"/>
						<path class="st41" d="M770.9,414.6c-4.3,7.4-13.5,10-20.5,5.9c-7.1-4.1-9.4-13.4-5.1-20.7c4.2-7.4,13.5-10,20.5-5.9
							C772.8,397.9,775.1,407.2,770.9,414.6z"/>
						<path class="st42" d="M719.5,384.9c4.3-7.4,13.5-10,20.5-5.9l12.8,7.4l-15.4,26.7l-12.8-7.4
							C717.6,401.6,715.3,392.3,719.5,384.9z"/>
					</g>
				</g>
				<path class="st30" d="M642,425.1l-11.4,25.1c-0.4,0.9-0.4,2,0.2,2.8c0.5,0.8,1.5,1.4,2.5,1.4h134.8c1,0,2-0.5,2.5-1.4
					c0.5-0.9,0.6-2,0.1-2.9l-11.2-25H642z"/>
			</g>
		</g>
		<path class="st14" d="M671.7,265.9l-13.8,43.3h8.3l13.8-43.3H671.7z"/>
		<path class="st43" d="M652.1,270.8h-8.8h-5.6c-0.4,0-0.8,0.4-0.8,0.8v5.6v20.7v5.6c0,0.4,0.4,0.8,0.8,0.8h5.6h8.8
			c0.4,0,0.8-0.4,0.8-0.8v-4.8c0-0.4-0.4-0.8-0.8-0.8h-8.8v-20.7h8.8c0.4,0,0.8-0.4,0.8-0.8v-4.8
			C652.8,271.2,652.5,270.8,652.1,270.8z"/>
		<path class="st43" d="M700.3,270.8h-5.6h-8.8c-0.4,0-0.8,0.4-0.8,0.8v4.8c0,0.4,0.4,0.8,0.8,0.8h8.8v20.7h-8.8
			c-0.4,0-0.8,0.4-0.8,0.8v4.8c0,0.4,0.4,0.8,0.8,0.8h8.8h5.6c0.4,0,0.8-0.4,0.8-0.8v-4.8v-22.3v-4.8
			C701.1,271.2,700.8,270.8,700.3,270.8z"/>
		<path class="st44" d="M228.4,102.9L206,172.5 M228.4,102.9l46.4,58.2 M228.4,102.9l21,41.2 M206,172.5l68.8-11.4 M206,172.5
			l43.4-28.3 M274.8,161.1l-25.4-17"/>
		<path class="st3" d="M229.6,107.7c2.6-0.7,4.1-3.3,3.4-5.9c-0.7-2.6-3.3-4.1-5.9-3.4c-2.6,0.7-4.1,3.3-3.4,5.9
			C224.4,106.9,227.1,108.4,229.6,107.7z"/>
		<path class="st3" d="M207.3,177.2c2.6-0.7,4.1-3.3,3.4-5.9c-0.7-2.6-3.3-4.1-5.9-3.4c-2.6,0.7-4.1,3.3-3.4,5.9
			C202,176.3,204.7,177.8,207.3,177.2z"/>
		<path class="st3" d="M276.2,165.5c2.6-0.7,4.1-3.3,3.4-5.9c-0.7-2.6-3.3-4.1-5.9-3.4c-2.6,0.7-4.1,3.3-3.4,5.9
			C271,164.6,273.6,166.1,276.2,165.5z"/>
		<path class="st3" d="M250.6,148.5c2.6-0.7,4.1-3.3,3.4-5.9c-0.7-2.6-3.3-4.1-5.9-3.4c-2.6,0.7-4.1,3.3-3.4,5.9
			C245.3,147.6,248,149.2,250.6,148.5z"/>
		<path class="st45" d="M213,335.8c-25.7-12.2-41,19.7-28.1,37.5c15.8,21.7,23.9,46.6,28.4,54.1c3.8,6.3,14.2,21.8,26.7,14.7
			c11.5-6.6,5.2-32.3,5.2-32.3S244.7,350.8,213,335.8z"/>
		<path class="st45" d="M290.3,437.1c8.7-11.8,11.9-28.7,2.2-33.1c-9.4-4.2-24.9,6.1-32,25.8c-7.2,19.7-11.3,33.9-4.3,36.4
			C267.7,470.3,278.8,452.7,290.3,437.1z"/>
		<path class="st9" d="M198.4,438c9.9,11.6,24.2,34.9,33.1,26.7c5.4-4.9-1.8-28.4-21.7-41.1C193,412.8,188.5,426.5,198.4,438z"/>
		<path class="st9" d="M293.1,357.6c-3.8-2.5-8.5-3.1-12.8-1.7c-6,1.9-15.2,7.7-24.2,24.2c-11.8,21.5-18,45.1-16.7,60.1
			c0.8,9.8,12.8,14,19.6,6.9c3.1-3.3,6.4-8.3,9.6-16c12.9-30.8,24.9-50.1,26.4-52.1C298.7,373.8,301.4,363.2,293.1,357.6z"/>
		<path class="st16" d="M284.4,369.9c-0.1,1.5,1,2.9,2.5,3c1.5,0.1,2.9-1,3-2.5c0.1-1.5-1-2.9-2.5-3
			C285.9,367.3,284.5,368.4,284.4,369.9z"/>
		<path class="st16" d="M260.9,381.7c-0.1,1.5,1,2.9,2.5,3c1.5,0.1,2.9-1,3-2.5c0.1-1.5-1-2.9-2.5-3S261.1,380.2,260.9,381.7z"/>
		<path class="st16" d="M264.9,413.1c-0.1,1.7,1.1,3.3,2.9,3.4c1.7,0.1,3.3-1.1,3.4-2.9c0.1-1.7-1.1-3.3-2.9-3.4
			C266.5,410.1,265,411.4,264.9,413.1z"/>
		<path class="st16" d="M192.8,366.2c0,2.5,2,4.5,4.5,4.5c2.5,0,4.5-2,4.5-4.5c0-2.5-2-4.5-4.5-4.5
			C194.8,361.7,192.8,363.7,192.8,366.2z"/>
		<path class="st16" d="M228.8,379.8c0,2.5,2,4.5,4.5,4.5c2.5,0,4.5-2,4.5-4.5c0-2.5-2-4.5-4.5-4.5
			C230.8,375.4,228.8,377.4,228.8,379.8z"/>
		<path class="st16" d="M217.1,410.2c0,1,0.8,1.9,1.9,1.9s1.9-0.8,1.9-1.9c0-1-0.8-1.9-1.9-1.9S217.1,409.2,217.1,410.2z"/>
		<path class="st16" d="M203.6,434.2c0,1.5,1.2,2.8,2.8,2.8c1.5,0,2.8-1.2,2.8-2.8c0-1.5-1.2-2.8-2.8-2.8
			C204.9,431.4,203.6,432.6,203.6,434.2z"/>
		<path class="st11" d="M268.2,440.3c-0.3-0.2-0.7-0.2-0.9,0l-0.1,0.1l-0.1,0.1c-0.2,0.2-0.4,0.4-0.6,0.6c-0.6,0.7-1.3,1.6-2,2.6
			c-2,2.8-4.1,6.2-6,10.1c-5.4,11.2-8.7,24.4-8.7,39.7c0,0.4,0.3,0.6,0.6,0.6s0.6-0.3,0.6-0.6c0-15.1,3.2-28.2,8.6-39.2
			c1.9-3.8,3.9-7.2,5.9-9.9c0.7-0.9,1.3-1.7,1.8-2.4l0.1-0.1c0.2-0.2,0.3-0.4,0.4-0.5l0.2-0.2c0.1-0.1,0.1-0.1,0.1-0.1
			C268.5,440.9,268.5,440.5,268.2,440.3z"/>
		<path class="st11" d="M219.5,444.8c-0.2-0.3-0.6-0.3-0.9-0.1c-0.3,0.2-0.3,0.6-0.1,0.9c2.3,3.1,4.5,6.5,6.5,10.1
			c4.2,7.6,7.5,15.7,9.9,23.8c0.8,2.8,1.5,5.5,2.1,7.8l0.1,0.5c0.1,0.6,0.2,1.1,0.3,1.6l0.1,0.3l0.1,0.6c0.1,0.4,0.4,0.6,0.7,0.5
			c0.4-0.1,0.6-0.4,0.5-0.7l0-0.2c0-0.2-0.1-0.4-0.1-0.6l-0.1-0.5c-0.1-0.5-0.2-1.1-0.4-1.7l-0.1-0.5c-0.5-2.3-1.2-4.8-2-7.4
			c-2.4-8.2-5.7-16.4-10-24.1C224.1,451.4,221.9,448,219.5,444.8z"/>
		<path class="st11" d="M208.2,364.4c-0.2,0.2-0.3,0.6,0,0.9l0,0c0,0,0,0,0.1,0.1l0.2,0.2l0.1,0.1c0.3,0.3,0.6,0.7,1,1.1
			c1,1.2,2.2,2.8,3.5,4.5c3.6,5,7.2,11.1,10.5,18.2c5.6,11.8,9.9,25.3,12.6,40.4c3.2,18.4,3.7,38.5,1.1,60.3c0,0.4,0.2,0.7,0.6,0.7
			c0.4,0,0.7-0.2,0.7-0.6c2.6-21.9,2.1-42.1-1.1-60.6c-2.7-15.3-7-28.8-12.7-40.7c-3.4-7.2-7-13.3-10.7-18.4l-0.3-0.4
			c-1.1-1.6-2.2-2.9-3.1-4.1l-0.1-0.1c-0.3-0.4-0.7-0.8-0.9-1.1l-0.1-0.1c-0.1-0.1-0.2-0.2-0.2-0.2l-0.1-0.1
			C208.9,364.2,208.5,364.1,208.2,364.4z"/>
		<path class="st11" d="M264,402.6c-0.3-0.2-0.7-0.1-0.9,0.2l-0.1,0.1c-0.1,0.1-0.1,0.2-0.2,0.3l-0.1,0.2c-0.2,0.3-0.4,0.7-0.6,1
			l-0.2,0.3c-0.7,1.2-1.4,2.6-2.1,4.2l-0.1,0.2c-2.5,5.2-5,11.4-7.3,18.3c-6.5,19.5-10.5,41.6-10.7,66c0,0.4,0.3,0.6,0.6,0.6
			c0.4,0,0.6-0.3,0.6-0.6c0.1-24.2,4.1-46.2,10.6-65.6c2.3-6.8,4.7-12.8,7.1-17.9l0.1-0.3c0.8-1.7,1.6-3.3,2.3-4.6l0.2-0.4
			c0.2-0.4,0.4-0.7,0.5-1l0.1-0.1l0.2-0.3C264.4,403.2,264.3,402.8,264,402.6z"/>
		<path class="st6" d="M214.4,525.6h55.7c3,0,5.5-2.5,5.5-5.5v-40.6c0-3-2.5-5.5-5.5-5.5h-55.7c-3,0-5.5,2.5-5.5,5.5v40.6
			C208.9,523.1,211.4,525.6,214.4,525.6z"/>
		<path class="st14" d="M439.7,170.3c-6.7,0-12.1-5.4-12.1-12.1c0-6.7,5.4-12.1,12.1-12.1c6.7,0,12.1,5.4,12.1,12.1
			C451.7,164.9,446.3,170.3,439.7,170.3z M475.9,163.7v-10.9l-8.6-2.2c-0.6-2.3-1.5-4.5-2.7-6.5l4.5-7.6l-7.7-7.7l-7.6,4.5
			c-2-1.1-4.2-2.1-6.5-2.7l-2.2-8.6h-10.9l-2.2,8.6c-2.3,0.6-4.5,1.5-6.5,2.7l-7.6-4.5l-7.7,7.7l4.5,7.6c-1.1,2-2,4.2-2.7,6.5
			l-8.6,2.2v10.9l8.6,2.2c0.6,2.3,1.5,4.5,2.7,6.5l-4.5,7.6l7.7,7.7l7.6-4.5c2,1.1,4.2,2,6.5,2.7l2.2,8.6h10.9l2.2-8.6
			c2.3-0.6,4.4-1.5,6.5-2.7l7.6,4.5l7.7-7.7l-4.5-7.6c1.1-2,2-4.2,2.7-6.5L475.9,163.7z"/>
		<path class="st6" d="M493.9,215.2c-6.2,0-11.2-5-11.2-11.2c0-6.2,5-11.2,11.2-11.2c6.2,0,11.2,5,11.2,11.2
			C505.1,210.2,500,215.2,493.9,215.2z M527.5,209.1V199l-8-2c-0.6-2.1-1.4-4.1-2.5-6l4.2-7.1l-7.2-7.2l-7.1,4.2
			c-1.9-1.1-3.9-1.9-6-2.5l-2-8h-10.1l-2,8c-2.1,0.6-4.1,1.4-6,2.5l-7.1-4.2l-7.2,7.2l4.2,7.1c-1.1,1.9-1.9,3.9-2.5,6l-8,2v10.1l8,2
			c0.6,2.1,1.4,4.1,2.5,6l-4.2,7.1l7.2,7.2l7.1-4.2c1.9,1.1,3.9,1.9,6,2.5l2,8h10.1l2-8c2.1-0.6,4.1-1.4,6-2.5l7.1,4.2l7.2-7.2
			l-4.2-7.1c1.1-1.9,1.9-3.9,2.5-6L527.5,209.1z"/>
		<path class="st46" d="M195.9,235.3c5.3,0,9.7,4.3,9.8,9.6l0,0.2c0.7,17.8,17.9,22.5,23.8,23.6c5.3,0.1,9.6,4.4,9.6,9.8
			c0,5.4-4.4,9.8-9.8,9.8c-4.4,0-8.1-2.9-9.3-6.8l0,0C215,257.3,200,255,196,254.9h0c-0.2,0-0.3,0-0.5,0c-0.3,0-0.5,0-0.5,0l0,0
			c-5-0.4-8.9-4.6-8.9-9.7C186.2,239.7,190.5,235.3,195.9,235.3z"/>
		<path class="st46" d="M259.7,217.8c1.7,2.2,1.4,5.3-0.8,7c-0.9,0.8-2.1,1.1-3.2,1.1l0,0c-11.5,1.5-13.4,8.6-13.7,10.5c0,0,0,0,0,0
			c0,0.1,0,0.2,0,0.2c0,0.1,0,0.2,0,0.2l0,0c-0.5,2.5-2.8,4.2-5.4,4c-2.7-0.3-4.7-2.8-4.4-5.5c0.3-2.7,2.7-4.7,5.4-4.4l0.1,0
			c9.1,0.7,12.4-7.8,13.3-10.7c0.2-1.2,0.8-2.4,1.8-3.2C254.9,215.3,258,215.6,259.7,217.8z"/>
		<path class="st46" d="M256.5,215.8c2.7,0.3,4.7,2.8,4.4,5.5c-0.3,2.7-2.8,4.7-5.5,4.4c-2.7-0.3-4.7-2.8-4.4-5.5
			C251.3,217.5,253.7,215.5,256.5,215.8z"/>
		<path class="st3" d="M943.4,392.1c0,7.8,6.3,14.1,14.1,14.1s14.1-6.3,14.1-14.1s-6.3-14.1-14.1-14.1S943.4,384.3,943.4,392.1z"/>
		<path class="st3" d="M916.6,312.1c0,3.3,2.7,5.9,5.9,5.9s5.9-2.7,5.9-5.9s-2.7-5.9-5.9-5.9S916.6,308.8,916.6,312.1z"/>
	</g>
</g>
</svg>
