<svg _ngcontent-c3="" class="show-for-xxlarge" viewBox="0 0 1885 5932" xmlns="http://www.w3.org/2000/svg"><g _ngcontent-c3="" fill="none" fill-rule="evenodd" id="Page-1-fullhd-desktop"><g _ngcontent-c3="" id="backgrounds-FullHD" transform="translate(0 -86)"><g _ngcontent-c3="" id="color-shapes-1920" transform="translate(-24 84)"><g _ngcontent-c3="" id="shape_5-copy" stroke="#2EC5B6" stroke-linecap="round" stroke-linejoin="round" transform="translate(26 1132)"><g _ngcontent-c3="" id="Group-9" stroke-width="2"><path _ngcontent-c3="" d="M0 9.757L9.246.754l9.004 9.003 8.268-8.269 9.01 9.01 8.485-8.485 8.502 8.502" id="Path-7"/><path _ngcontent-c3="" d="M3 9.757L12.246.754l9.004 9.003 8.268-8.269 9.01 9.01 8.485-8.485 8.502 8.502" id="Path-7" opacity=".2"/></g></g><g _ngcontent-c3="" id="shape_5" stroke="#FF9F1C" stroke-linejoin="round" transform="translate(1852 1132)"><g _ngcontent-c3="" id="Group-9" stroke-width="2"><path _ngcontent-c3="" d="M0 9.757L9.246.754l9.004 9.003 8.268-8.269 9.01 9.01 8.485-8.485 8.502 8.502" id="Path-7"/><path _ngcontent-c3="" d="M3 9.757L12.246.754l9.004 9.003 8.268-8.269 9.01 9.01 8.485-8.485 8.502 8.502" id="Path-7" opacity=".2"/></g></g><g _ngcontent-c3="" id="shape_5" stroke="#FF9F1C" stroke-linejoin="round" transform="translate(1192 2348)"><g _ngcontent-c3="" id="Group-9" stroke-width="2"><path _ngcontent-c3="" d="M0 9.757L9.246.754l9.004 9.003 8.268-8.269 9.01 9.01 8.485-8.485 8.502 8.502" id="Path-7"/><path _ngcontent-c3="" d="M3 9.757L12.246.754l9.004 9.003 8.268-8.269 9.01 9.01 8.485-8.485 8.502 8.502" id="Path-7" opacity=".2"/></g></g><g _ngcontent-c3="" id="shape_5-copy" stroke="#2EC5B6" stroke-linecap="round" stroke-linejoin="round" transform="translate(27 3741)"><g _ngcontent-c3="" id="Group-9" stroke-width="2"><path _ngcontent-c3="" d="M0 9.757L9.246.754l9.004 9.003 8.268-8.269 9.01 9.01 8.485-8.485 8.502 8.502" id="Path-7"/><path _ngcontent-c3="" d="M3 9.757L12.246.754l9.004 9.003 8.268-8.269 9.01 9.01 8.485-8.485 8.502 8.502" id="Path-7" opacity=".2"/></g></g><g _ngcontent-c3="" id="shape_5-copy" stroke="#2EC5B6" stroke-linecap="round" stroke-linejoin="round" transform="translate(0 4596)"><g _ngcontent-c3="" id="Group-9" stroke-width="2"><path _ngcontent-c3="" d="M0 9.757L9.246.754l9.004 9.003 8.268-8.269 9.01 9.01 8.485-8.485 8.502 8.502" id="Path-7"/><path _ngcontent-c3="" d="M3 9.757L12.246.754l9.004 9.003 8.268-8.269 9.01 9.01 8.485-8.485 8.502 8.502" id="Path-7" opacity=".2"/></g></g><g _ngcontent-c3="" id="shape_3-copy" transform="translate(1286 408)"><g _ngcontent-c3="" id="Group-2-Copy-5"><path _ngcontent-c3="" d="M20.43 3.542L4.284 5.357a.452.452 0 0 0-.314.718l9.644 13.076c.207.281.64.232.78-.088l6.5-14.89a.452.452 0 0 0-.464-.63" fill="#2EC5B6" id="Fill-1" opacity=".2"/><path _ngcontent-c3="" d="M18.698.103L.992 2.093l10.576 14.338z" id="Stroke-3" stroke="#2EC5B6" stroke-linecap="round" stroke-linejoin="round" stroke-width="2"/></g></g><g _ngcontent-c3="" id="shape_3-copy-3" transform="rotate(-166 381.837 136.693)"><g _ngcontent-c3="" id="Group-2-Copy-5"><path _ngcontent-c3="" d="M20.43 3.542L4.284 5.357a.452.452 0 0 0-.314.718l9.644 13.076c.207.281.64.232.78-.088l6.5-14.89a.452.452 0 0 0-.464-.63" fill="#2E6BD1" id="Fill-1" opacity=".2"/><path _ngcontent-c3="" d="M18.698.103L.992 2.093l10.576 14.338z" id="Stroke-3" stroke="#2E6BD1" stroke-linecap="round" stroke-linejoin="round" stroke-width="2"/></g></g><g _ngcontent-c3="" id="shape_3-copy" transform="rotate(42 222.908 861.01)"><g _ngcontent-c3="" id="Group-2-Copy-5"><path _ngcontent-c3="" d="M20.43 3.542L4.284 5.357a.452.452 0 0 0-.314.718l9.644 13.076c.207.281.64.232.78-.088l6.5-14.89a.452.452 0 0 0-.464-.63" fill="#2EC5B6" id="Fill-1" opacity=".2"/><path _ngcontent-c3="" d="M18.698.103L.992 2.093l10.576 14.338z" id="Stroke-3" stroke="#2EC5B6" stroke-linecap="round" stroke-linejoin="round" stroke-width="2"/></g></g><g _ngcontent-c3="" id="shape_2" transform="translate(1503 132)"><g _ngcontent-c3="" id="Group-4-Copy-3"><path _ngcontent-c3="" d="M16.576 8.707a7.837 7.837 0 1 1-15.675 0 7.837 7.837 0 0 1 15.675 0" fill="#FF9F1C" id="Fill-9" opacity=".2"/><path _ngcontent-c3="" d="M19.576 11.707a7.837 7.837 0 1 1-15.675 0 7.837 7.837 0 0 1 15.675 0z" id="Stroke-11" stroke="#FF9F1C" stroke-linecap="round" stroke-linejoin="round" stroke-width="2"/></g></g><g _ngcontent-c3="" id="shape_2" transform="translate(964 627)"><g _ngcontent-c3="" id="Group-4-Copy-3"><path _ngcontent-c3="" d="M16.576 8.707a7.837 7.837 0 1 1-15.675 0 7.837 7.837 0 0 1 15.675 0" fill="#FF9F1C" id="Fill-9" opacity=".2"/><path _ngcontent-c3="" d="M19.576 11.707a7.837 7.837 0 1 1-15.675 0 7.837 7.837 0 0 1 15.675 0z" id="Stroke-11" stroke="#FF9F1C" stroke-linecap="round" stroke-linejoin="round" stroke-width="2"/></g></g><g _ngcontent-c3="" id="shape_2-copy" transform="translate(1545 473)"><g _ngcontent-c3="" id="Group-4-Copy-3"><path _ngcontent-c3="" d="M16.576 8.707a7.837 7.837 0 1 1-15.675 0 7.837 7.837 0 0 1 15.675 0" fill="#2EC5B6" id="Fill-9" opacity=".2"/><path _ngcontent-c3="" d="M19.576 11.707a7.837 7.837 0 1 1-15.675 0 7.837 7.837 0 0 1 15.675 0z" id="Stroke-11" stroke="#2EC5B6" stroke-linecap="round" stroke-linejoin="round" stroke-width="2"/></g></g><g _ngcontent-c3="" id="shape_1" transform="translate(234 1483)"><g _ngcontent-c3="" id="Group-6-Copy-2"><path _ngcontent-c3="" d="M20.002 20.072L7.228 26.036a.593.593 0 0 1-.789-.286L.476 12.975a.593.593 0 0 1 .286-.79l12.774-5.962a.594.594 0 0 1 .79.286l5.963 12.775a.593.593 0 0 1-.287.788" fill="#FF9F1C" fill-opacity=".2" id="Fill-17"/><path _ngcontent-c3="" d="M22.316 14.492l-13.85 6.466L2.002 7.11 15.85.643z" id="Stroke-19" stroke="#FF9F1C" stroke-linecap="round" stroke-linejoin="round" stroke-width="2"/></g></g><g _ngcontent-c3="" id="shape_1-copy-2" transform="rotate(68 413.767 750.948)"><g _ngcontent-c3="" id="Group-6-Copy-2"><path _ngcontent-c3="" d="M20.002 20.072L7.228 26.036a.593.593 0 0 1-.789-.286L.476 12.975a.593.593 0 0 1 .286-.79l12.774-5.962a.594.594 0 0 1 .79.286l5.963 12.775a.593.593 0 0 1-.287.788" fill="#2E6BD1" id="Fill-17" opacity=".2"/><path _ngcontent-c3="" d="M22.316 14.492l-13.85 6.466L2.002 7.11 15.85.643z" id="Stroke-19" stroke="#2E6BD1" stroke-linecap="round" stroke-linejoin="round" stroke-width="2"/></g></g><g _ngcontent-c3="" id="shape_4-copy" stroke="#2EC5B6" stroke-linecap="round" stroke-width="2" transform="rotate(-19 649.955 -3764.464)"><g _ngcontent-c3="" id="Group-2"><path _ngcontent-c3="" d="M9 0v18M18 9H0" id="Path-4"/></g><g _ngcontent-c3="" id="Group" opacity=".2" transform="translate(2 2)"><path _ngcontent-c3="" d="M9 0v18M18 9H0" id="Path-4"/></g></g><g _ngcontent-c3="" id="shape_4-copy" stroke="#2EC5B6" stroke-linecap="round" stroke-width="2" transform="rotate(15 -1501.212 2419.95)"><g _ngcontent-c3="" id="Group-2"><path _ngcontent-c3="" d="M9 0v18M18 9H0" id="Path-4"/></g><g _ngcontent-c3="" id="Group" opacity=".2" transform="translate(2 2)"><path _ngcontent-c3="" d="M9 0v18M18 9H0" id="Path-4"/></g></g><g _ngcontent-c3="" id="shape_4-copy-2" stroke="#2E6BD1" stroke-linecap="round" transform="rotate(-28 1336.383 -2024.773)"><g _ngcontent-c3="" id="Group" stroke-width="2"><path _ngcontent-c3="" d="M9 0v18M18 9H0" id="Path-4"/><path _ngcontent-c3="" d="M11 2v18M20 11H2" id="Path-4" opacity=".2"/></g></g><g _ngcontent-c3="" id="shape_5-copy-2" stroke="#2E6BD1" stroke-linecap="round" stroke-linejoin="round" transform="translate(1671 364)"><g _ngcontent-c3="" id="Group" stroke-width="2"><path _ngcontent-c3="" d="M0 9.757L9.246.754l9.004 9.003 8.268-8.269 9.01 9.01 8.485-8.485 8.502 8.502" id="Path-7"/><path _ngcontent-c3="" d="M3 9.757L12.246.754l9.004 9.003 8.268-8.269 9.01 9.01 8.485-8.485 8.502 8.502" id="Path-7" opacity=".2"/></g></g><g _ngcontent-c3="" id="shape_5" stroke="#FF9F1C" stroke-linejoin="round" transform="translate(420 299)"><g _ngcontent-c3="" id="Group-9" stroke-width="2"><path _ngcontent-c3="" d="M0 9.757L9.246.754l9.004 9.003 8.268-8.269 9.01 9.01 8.485-8.485 8.502 8.502" id="Path-7"/><path _ngcontent-c3="" d="M3 9.757L12.246.754l9.004 9.003 8.268-8.269 9.01 9.01 8.485-8.485 8.502 8.502" id="Path-7" opacity=".2"/></g></g><g _ngcontent-c3="" id="shape_5-copy-2" stroke="#2E6BD1" stroke-linecap="round" stroke-linejoin="round" transform="translate(392 819)"><g _ngcontent-c3="" id="Group" stroke-width="2"><path _ngcontent-c3="" d="M0 9.757L9.246.754l9.004 9.003 8.268-8.269 9.01 9.01 8.485-8.485 8.502 8.502" id="Path-7"/><path _ngcontent-c3="" d="M3 9.757L12.246.754l9.004 9.003 8.268-8.269 9.01 9.01 8.485-8.485 8.502 8.502" id="Path-7" opacity=".2"/></g></g><g _ngcontent-c3="" id="shape_4-copy-2" stroke="#2E6BD1" stroke-linecap="round" transform="rotate(15 -4116.226 4479.707)"><g _ngcontent-c3="" id="Group" stroke-width="2"><path _ngcontent-c3="" d="M9 0v18M18 9H0" id="Path-4"/><path _ngcontent-c3="" d="M11 2v18M20 11H2" id="Path-4" opacity=".2"/></g></g><g _ngcontent-c3="" id="shape_2-copy-3" transform="translate(1237 696)"><g _ngcontent-c3="" id="Group-4-Copy-3"><path _ngcontent-c3="" d="M17.405 8.707c0 4.328-3.685 7.837-8.23 7.837S.946 13.035.946 8.707C.946 4.378 4.63.87 9.176.87s8.23 3.51 8.23 7.838" fill="#2E6BD1" id="Fill-9" opacity=".2"/><path _ngcontent-c3="" d="M20.555 11.707c0 4.328-3.685 7.837-8.23 7.837s-8.23-3.509-8.23-7.837c0-4.328 3.685-7.838 8.23-7.838s8.23 3.51 8.23 7.838z" id="Stroke-11" stroke="#2E6BD1" stroke-linecap="round" stroke-linejoin="round" stroke-width="2"/></g></g><g _ngcontent-c3="" id="shape_2-copy" transform="translate(1599 830)"><g _ngcontent-c3="" id="Group-4-Copy-3"><path _ngcontent-c3="" d="M16.576 8.707a7.837 7.837 0 1 1-15.675 0 7.837 7.837 0 0 1 15.675 0" fill="#2EC5B6" id="Fill-9" opacity=".2"/><path _ngcontent-c3="" d="M19.576 11.707a7.837 7.837 0 1 1-15.675 0 7.837 7.837 0 0 1 15.675 0z" id="Stroke-11" stroke="#2EC5B6" stroke-linecap="round" stroke-linejoin="round" stroke-width="2"/></g></g><g _ngcontent-c3="" id="shape_2-copy" transform="translate(1699 1510)"><g _ngcontent-c3="" id="Group-4-Copy-3"><path _ngcontent-c3="" d="M16.576 8.707a7.837 7.837 0 1 1-15.675 0 7.837 7.837 0 0 1 15.675 0" fill="#2EC5B6" id="Fill-9" opacity=".2"/><path _ngcontent-c3="" d="M19.576 11.707a7.837 7.837 0 1 1-15.675 0 7.837 7.837 0 0 1 15.675 0z" id="Stroke-11" stroke="#2EC5B6" stroke-linecap="round" stroke-linejoin="round" stroke-width="2"/></g></g><g _ngcontent-c3="" id="shape_1" transform="translate(724 1045)"><g _ngcontent-c3="" id="Group-6-Copy-2"><path _ngcontent-c3="" d="M20.002 20.072L7.228 26.036a.593.593 0 0 1-.789-.286L.476 12.975a.593.593 0 0 1 .286-.79l12.774-5.962a.594.594 0 0 1 .79.286l5.963 12.775a.593.593 0 0 1-.287.788" fill="#FF9F1C" fill-opacity=".2" id="Fill-17"/><path _ngcontent-c3="" d="M22.316 14.492l-13.85 6.466L2.002 7.11 15.85.643z" id="Stroke-19" stroke="#FF9F1C" stroke-linecap="round" stroke-linejoin="round" stroke-width="2"/></g></g><g _ngcontent-c3="" id="shape_4-copy-2" stroke="#2E6BD1" stroke-linecap="round" transform="rotate(-22 6134.415 -2547.514)"><g _ngcontent-c3="" id="Group" stroke-width="2"><path _ngcontent-c3="" d="M9 0v18M18 9H0" id="Path-4"/><path _ngcontent-c3="" d="M11 2v18M20 11H2" id="Path-4" opacity=".2"/></g></g><g _ngcontent-c3="" id="shape_2-copy-3" transform="translate(479 2085)"><g _ngcontent-c3="" id="Group-4-Copy-3"><path _ngcontent-c3="" d="M17.405 8.707c0 4.328-3.685 7.837-8.23 7.837S.946 13.035.946 8.707C.946 4.378 4.63.87 9.176.87s8.23 3.51 8.23 7.838" fill="#2E6BD1" id="Fill-9" opacity=".2"/><path _ngcontent-c3="" d="M20.555 11.707c0 4.328-3.685 7.837-8.23 7.837s-8.23-3.509-8.23-7.837c0-4.328 3.685-7.838 8.23-7.838s8.23 3.51 8.23 7.838z" id="Stroke-11" stroke="#2E6BD1" stroke-linecap="round" stroke-linejoin="round" stroke-width="2"/></g></g><g _ngcontent-c3="" id="shape_1-copy" transform="translate(768 2161)"><g _ngcontent-c3="" id="Group-6-Copy-2"><path _ngcontent-c3="" d="M20.002 20.072L7.228 26.036a.593.593 0 0 1-.789-.286L.476 12.975a.593.593 0 0 1 .286-.79l12.774-5.962a.594.594 0 0 1 .79.286l5.963 12.775a.593.593 0 0 1-.287.788" fill="#2EC5B6" id="Fill-17" opacity=".2"/><path _ngcontent-c3="" d="M22.316 14.492l-13.85 6.466L2.002 7.11 15.85.643z" id="Stroke-19" stroke="#2EC5B6" stroke-linecap="round" stroke-linejoin="round" stroke-width="2"/></g></g><g _ngcontent-c3="" id="shape_5-copy" stroke="#2EC5B6" stroke-linecap="round" stroke-linejoin="round" transform="translate(1318 1622)"><g _ngcontent-c3="" id="Group-9" stroke-width="2"><path _ngcontent-c3="" d="M0 9.757L9.246.754l9.004 9.003 8.268-8.269 9.01 9.01 8.485-8.485 8.502 8.502" id="Path-7"/><path _ngcontent-c3="" d="M3 9.757L12.246.754l9.004 9.003 8.268-8.269 9.01 9.01 8.485-8.485 8.502 8.502" id="Path-7" opacity=".2"/></g></g><g _ngcontent-c3="" id="shape_2" transform="translate(247 2602)"><g _ngcontent-c3="" id="Group-4-Copy-3"><path _ngcontent-c3="" d="M16.576 8.707a7.837 7.837 0 1 1-15.675 0 7.837 7.837 0 0 1 15.675 0" fill="#FF9F1C" id="Fill-9" opacity=".2"/><path _ngcontent-c3="" d="M19.576 11.707a7.837 7.837 0 1 1-15.675 0 7.837 7.837 0 0 1 15.675 0z" id="Stroke-11" stroke="#FF9F1C" stroke-linecap="round" stroke-linejoin="round" stroke-width="2"/></g></g><g _ngcontent-c3="" id="shape_3" transform="translate(736 1510)"><g _ngcontent-c3="" id="Group-2-Copy-5"><path _ngcontent-c3="" d="M20.43 3.542L4.284 5.357a.452.452 0 0 0-.314.718l9.644 13.076c.207.281.64.232.78-.088l6.5-14.89a.452.452 0 0 0-.464-.63" fill="#FF9F1C" id="Fill-1" opacity=".2"/><path _ngcontent-c3="" d="M18.698.103L.992 2.093l10.576 14.338z" id="Stroke-3" stroke="#FF9F1C" stroke-linecap="round" stroke-linejoin="round" stroke-width="2"/></g></g><g _ngcontent-c3="" id="shape_4-copy-2" stroke="#2E6BD1" stroke-linecap="round" transform="rotate(15 -9078.913 7049.454)"><g _ngcontent-c3="" id="Group" stroke-width="2"><path _ngcontent-c3="" d="M9 0v18M18 9H0" id="Path-4"/><path _ngcontent-c3="" d="M11 2v18M20 11H2" id="Path-4" opacity=".2"/></g></g><g _ngcontent-c3="" id="shape_2-copy-3" transform="translate(1109 2715)"><g _ngcontent-c3="" id="Group-4-Copy-3"><path _ngcontent-c3="" d="M17.405 8.707c0 4.328-3.685 7.837-8.23 7.837S.946 13.035.946 8.707C.946 4.378 4.63.87 9.176.87s8.23 3.51 8.23 7.838" fill="#2E6BD1" id="Fill-9" opacity=".2"/><path _ngcontent-c3="" d="M20.555 11.707c0 4.328-3.685 7.837-8.23 7.837s-8.23-3.509-8.23-7.837c0-4.328 3.685-7.838 8.23-7.838s8.23 3.51 8.23 7.838z" id="Stroke-11" stroke="#2E6BD1" stroke-linecap="round" stroke-linejoin="round" stroke-width="2"/></g></g><g _ngcontent-c3="" id="shape_3" transform="translate(915 2502)"><g _ngcontent-c3="" id="Group-2-Copy-5"><path _ngcontent-c3="" d="M20.43 3.542L4.284 5.357a.452.452 0 0 0-.314.718l9.644 13.076c.207.281.64.232.78-.088l6.5-14.89a.452.452 0 0 0-.464-.63" fill="#FF9F1C" id="Fill-1" opacity=".2"/><path _ngcontent-c3="" d="M18.698.103L.992 2.093l10.576 14.338z" id="Stroke-3" stroke="#FF9F1C" stroke-linecap="round" stroke-linejoin="round" stroke-width="2"/></g></g><g _ngcontent-c3="" id="shape_4-copy" stroke="#2EC5B6" stroke-linecap="round" stroke-width="2" transform="translate(1042 1919)"><g _ngcontent-c3="" id="Group-2"><path _ngcontent-c3="" d="M9.45 0v18M18.9 9H0" id="Path-4"/></g><g _ngcontent-c3="" id="Group" opacity=".2" transform="translate(2.1 2)"><path _ngcontent-c3="" d="M9.45 0v18M18.9 9H0" id="Path-4"/></g></g><g _ngcontent-c3="" id="shape_2" transform="translate(1552 2870)"><g _ngcontent-c3="" id="Group-4-Copy-3"><path _ngcontent-c3="" d="M16.576 8.707a7.837 7.837 0 1 1-15.675 0 7.837 7.837 0 0 1 15.675 0" fill="#FF9F1C" id="Fill-9" opacity=".2"/><path _ngcontent-c3="" d="M19.576 11.707a7.837 7.837 0 1 1-15.675 0 7.837 7.837 0 0 1 15.675 0z" id="Stroke-11" stroke="#FF9F1C" stroke-linecap="round" stroke-linejoin="round" stroke-width="2"/></g></g><g _ngcontent-c3="" id="shape_2" transform="translate(496 3807)"><g _ngcontent-c3="" id="Group-4-Copy-3"><path _ngcontent-c3="" d="M16.576 8.707a7.837 7.837 0 1 1-15.675 0 7.837 7.837 0 0 1 15.675 0" fill="#FF9F1C" id="Fill-9" opacity=".2"/><path _ngcontent-c3="" d="M19.576 11.707a7.837 7.837 0 1 1-15.675 0 7.837 7.837 0 0 1 15.675 0z" id="Stroke-11" stroke="#FF9F1C" stroke-linecap="round" stroke-linejoin="round" stroke-width="2"/></g></g><g _ngcontent-c3="" id="shape_2" transform="translate(1420 3285)"><g _ngcontent-c3="" id="Group-4-Copy-3"><path _ngcontent-c3="" d="M16.576 8.707a7.837 7.837 0 1 1-15.675 0 7.837 7.837 0 0 1 15.675 0" fill="#FF9F1C" id="Fill-9" opacity=".2"/><path _ngcontent-c3="" d="M19.576 11.707a7.837 7.837 0 1 1-15.675 0 7.837 7.837 0 0 1 15.675 0z" id="Stroke-11" stroke="#FF9F1C" stroke-linecap="round" stroke-linejoin="round" stroke-width="2"/></g></g><g _ngcontent-c3="" id="shape_4-copy-2" stroke="#2E6BD1" stroke-linecap="round" transform="rotate(-22 8370.247 -1731.178)"><g _ngcontent-c3="" id="Group" stroke-width="2"><path _ngcontent-c3="" d="M9 0v18M18 9H0" id="Path-4"/><path _ngcontent-c3="" d="M11 2v18M20 11H2" id="Path-4" opacity=".2"/></g></g><g _ngcontent-c3="" id="shape_1-copy" transform="translate(1829 2257)"><g _ngcontent-c3="" id="Group-6-Copy-2"><path _ngcontent-c3="" d="M20.002 20.072L7.228 26.036a.593.593 0 0 1-.789-.286L.476 12.975a.593.593 0 0 1 .286-.79l12.774-5.962a.594.594 0 0 1 .79.286l5.963 12.775a.593.593 0 0 1-.287.788" fill="#2EC5B6" id="Fill-17" opacity=".2"/><path _ngcontent-c3="" d="M22.316 14.492l-13.85 6.466L2.002 7.11 15.85.643z" id="Stroke-19" stroke="#2EC5B6" stroke-linecap="round" stroke-linejoin="round" stroke-width="2"/></g></g><g _ngcontent-c3="" id="shape_2-copy-3" transform="translate(1031 3439)"><g _ngcontent-c3="" id="Group-4-Copy-3"><path _ngcontent-c3="" d="M17.405 8.707c0 4.328-3.685 7.837-8.23 7.837S.946 13.035.946 8.707C.946 4.378 4.63.87 9.176.87s8.23 3.51 8.23 7.838" fill="#2E6BD1" id="Fill-9" opacity=".2"/><path _ngcontent-c3="" d="M20.555 11.707c0 4.328-3.685 7.837-8.23 7.837s-8.23-3.509-8.23-7.837c0-4.328 3.685-7.838 8.23-7.838s8.23 3.51 8.23 7.838z" id="Stroke-11" stroke="#2E6BD1" stroke-linecap="round" stroke-linejoin="round" stroke-width="2"/></g></g><g _ngcontent-c3="" id="shape_2-copy" transform="translate(1264 4607)"><g _ngcontent-c3="" id="Group-4-Copy-3"><path _ngcontent-c3="" d="M16.576 8.707a7.837 7.837 0 1 1-15.675 0 7.837 7.837 0 0 1 15.675 0" fill="#2EC5B6" id="Fill-9" opacity=".2"/><path _ngcontent-c3="" d="M19.576 11.707a7.837 7.837 0 1 1-15.675 0 7.837 7.837 0 0 1 15.675 0z" id="Stroke-11" stroke="#2EC5B6" stroke-linecap="round" stroke-linejoin="round" stroke-width="2"/></g></g><g _ngcontent-c3="" id="shape_1" transform="translate(267 3206)"><g _ngcontent-c3="" id="Group-6-Copy-2"><path _ngcontent-c3="" d="M20.002 20.072L7.228 26.036a.593.593 0 0 1-.789-.286L.476 12.975a.593.593 0 0 1 .286-.79l12.774-5.962a.594.594 0 0 1 .79.286l5.963 12.775a.593.593 0 0 1-.287.788" fill="#FF9F1C" fill-opacity=".2" id="Fill-17"/><path _ngcontent-c3="" d="M22.316 14.492l-13.85 6.466L2.002 7.11 15.85.643z" id="Stroke-19" stroke="#FF9F1C" stroke-linecap="round" stroke-linejoin="round" stroke-width="2"/></g></g><g _ngcontent-c3="" id="shape_5-copy-2" stroke="#2E6BD1" stroke-linecap="round" stroke-linejoin="round" transform="translate(1526 3428)"><g _ngcontent-c3="" id="Group" stroke-width="2"><path _ngcontent-c3="" d="M0 9.757L9.246.754l9.004 9.003 8.268-8.269 9.01 9.01 8.485-8.485 8.502 8.502" id="Path-7"/><path _ngcontent-c3="" d="M3 9.757L12.246.754l9.004 9.003 8.268-8.269 9.01 9.01 8.485-8.485 8.502 8.502" id="Path-7" opacity=".2"/></g></g><g _ngcontent-c3="" id="shape_4-copy-2" stroke="#2E6BD1" stroke-linecap="round" transform="rotate(15 -13998.387 5985.494)"><g _ngcontent-c3="" id="Group" stroke-width="2"><path _ngcontent-c3="" d="M9 0v18M18 9H0" id="Path-4"/><path _ngcontent-c3="" d="M11 2v18M20 11H2" id="Path-4" opacity=".2"/></g></g><g _ngcontent-c3="" id="shape_4-copy" stroke="#2EC5B6" stroke-linecap="round" stroke-width="2" transform="rotate(15 -21093.237 9469.593)"><g _ngcontent-c3="" id="Group-2"><path _ngcontent-c3="" d="M9 0v18M18 9H0" id="Path-4"/></g><g _ngcontent-c3="" id="Group" opacity=".2" transform="translate(2 2)"><path _ngcontent-c3="" d="M9 0v18M18 9H0" id="Path-4"/></g></g><g _ngcontent-c3="" id="shape_2-copy" transform="translate(1409 3741)"><g _ngcontent-c3="" id="Group-4-Copy-3"><path _ngcontent-c3="" d="M16.576 8.707a7.837 7.837 0 1 1-15.675 0 7.837 7.837 0 0 1 15.675 0" fill="#2EC5B6" id="Fill-9" opacity=".2"/><path _ngcontent-c3="" d="M19.576 11.707a7.837 7.837 0 1 1-15.675 0 7.837 7.837 0 0 1 15.675 0z" id="Stroke-11" stroke="#2EC5B6" stroke-linecap="round" stroke-linejoin="round" stroke-width="2"/></g></g><g _ngcontent-c3="" id="shape_5" stroke="#FF9F1C" stroke-linejoin="round" transform="translate(932 5054)"><g _ngcontent-c3="" id="Group-9" stroke-width="2"><path _ngcontent-c3="" d="M0 9.757L9.246.754l9.004 9.003 8.268-8.269 9.01 9.01 8.485-8.485 8.502 8.502" id="Path-7"/><path _ngcontent-c3="" d="M3 9.757L12.246.754l9.004 9.003 8.268-8.269 9.01 9.01 8.485-8.485 8.502 8.502" id="Path-7" opacity=".2"/></g></g><g _ngcontent-c3="" id="shape_4-copy-2" stroke="#2E6BD1" stroke-linecap="round" transform="rotate(15 -10500.67 3763.162)"><g _ngcontent-c3="" id="Group" stroke-width="2"><path _ngcontent-c3="" d="M9 0v18M18 9H0" id="Path-4"/><path _ngcontent-c3="" d="M11 2v18M20 11H2" id="Path-4" opacity=".2"/></g></g><g _ngcontent-c3="" id="shape_4-copy-2" stroke="#2E6BD1" stroke-linecap="round" transform="rotate(15 -15015.74 3070.97)"><g _ngcontent-c3="" id="Group" stroke-width="2"><path _ngcontent-c3="" d="M9 0v18M18 9H0" id="Path-4"/><path _ngcontent-c3="" d="M11 2v18M20 11H2" id="Path-4" opacity=".2"/></g></g><g _ngcontent-c3="" id="shape_2-copy-3" transform="translate(1263 4160)"><g _ngcontent-c3="" id="Group-4-Copy-3"><path _ngcontent-c3="" d="M17.405 8.707c0 4.328-3.685 7.837-8.23 7.837S.946 13.035.946 8.707C.946 4.378 4.63.87 9.176.87s8.23 3.51 8.23 7.838" fill="#2E6BD1" id="Fill-9" opacity=".2"/><path _ngcontent-c3="" d="M20.555 11.707c0 4.328-3.685 7.837-8.23 7.837s-8.23-3.509-8.23-7.837c0-4.328 3.685-7.838 8.23-7.838s8.23 3.51 8.23 7.838z" id="Stroke-11" stroke="#2E6BD1" stroke-linecap="round" stroke-linejoin="round" stroke-width="2"/></g></g><g _ngcontent-c3="" id="shape_2-copy" transform="translate(905 5435)"><g _ngcontent-c3="" id="Group-4-Copy-3"><path _ngcontent-c3="" d="M16.576 8.707a7.837 7.837 0 1 1-15.675 0 7.837 7.837 0 0 1 15.675 0" fill="#2EC5B6" id="Fill-9" opacity=".2"/><path _ngcontent-c3="" d="M19.576 11.707a7.837 7.837 0 1 1-15.675 0 7.837 7.837 0 0 1 15.675 0z" id="Stroke-11" stroke="#2EC5B6" stroke-linecap="round" stroke-linejoin="round" stroke-width="2"/></g></g><g _ngcontent-c3="" id="shape_2-copy" transform="translate(559 4201)"><g _ngcontent-c3="" id="Group-4-Copy-3"><path _ngcontent-c3="" d="M16.576 8.707a7.837 7.837 0 1 1-15.675 0 7.837 7.837 0 0 1 15.675 0" fill="#2EC5B6" id="Fill-9" opacity=".2"/><path _ngcontent-c3="" d="M19.576 11.707a7.837 7.837 0 1 1-15.675 0 7.837 7.837 0 0 1 15.675 0z" id="Stroke-11" stroke="#2EC5B6" stroke-linecap="round" stroke-linejoin="round" stroke-width="2"/></g></g><g _ngcontent-c3="" id="shape_1" transform="translate(959 4395)"><g _ngcontent-c3="" id="Group-6-Copy-2"><path _ngcontent-c3="" d="M20.002 20.072L7.228 26.036a.593.593 0 0 1-.789-.286L.476 12.975a.593.593 0 0 1 .286-.79l12.774-5.962a.594.594 0 0 1 .79.286l5.963 12.775a.593.593 0 0 1-.287.788" fill="#FF9F1C" fill-opacity=".2" id="Fill-17"/><path _ngcontent-c3="" d="M22.316 14.492l-13.85 6.466L2.002 7.11 15.85.643z" id="Stroke-19" stroke="#FF9F1C" stroke-linecap="round" stroke-linejoin="round" stroke-width="2"/></g></g><g _ngcontent-c3="" id="shape_1" transform="translate(494 5272)"><g _ngcontent-c3="" id="Group-6-Copy-2"><path _ngcontent-c3="" d="M20.002 20.072L7.228 26.036a.593.593 0 0 1-.789-.286L.476 12.975a.593.593 0 0 1 .286-.79l12.774-5.962a.594.594 0 0 1 .79.286l5.963 12.775a.593.593 0 0 1-.287.788" fill="#FF9F1C" fill-opacity=".2" id="Fill-17"/><path _ngcontent-c3="" d="M22.316 14.492l-13.85 6.466L2.002 7.11 15.85.643z" id="Stroke-19" stroke="#FF9F1C" stroke-linecap="round" stroke-linejoin="round" stroke-width="2"/></g></g><g _ngcontent-c3="" id="shape_5-copy-2" stroke="#2E6BD1" stroke-linecap="round" stroke-linejoin="round" transform="translate(1553 4283)"><g _ngcontent-c3="" id="Group" stroke-width="2"><path _ngcontent-c3="" d="M0 9.757L9.246.754l9.004 9.003 8.268-8.269 9.01 9.01 8.485-8.485 8.502 8.502" id="Path-7"/><path _ngcontent-c3="" d="M3 9.757L12.246.754l9.004 9.003 8.268-8.269 9.01 9.01 8.485-8.485 8.502 8.502" id="Path-7" opacity=".2"/></g></g><g _ngcontent-c3="" id="shape_5-copy" stroke="#2EC5B6" stroke-linecap="round" stroke-linejoin="round" transform="translate(234 5922)"><g _ngcontent-c3="" id="Group-9" stroke-width="2"><path _ngcontent-c3="" d="M0 9.757L9.246.754l9.004 9.003 8.268-8.269 9.01 9.01 8.485-8.485 8.502 8.502" id="Path-7"/><path _ngcontent-c3="" d="M3 9.757L12.246.754l9.004 9.003 8.268-8.269 9.01 9.01 8.485-8.485 8.502 8.502" id="Path-7" opacity=".2"/></g></g><g _ngcontent-c3="" id="shape_3-copy" transform="rotate(42 -6099.143 3289.312)"><g _ngcontent-c3="" id="Group-2-Copy-5"><path _ngcontent-c3="" d="M20.43 3.542L4.284 5.357a.452.452 0 0 0-.314.718l9.644 13.076c.207.281.64.232.78-.088l6.5-14.89a.452.452 0 0 0-.464-.63" fill="#2EC5B6" id="Fill-1" opacity=".2"/><path _ngcontent-c3="" d="M18.698.103L.992 2.093l10.576 14.338z" id="Stroke-3" stroke="#2EC5B6" stroke-linecap="round" stroke-linejoin="round" stroke-width="2"/></g></g><g _ngcontent-c3="" id="shape_3-copy-3" transform="rotate(42 -6319.864 4583.07)"><g _ngcontent-c3="" id="Group-2-Copy-5"><path _ngcontent-c3="" d="M20.43 3.542L4.284 5.357a.452.452 0 0 0-.314.718l9.644 13.076c.207.281.64.232.78-.088l6.5-14.89a.452.452 0 0 0-.464-.63" fill="#2E6BD1" id="Fill-1" opacity=".2"/><path _ngcontent-c3="" d="M18.698.103L.992 2.093l10.576 14.338z" id="Stroke-3" stroke="#2E6BD1" stroke-linecap="round" stroke-linejoin="round" stroke-width="2"/></g></g><g _ngcontent-c3="" id="shape_3-copy-3" transform="rotate(42 -7047.121 4152.361)"><g _ngcontent-c3="" id="Group-2-Copy-5"><path _ngcontent-c3="" d="M20.43 3.542L4.284 5.357a.452.452 0 0 0-.314.718l9.644 13.076c.207.281.64.232.78-.088l6.5-14.89a.452.452 0 0 0-.464-.63" fill="#2E6BD1" id="Fill-1" opacity=".2"/><path _ngcontent-c3="" d="M18.698.103L.992 2.093l10.576 14.338z" id="Stroke-3" stroke="#2E6BD1" stroke-linecap="round" stroke-linejoin="round" stroke-width="2"/></g></g><g _ngcontent-c3="" id="shape_3-copy-3" transform="rotate(42 -5927.583 2879.726)"><g _ngcontent-c3="" id="Group-2-Copy-5"><path _ngcontent-c3="" d="M20.43 3.542L4.284 5.357a.452.452 0 0 0-.314.718l9.644 13.076c.207.281.64.232.78-.088l6.5-14.89a.452.452 0 0 0-.464-.63" fill="#2E6BD1" id="Fill-1" opacity=".2"/><path _ngcontent-c3="" d="M18.698.103L.992 2.093l10.576 14.338z" id="Stroke-3" stroke="#2E6BD1" stroke-linecap="round" stroke-linejoin="round" stroke-width="2"/></g></g><g _ngcontent-c3="" fill="#FF9F1C" id="shape_6" transform="rotate(19 -13911.341 6899.788)"><g _ngcontent-c3="" id="Group-4"><path _ngcontent-c3="" d="M1.573 20.08l-.92-17.8V0h3.6v2.28l-.96 17.8h-1.72zM.613 28v-4.2h3.68V28H.613z" id="!"/><path _ngcontent-c3="" d="M2.573 21.08l-.92-17.8V1h3.6v2.28l-.96 17.8h-1.72zM1.613 29v-4.2h3.68V29h-3.68z" id="!" opacity=".2"/></g></g></g></g></g></svg>