<svg _ngcontent-c3="" class="hide-for-xmedium" viewBox="0 0 360 5353" xmlns="http://www.w3.org/2000/svg">
<g _ngcontent-c3="" fill="none" fill-rule="evenodd" id="Page-1">
<g _ngcontent-c3="" id="Opinie_mobile-Copy-2" transform="translate(0 -144)">
<g _ngcontent-c3="" id="home_mobile_page" transform="translate(-1 145)">
<g _ngcontent-c3="" id="shape_3-copy" transform="rotate(42 -40.953 95.763)">
<g _ngcontent-c3="" id="Group-2-Copy-5">
<path _ngcontent-c3="" d="M14.592 2.48L3.06 3.75a.315.315 0 0 0-.225.503l6.89 9.153a.326.326 0 0 0 .556-.062l4.644-10.423a.318.318 0 0 0-.333-.441" fill="#2EC5B6" id="Fill-1" opacity=".2"/>
<path _ngcontent-c3="" d="M13.355.072L.71 1.465l7.554 10.037z" id="Stroke-3" stroke="#2EC5B6" stroke-linecap="round" stroke-linejoin="round" stroke-width="2"/>
</g></g>
<g _ngcontent-c3="" id="shape_1-copy-2" transform="rotate(68 -72.02 401.706)">
<g _ngcontent-c3="" id="Group-6-Copy-2"><path _ngcontent-c3="" d="M13.915 14.124l-8.887 4.197a.41.41 0 0 1-.549-.2L.331 9.13a.42.42 0 0 1 .2-.556L9.415 4.38a.411.411 0 0 1 .55.201l4.148 8.99a.42.42 0 0 1-.2.554" fill="#2E6BD1" id="Fill-17" opacity=".2"/>
<path _ngcontent-c3="" d="M15.524 10.198l-9.634 4.55-4.498-9.745 9.634-4.55z" id="Stroke-19" stroke="#2E6BD1" stroke-linecap="round" stroke-linejoin="round" stroke-width="2"/></g></g><g _ngcontent-c3="" id="shape_4-copy-2" stroke="#2E6BD1" stroke-linecap="round" transform="rotate(-28 525.598 96.965)"><g _ngcontent-c3="" id="Group" stroke-width="2"><path _ngcontent-c3="" d="M5.85 0v11.7M11.7 5.85H0" id="Path-4"/><path _ngcontent-c3="" d="M7.15 1.3V13M13 7.15H1.3" id="Path-4" opacity=".2"/></g></g><g _ngcontent-c3="" id="shape_4-copy" stroke="#2EC5B6" stroke-linecap="round" stroke-width="2" transform="rotate(-17 381.142 -1044.376)"><g _ngcontent-c3="" id="Group-2"><path _ngcontent-c3="" d="M5.85 0v11.7M11.7 5.85H0" id="Path-4"/></g><g _ngcontent-c3="" id="Group" opacity=".2" transform="translate(1.3 1.3)"><path _ngcontent-c3="" d="M5.85 0v11.7M11.7 5.85H0" id="Path-4"/></g></g><g _ngcontent-c3="" id="shape_3" transform="translate(154 391)"><g _ngcontent-c3="" id="Group-2-Copy-5"><path _ngcontent-c3="" d="M13.62 2.302L2.856 3.482a.293.293 0 0 0-.21.467l6.43 8.5c.138.182.427.15.52-.058l4.334-9.678c.093-.208-.08-.436-.31-.41" fill="#FF9F1C" id="Fill-1" opacity=".2"/><path _ngcontent-c3="" d="M12.465.067L.662 1.361l7.05 9.32z" id="Stroke-3" stroke="#FF9F1C" stroke-linecap="round" stroke-linejoin="round" stroke-width="2"/></g></g><g _ngcontent-c3="" id="shape_1" transform="translate(180)"><g _ngcontent-c3="" id="Group-6-Copy-2"><path _ngcontent-c3="" d="M14.784 14.868l-9.441 4.418a.438.438 0 0 1-.584-.212L.352 9.61a.44.44 0 0 1 .211-.585l9.442-4.417a.439.439 0 0 1 .583.212l4.408 9.463a.44.44 0 0 1-.212.584" fill="#FF9F1C" fill-opacity=".2" id="Fill-17"/><path _ngcontent-c3="" d="M16.494 10.735l-10.236 4.79-4.78-10.259L11.716.476z" id="Stroke-19" stroke="#FF9F1C" stroke-linecap="round" stroke-linejoin="round" stroke-width="2"/></g></g><g _ngcontent-c3="" id="shape_5-copy-2" stroke="#2E6BD1" stroke-linecap="round" stroke-linejoin="round" transform="translate(0 463)"><g _ngcontent-c3="" id="Group" stroke-width="2"><path _ngcontent-c3="" d="M0 8.87L8.09.685l7.878 8.185 7.236-7.517 7.883 8.19 7.424-7.713 7.44 7.729" id="Path-7"/><path _ngcontent-c3="" d="M2.625 8.87l8.09-8.185 7.878 8.185 7.236-7.517 7.883 8.19 7.424-7.713 7.44 7.729" id="Path-7" opacity=".2"/></g></g><g _ngcontent-c3="" id="shape_3-copy" transform="translate(267 482)"><g _ngcontent-c3="" id="Group-2-Copy-5"><path _ngcontent-c3="" d="M12.647 2.302l-9.995 1.18c-.215.026-.323.285-.195.467l5.971 8.5c.128.182.396.15.482-.058l4.025-9.678c.086-.208-.074-.436-.288-.41" fill="#2EC5B6" id="Fill-1" opacity=".2"/><path _ngcontent-c3="" d="M11.575.067L.615 1.361l6.546 9.32z" id="Stroke-3" stroke="#2EC5B6" stroke-linecap="round" stroke-linejoin="round" stroke-width="2"/></g></g><g _ngcontent-c3="" id="shape_4-copy" stroke="#2EC5B6" stroke-linecap="round" stroke-width="2" transform="rotate(-17 2337.423 -837.515)"><g _ngcontent-c3="" id="Group-2"><path _ngcontent-c3="" d="M5.85 0v11.7M11.7 5.85H0" id="Path-4"/></g><g _ngcontent-c3="" id="Group" opacity=".2" transform="translate(1.3 1.3)"><path _ngcontent-c3="" d="M5.85 0v11.7M11.7 5.85H0" id="Path-4"/></g></g><g _ngcontent-c3="" id="shape_3-copy-3" transform="translate(333 1300)"><g _ngcontent-c3="" id="Group-2-Copy-5"><path _ngcontent-c3="" d="M13.62 2.302L2.856 3.482a.293.293 0 0 0-.21.467l6.43 8.5c.138.182.427.15.52-.058l4.334-9.678c.093-.208-.08-.436-.31-.41" fill="#2E6BD1" id="Fill-1" opacity=".2"/><path _ngcontent-c3="" d="M12.465.067L.662 1.361l7.05 9.32z" id="Stroke-3" stroke="#2E6BD1" stroke-linecap="round" stroke-linejoin="round" stroke-width="2"/></g></g><g _ngcontent-c3="" id="shape_1" transform="translate(256 594)"><g _ngcontent-c3="" id="Group-6-Copy-2"><path _ngcontent-c3="" d="M14.784 14.868l-9.441 4.418a.438.438 0 0 1-.584-.212L.352 9.61a.44.44 0 0 1 .211-.585l9.442-4.417a.439.439 0 0 1 .583.212l4.408 9.463a.44.44 0 0 1-.212.584" fill="#FF9F1C" fill-opacity=".2" id="Fill-17"/><path _ngcontent-c3="" d="M16.494 10.735l-10.236 4.79-4.78-10.259L11.716.476z" id="Stroke-19" stroke="#FF9F1C" stroke-linecap="round" stroke-linejoin="round" stroke-width="2"/></g></g><g _ngcontent-c3="" id="shape_1" transform="translate(133 1253)"><g _ngcontent-c3="" id="Group-6-Copy-2"><path _ngcontent-c3="" d="M14.784 14.868l-9.441 4.418a.438.438 0 0 1-.584-.212L.352 9.61a.44.44 0 0 1 .211-.585l9.442-4.417a.439.439 0 0 1 .583.212l4.408 9.463a.44.44 0 0 1-.212.584" fill="#FF9F1C" fill-opacity=".2" id="Fill-17"/><path _ngcontent-c3="" d="M16.494 10.735l-10.236 4.79-4.78-10.259L11.716.476z" id="Stroke-19" stroke="#FF9F1C" stroke-linecap="round" stroke-linejoin="round" stroke-width="2"/></g></g><g _ngcontent-c3="" id="shape_2-copy" transform="translate(233 1366)"><g _ngcontent-c3="" id="Group-4-Copy-3"><path _ngcontent-c3="" d="M10.774 5.66a5.094 5.094 0 1 1-10.188 0 5.094 5.094 0 0 1 10.188 0" fill="#2EC5B6" id="Fill-9" opacity=".2"/><path _ngcontent-c3="" d="M12.724 7.61a5.094 5.094 0 1 1-10.188 0 5.094 5.094 0 0 1 10.188 0z" id="Stroke-11" stroke="#2EC5B6" stroke-linecap="round" stroke-linejoin="round" stroke-width="2"/></g></g><g _ngcontent-c3="" id="shape_5-copy-2" stroke="#2E6BD1" stroke-linecap="round" stroke-linejoin="round" transform="translate(14 1329)"><g _ngcontent-c3="" id="Group" stroke-width="2"><path _ngcontent-c3="" d="M0 8.87L8.09.685l7.878 8.185 7.236-7.517 7.883 8.19 7.424-7.713 7.44 7.729" id="Path-7"/><path _ngcontent-c3="" d="M2.625 8.87l8.09-8.185 7.878 8.185 7.236-7.517 7.883 8.19 7.424-7.713 7.44 7.729" id="Path-7" opacity=".2"/></g></g><g _ngcontent-c3="" id="shape_2-copy-3" transform="translate(23 681)"><g _ngcontent-c3="" id="Group-4-Copy-3"><path _ngcontent-c3="" d="M10.774 5.66a5.094 5.094 0 1 1-10.188 0 5.094 5.094 0 0 1 10.188 0" fill="#2E6BD1" id="Fill-9" opacity=".2"/><path _ngcontent-c3="" d="M12.724 7.61a5.094 5.094 0 1 1-10.188 0 5.094 5.094 0 0 1 10.188 0z" id="Stroke-11" stroke="#2E6BD1" stroke-linecap="round" stroke-linejoin="round" stroke-width="2"/></g></g><g _ngcontent-c3="" id="shape_4-copy" stroke="#2EC5B6" stroke-linecap="round" stroke-width="2" transform="rotate(-17 8041.633 14.985)"><g _ngcontent-c3="" id="Group-2"><path _ngcontent-c3="" d="M5.85 0v11.7M11.7 5.85H0" id="Path-4"/></g><g _ngcontent-c3="" id="Group" opacity=".2" transform="translate(1.3 1.3)"><path _ngcontent-c3="" d="M5.85 0v11.7M11.7 5.85H0" id="Path-4"/></g></g><g _ngcontent-c3="" id="shape_3-copy-3" transform="translate(333 3005)"><g _ngcontent-c3="" id="Group-2-Copy-5"><path _ngcontent-c3="" d="M13.62 2.302L2.856 3.482a.293.293 0 0 0-.21.467l6.43 8.5c.138.182.427.15.52-.058l4.334-9.678c.093-.208-.08-.436-.31-.41" fill="#2E6BD1" id="Fill-1" opacity=".2"/><path _ngcontent-c3="" d="M12.465.067L.662 1.361l7.05 9.32z" id="Stroke-3" stroke="#2E6BD1" stroke-linecap="round" stroke-linejoin="round" stroke-width="2"/></g></g><g _ngcontent-c3="" id="shape_1" transform="translate(256 2299)"><g _ngcontent-c3="" id="Group-6-Copy-2"><path _ngcontent-c3="" d="M14.784 14.868l-9.441 4.418a.438.438 0 0 1-.584-.212L.352 9.61a.44.44 0 0 1 .211-.585l9.442-4.417a.439.439 0 0 1 .583.212l4.408 9.463a.44.44 0 0 1-.212.584" fill="#FF9F1C" fill-opacity=".2" id="Fill-17"/><path _ngcontent-c3="" d="M16.494 10.735l-10.236 4.79-4.78-10.259L11.716.476z" id="Stroke-19" stroke="#FF9F1C" stroke-linecap="round" stroke-linejoin="round" stroke-width="2"/></g></g><g _ngcontent-c3="" id="shape_1" transform="translate(133 2958)"><g _ngcontent-c3="" id="Group-6-Copy-2"><path _ngcontent-c3="" d="M14.784 14.868l-9.441 4.418a.438.438 0 0 1-.584-.212L.352 9.61a.44.44 0 0 1 .211-.585l9.442-4.417a.439.439 0 0 1 .583.212l4.408 9.463a.44.44 0 0 1-.212.584" fill="#FF9F1C" fill-opacity=".2" id="Fill-17"/><path _ngcontent-c3="" d="M16.494 10.735l-10.236 4.79-4.78-10.259L11.716.476z" id="Stroke-19" stroke="#FF9F1C" stroke-linecap="round" stroke-linejoin="round" stroke-width="2"/></g></g><g _ngcontent-c3="" id="shape_2-copy" transform="translate(233 3071)"><g _ngcontent-c3="" id="Group-4-Copy-3"><path _ngcontent-c3="" d="M10.774 5.66a5.094 5.094 0 1 1-10.188 0 5.094 5.094 0 0 1 10.188 0" fill="#2EC5B6" id="Fill-9" opacity=".2"/><path _ngcontent-c3="" d="M12.724 7.61a5.094 5.094 0 1 1-10.188 0 5.094 5.094 0 0 1 10.188 0z" id="Stroke-11" stroke="#2EC5B6" stroke-linecap="round" stroke-linejoin="round" stroke-width="2"/></g></g><g _ngcontent-c3="" id="shape_5-copy-2" stroke="#2E6BD1" stroke-linecap="round" stroke-linejoin="round" transform="translate(14 3034)"><g _ngcontent-c3="" id="Group" stroke-width="2"><path _ngcontent-c3="" d="M0 8.87L8.09.685l7.878 8.185 7.236-7.517 7.883 8.19 7.424-7.713 7.44 7.729" id="Path-7"/><path _ngcontent-c3="" d="M2.625 8.87l8.09-8.185 7.878 8.185 7.236-7.517 7.883 8.19 7.424-7.713 7.44 7.729" id="Path-7" opacity=".2"/></g></g><g _ngcontent-c3="" id="shape_2-copy-3" transform="translate(23 2386)"><g _ngcontent-c3="" id="Group-4-Copy-3"><path _ngcontent-c3="" d="M10.774 5.66a5.094 5.094 0 1 1-10.188 0 5.094 5.094 0 0 1 10.188 0" fill="#2E6BD1" id="Fill-9" opacity=".2"/><path _ngcontent-c3="" d="M12.724 7.61a5.094 5.094 0 1 1-10.188 0 5.094 5.094 0 0 1 10.188 0z" id="Stroke-11" stroke="#2E6BD1" stroke-linecap="round" stroke-linejoin="round" stroke-width="2"/></g></g><g _ngcontent-c3="" id="shape_4-copy" stroke="#2EC5B6" stroke-linecap="round" stroke-width="2" transform="rotate(-17 5187.855 -411.515)"><g _ngcontent-c3="" id="Group-2"><path _ngcontent-c3="" d="M5.85 0v11.7M11.7 5.85H0" id="Path-4"/></g><g _ngcontent-c3="" id="Group" opacity=".2" transform="translate(1.3 1.3)"><path _ngcontent-c3="" d="M5.85 0v11.7M11.7 5.85H0" id="Path-4"/></g></g><g _ngcontent-c3="" id="shape_3-copy-3" transform="translate(333 2152)"><g _ngcontent-c3="" id="Group-2-Copy-5"><path _ngcontent-c3="" d="M13.62 2.302L2.856 3.482a.293.293 0 0 0-.21.467l6.43 8.5c.138.182.427.15.52-.058l4.334-9.678c.093-.208-.08-.436-.31-.41" fill="#2E6BD1" id="Fill-1" opacity=".2"/><path _ngcontent-c3="" d="M12.465.067L.662 1.361l7.05 9.32z" id="Stroke-3" stroke="#2E6BD1" stroke-linecap="round" stroke-linejoin="round" stroke-width="2"/></g></g><g _ngcontent-c3="" id="shape_1" transform="translate(256 1446)"><g _ngcontent-c3="" id="Group-6-Copy-2"><path _ngcontent-c3="" d="M14.784 14.868l-9.441 4.418a.438.438 0 0 1-.584-.212L.352 9.61a.44.44 0 0 1 .211-.585l9.442-4.417a.439.439 0 0 1 .583.212l4.408 9.463a.44.44 0 0 1-.212.584" fill="#FF9F1C" fill-opacity=".2" id="Fill-17"/><path _ngcontent-c3="" d="M16.494 10.735l-10.236 4.79-4.78-10.259L11.716.476z" id="Stroke-19" stroke="#FF9F1C" stroke-linecap="round" stroke-linejoin="round" stroke-width="2"/></g></g><g _ngcontent-c3="" id="shape_1" transform="translate(133 2105)"><g _ngcontent-c3="" id="Group-6-Copy-2"><path _ngcontent-c3="" d="M14.784 14.868l-9.441 4.418a.438.438 0 0 1-.584-.212L.352 9.61a.44.44 0 0 1 .211-.585l9.442-4.417a.439.439 0 0 1 .583.212l4.408 9.463a.44.44 0 0 1-.212.584" fill="#FF9F1C" fill-opacity=".2" id="Fill-17"/><path _ngcontent-c3="" d="M16.494 10.735l-10.236 4.79-4.78-10.259L11.716.476z" id="Stroke-19" stroke="#FF9F1C" stroke-linecap="round" stroke-linejoin="round" stroke-width="2"/></g></g><g _ngcontent-c3="" id="shape_2-copy" transform="translate(233 2218)"><g _ngcontent-c3="" id="Group-4-Copy-3"><path _ngcontent-c3="" d="M10.774 5.66a5.094 5.094 0 1 1-10.188 0 5.094 5.094 0 0 1 10.188 0" fill="#2EC5B6" id="Fill-9" opacity=".2"/><path _ngcontent-c3="" d="M12.724 7.61a5.094 5.094 0 1 1-10.188 0 5.094 5.094 0 0 1 10.188 0z" id="Stroke-11" stroke="#2EC5B6" stroke-linecap="round" stroke-linejoin="round" stroke-width="2"/></g></g><g _ngcontent-c3="" id="shape_5-copy-2" stroke="#2E6BD1" stroke-linecap="round" stroke-linejoin="round" transform="translate(14 2181)"><g _ngcontent-c3="" id="Group" stroke-width="2"><path _ngcontent-c3="" d="M0 8.87L8.09.685l7.878 8.185 7.236-7.517 7.883 8.19 7.424-7.713 7.44 7.729" id="Path-7"/><path _ngcontent-c3="" d="M2.625 8.87l8.09-8.185 7.878 8.185 7.236-7.517 7.883 8.19 7.424-7.713 7.44 7.729" id="Path-7" opacity=".2"/></g></g><g _ngcontent-c3="" id="shape_2-copy-3" transform="translate(23 1533)"><g _ngcontent-c3="" id="Group-4-Copy-3"><path _ngcontent-c3="" d="M10.774 5.66a5.094 5.094 0 1 1-10.188 0 5.094 5.094 0 0 1 10.188 0" fill="#2E6BD1" id="Fill-9" opacity=".2"/><path _ngcontent-c3="" d="M12.724 7.61a5.094 5.094 0 1 1-10.188 0 5.094 5.094 0 0 1 10.188 0z" id="Stroke-11" stroke="#2E6BD1" stroke-linecap="round" stroke-linejoin="round" stroke-width="2"/></g></g><g _ngcontent-c3="" id="shape_4-copy" stroke="#2EC5B6" stroke-linecap="round" stroke-width="2" transform="rotate(-17 10892.066 440.985)"><g _ngcontent-c3="" id="Group-2"><path _ngcontent-c3="" d="M5.85 0v11.7M11.7 5.85H0" id="Path-4"/></g><g _ngcontent-c3="" id="Group" opacity=".2" transform="translate(1.3 1.3)"><path _ngcontent-c3="" d="M5.85 0v11.7M11.7 5.85H0" id="Path-4"/></g></g><g _ngcontent-c3="" id="shape_3-copy-3" transform="translate(333 3857)"><g _ngcontent-c3="" id="Group-2-Copy-5"><path _ngcontent-c3="" d="M13.62 2.302L2.856 3.482a.293.293 0 0 0-.21.467l6.43 8.5c.138.182.427.15.52-.058l4.334-9.678c.093-.208-.08-.436-.31-.41" fill="#2E6BD1" id="Fill-1" opacity=".2"/><path _ngcontent-c3="" d="M12.465.067L.662 1.361l7.05 9.32z" id="Stroke-3" stroke="#2E6BD1" stroke-linecap="round" stroke-linejoin="round" stroke-width="2"/></g></g><g _ngcontent-c3="" id="shape_1" transform="translate(256 3151)"><g _ngcontent-c3="" id="Group-6-Copy-2"><path _ngcontent-c3="" d="M14.784 14.868l-9.441 4.418a.438.438 0 0 1-.584-.212L.352 9.61a.44.44 0 0 1 .211-.585l9.442-4.417a.439.439 0 0 1 .583.212l4.408 9.463a.44.44 0 0 1-.212.584" fill="#FF9F1C" fill-opacity=".2" id="Fill-17"/><path _ngcontent-c3="" d="M16.494 10.735l-10.236 4.79-4.78-10.259L11.716.476z" id="Stroke-19" stroke="#FF9F1C" stroke-linecap="round" stroke-linejoin="round" stroke-width="2"/></g></g><g _ngcontent-c3="" id="shape_1" transform="translate(133 3810)"><g _ngcontent-c3="" id="Group-6-Copy-2"><path _ngcontent-c3="" d="M14.784 14.868l-9.441 4.418a.438.438 0 0 1-.584-.212L.352 9.61a.44.44 0 0 1 .211-.585l9.442-4.417a.439.439 0 0 1 .583.212l4.408 9.463a.44.44 0 0 1-.212.584" fill="#FF9F1C" fill-opacity=".2" id="Fill-17"/><path _ngcontent-c3="" d="M16.494 10.735l-10.236 4.79-4.78-10.259L11.716.476z" id="Stroke-19" stroke="#FF9F1C" stroke-linecap="round" stroke-linejoin="round" stroke-width="2"/></g></g><g _ngcontent-c3="" id="shape_2-copy" transform="translate(233 3923)"><g _ngcontent-c3="" id="Group-4-Copy-3"><path _ngcontent-c3="" d="M10.774 5.66a5.094 5.094 0 1 1-10.188 0 5.094 5.094 0 0 1 10.188 0" fill="#2EC5B6" id="Fill-9" opacity=".2"/><path _ngcontent-c3="" d="M12.724 7.61a5.094 5.094 0 1 1-10.188 0 5.094 5.094 0 0 1 10.188 0z" id="Stroke-11" stroke="#2EC5B6" stroke-linecap="round" stroke-linejoin="round" stroke-width="2"/></g></g><g _ngcontent-c3="" id="shape_5-copy-2" stroke="#2E6BD1" stroke-linecap="round" stroke-linejoin="round" transform="translate(14 3886)"><g _ngcontent-c3="" id="Group" stroke-width="2"><path _ngcontent-c3="" d="M0 8.87L8.09.685l7.878 8.185 7.236-7.517 7.883 8.19 7.424-7.713 7.44 7.729" id="Path-7"/><path _ngcontent-c3="" d="M2.625 8.87l8.09-8.185 7.878 8.185 7.236-7.517 7.883 8.19 7.424-7.713 7.44 7.729" id="Path-7" opacity=".2"/></g></g><g _ngcontent-c3="" id="shape_2-copy-3" transform="translate(23 3238)"><g _ngcontent-c3="" id="Group-4-Copy-3"><path _ngcontent-c3="" d="M10.774 5.66a5.094 5.094 0 1 1-10.188 0 5.094 5.094 0 0 1 10.188 0" fill="#2E6BD1" id="Fill-9" opacity=".2"/><path _ngcontent-c3="" d="M12.724 7.61a5.094 5.094 0 1 1-10.188 0 5.094 5.094 0 0 1 10.188 0z" id="Stroke-11" stroke="#2E6BD1" stroke-linecap="round" stroke-linejoin="round" stroke-width="2"/></g></g><g _ngcontent-c3="" id="shape_3-copy" transform="rotate(42 -6822.483 2996.426)"><g _ngcontent-c3="" id="Group-2-Copy-5"><path _ngcontent-c3="" d="M14.592 2.48L3.06 3.75a.315.315 0 0 0-.225.503l6.89 9.153a.326.326 0 0 0 .556-.062l4.644-10.423a.318.318 0 0 0-.333-.441" fill="#2EC5B6" id="Fill-1" opacity=".2"/><path _ngcontent-c3="" d="M13.355.072L.71 1.465l7.554 10.037z" id="Stroke-3" stroke="#2EC5B6" stroke-linecap="round" stroke-linejoin="round" stroke-width="2"/></g></g><g _ngcontent-c3="" id="shape_1-copy-2" transform="rotate(68 -3905.891 2662.395)"><g _ngcontent-c3="" id="Group-6-Copy-2"><path _ngcontent-c3="" d="M13.915 14.124l-8.887 4.197a.41.41 0 0 1-.549-.2L.331 9.13a.42.42 0 0 1 .2-.556L9.415 4.38a.411.411 0 0 1 .55.201l4.148 8.99a.42.42 0 0 1-.2.554" fill="#2E6BD1" id="Fill-17" opacity=".2"/><path _ngcontent-c3="" d="M15.524 10.198l-9.634 4.55-4.498-9.745 9.634-4.55z" id="Stroke-19" stroke="#2E6BD1" stroke-linecap="round" stroke-linejoin="round" stroke-width="2"/></g></g><g _ngcontent-c3="" id="shape_1-copy-2" transform="rotate(68 -3587.946 2527.75)"><g _ngcontent-c3="" id="Group-6-Copy-2"><path _ngcontent-c3="" d="M13.915 14.124l-8.887 4.197a.41.41 0 0 1-.549-.2L.331 9.13a.42.42 0 0 1 .2-.556L9.415 4.38a.411.411 0 0 1 .55.201l4.148 8.99a.42.42 0 0 1-.2.554" fill="#2E6BD1" id="Fill-17" opacity=".2"/><path _ngcontent-c3="" d="M15.524 10.198l-9.634 4.55-4.498-9.745 9.634-4.55z" id="Stroke-19" stroke="#2E6BD1" stroke-linecap="round" stroke-linejoin="round" stroke-width="2"/></g></g><g _ngcontent-c3="" id="shape_5-copy-2" stroke="#2E6BD1" stroke-linecap="round" stroke-linejoin="round" transform="translate(328 5231)"><g _ngcontent-c3="" id="Group" stroke-width="2"><path _ngcontent-c3="" d="M0 8.87L8.09.685l7.878 8.185 7.236-7.517 7.883 8.19 7.424-7.713 7.44 7.729" id="Path-7"/><path _ngcontent-c3="" d="M2.625 8.87l8.09-8.185 7.878 8.185 7.236-7.517 7.883 8.19 7.424-7.713 7.44 7.729" id="Path-7" opacity=".2"/></g></g><g _ngcontent-c3="" id="shape_1" transform="translate(42 4523)"><g _ngcontent-c3="" id="Group-6-Copy-2"><path _ngcontent-c3="" d="M14.784 14.868l-9.441 4.418a.438.438 0 0 1-.584-.212L.352 9.61a.44.44 0 0 1 .211-.585l9.442-4.417a.439.439 0 0 1 .583.212l4.408 9.463a.44.44 0 0 1-.212.584" fill="#FF9F1C" fill-opacity=".2" id="Fill-17"/><path _ngcontent-c3="" d="M16.494 10.735l-10.236 4.79-4.78-10.259L11.716.476z" id="Stroke-19" stroke="#FF9F1C" stroke-linecap="round" stroke-linejoin="round" stroke-width="2"/></g></g><g _ngcontent-c3="" id="shape_4" stroke="#FF9F1C" stroke-linecap="round" transform="rotate(-17 13885.098 1088.782)"><g _ngcontent-c3="" id="Group-7" stroke-width="2"><g _ngcontent-c3="" id="Group-5"><path _ngcontent-c3="" d="M5.85 0v11.7M11.7 5.85H0" id="Path-4"/></g><g _ngcontent-c3="" id="Group-5" opacity=".2" transform="translate(1.3 1.3)"><path _ngcontent-c3="" d="M5.85 0v11.7M11.7 5.85H0" id="Path-4"/></g></g></g><g _ngcontent-c3="" id="shape_3-copy-3" transform="translate(71 4135)"><g _ngcontent-c3="" id="Group-2-Copy-5"><path _ngcontent-c3="" d="M13.62 2.302L2.856 3.482a.293.293 0 0 0-.21.467l6.43 8.5c.138.182.427.15.52-.058l4.334-9.678c.093-.208-.08-.436-.31-.41" fill="#2E6BD1" id="Fill-1" opacity=".2"/><path _ngcontent-c3="" d="M12.465.067L.662 1.361l7.05 9.32z" id="Stroke-3" stroke="#2E6BD1" stroke-linecap="round" stroke-linejoin="round" stroke-width="2"/></g></g><g _ngcontent-c3="" id="shape_4-copy-2" stroke="#2E6BD1" stroke-linecap="round" transform="rotate(-28 9211.3 1600.727)"><g _ngcontent-c3="" id="Group" stroke-width="2"><path _ngcontent-c3="" d="M5.85 0v11.7M11.7 5.85H0" id="Path-4"/><path _ngcontent-c3="" d="M7.15 1.3V13M13 7.15H1.3" id="Path-4" opacity=".2"/></g></g><g _ngcontent-c3="" id="shape_1" transform="translate(312 4866)"><g _ngcontent-c3="" id="Group-6-Copy-2"><path _ngcontent-c3="" d="M14.784 14.868l-9.441 4.418a.438.438 0 0 1-.584-.212L.352 9.61a.44.44 0 0 1 .211-.585l9.442-4.417a.439.439 0 0 1 .583.212l4.408 9.463a.44.44 0 0 1-.212.584" fill="#FF9F1C" fill-opacity=".2" id="Fill-17"/><path _ngcontent-c3="" d="M16.494 10.735l-10.236 4.79-4.78-10.259L11.716.476z" id="Stroke-19" stroke="#FF9F1C" stroke-linecap="round" stroke-linejoin="round" stroke-width="2"/></g></g></g></g></g></svg>