<svg _ngcontent-c3="" class="show-for-xmedium hide-for-xxlarge" viewBox="-10 0 1187 5428" xmlns="http://www.w3.org/2000/svg"><g _ngcontent-c3="" fill="none" fill-rule="evenodd"><path _ngcontent-c3="" d="M887.43 409.542l-16.146 1.815a.452.452 0 0 0-.314.718l9.645 13.076c.207.281.64.232.779-.088l6.5-14.89a.452.452 0 0 0-.465-.63" fill="#2EC5B6" opacity=".2"/><path _ngcontent-c3="" d="M885.697 406.103l-17.705 1.99 10.576 14.338z" stroke="#2EC5B6" stroke-linecap="round" stroke-linejoin="round" stroke-width="2"/><path _ngcontent-c3="" d="M281.298 351.321l16.105 2.145a.452.452 0 0 0 .478-.62l-6.195-15.022a.452.452 0 0 0-.777-.103L281 350.596a.452.452 0 0 0 .299.725" fill="#2E6BD1" opacity=".2"/><path _ngcontent-c3="" d="M282.146 355.077l17.66 2.352-6.793-16.47z" stroke="#2E6BD1" stroke-linecap="round" stroke-linejoin="round" stroke-width="2"/><path _ngcontent-c3="" d="M227.194 86.302l-13.213-9.455a.452.452 0 0 0-.714.324l-1.582 16.171c-.034.347.32.6.638.456l14.795-6.715a.452.452 0 0 0 .076-.78" fill="#2EC5B6" opacity=".2"/><path _ngcontent-c3="" d="M228.208 82.588L213.72 72.22l-1.734 17.732z" stroke="#2EC5B6" stroke-linecap="round" stroke-linejoin="round" stroke-width="2"/><path _ngcontent-c3="" d="M1100.576 138.707a7.837 7.837 0 1 1-15.675 0 7.837 7.837 0 0 1 15.675 0" fill="#FF9F1C" opacity=".2"/><path _ngcontent-c3="" d="M1103.576 141.707a7.837 7.837 0 1 1-15.675 0 7.837 7.837 0 0 1 15.675 0z" stroke="#FF9F1C" stroke-linecap="round" stroke-linejoin="round" stroke-width="2"/><path _ngcontent-c3="" d="M775.576 602.707a7.837 7.837 0 1 1-15.675 0 7.837 7.837 0 0 1 15.675 0" fill="#FF9F1C" opacity=".2"/><path _ngcontent-c3="" d="M778.576 605.707a7.837 7.837 0 1 1-15.675 0 7.837 7.837 0 0 1 15.675 0z" stroke="#FF9F1C" stroke-linecap="round" stroke-linejoin="round" stroke-width="2"/><path _ngcontent-c3="" d="M1142.576 479.707a7.837 7.837 0 1 1-15.675 0 7.837 7.837 0 0 1 15.675 0" fill="#2EC5B6" opacity=".2"/><path _ngcontent-c3="" d="M1145.576 482.707a7.837 7.837 0 1 1-15.675 0 7.837 7.837 0 0 1 15.675 0z" stroke="#2EC5B6" stroke-linecap="round" stroke-linejoin="round" stroke-width="2"/><path _ngcontent-c3="" d="M508.002 488.072l-12.774 5.964a.593.593 0 0 1-.789-.286l-5.963-12.775a.593.593 0 0 1 .286-.79l12.774-5.962a.594.594 0 0 1 .79.286l5.963 12.775a.593.593 0 0 1-.287.788" fill="#FF9F1C" fill-opacity=".2"/><path _ngcontent-c3="" d="M510.316 482.493l-13.85 6.466-6.465-13.85 13.849-6.465z" stroke="#FF9F1C" stroke-linecap="round" stroke-linejoin="round" stroke-width="2"/><path _ngcontent-c3="" d="M524.917 110.065l-10.315-9.61a.593.593 0 0 1-.03-.839l9.61-10.314a.593.593 0 0 1 .84-.03l10.313 9.61c.24.223.253.598.03.838l-9.61 10.316a.593.593 0 0 1-.838.029" fill="#2E6BD1" opacity=".2"/><path _ngcontent-c3="" d="M530.956 110.12L519.773 99.7l10.419-11.183 11.183 10.419z" stroke="#2E6BD1" stroke-linecap="round" stroke-linejoin="round" stroke-width="2"/><g _ngcontent-c3="" stroke="#2EC5B6" stroke-linecap="round" stroke-width="2"><path _ngcontent-c3="" d="M850.51 1.581l5.86 17.02M861.95 7.16l-17.02 5.861"/><g _ngcontent-c3="" opacity=".2"><path _ngcontent-c3="" d="M853.052 2.821l5.86 17.02M864.492 8.4l-17.02 5.86"/></g></g><g _ngcontent-c3="" stroke="#2EC5B6" stroke-linecap="round" stroke-width="2"><path _ngcontent-c3="" d="M164.87 471.33l-4.659 17.386M171.234 482.352l-17.387-4.659"/><g _ngcontent-c3="" opacity=".2"><path _ngcontent-c3="" d="M166.284 473.779l-4.659 17.387M172.648 484.802l-17.387-4.66"/></g></g><g _ngcontent-c3="" stroke="#2E6BD1" stroke-linecap="round" stroke-width="2"><path _ngcontent-c3="" d="M695.947 384.164l8.45 15.893M708.118 387.885l-15.893 8.451"/><path _ngcontent-c3="" d="M698.651 384.991l8.45 15.893M710.823 388.712l-15.893 8.45" opacity=".2"/></g><g _ngcontent-c3="" stroke="#2E6BD1" stroke-linecap="round" stroke-linejoin="round" stroke-width="2"><path _ngcontent-c3="" d="M1028 371.757l9.246-9.003 9.004 9.003 8.268-8.269 9.01 9.01 8.485-8.485 8.502 8.502"/><path _ngcontent-c3="" d="M1031 371.757l9.246-9.003 9.004 9.003 8.268-8.269 9.01 9.01 8.485-8.485 8.502 8.502" opacity=".2"/></g><g _ngcontent-c3="" stroke="#FF9F1C" stroke-linejoin="round" stroke-width="2"><path _ngcontent-c3="" d="M1 306.757l9.246-9.003 9.004 9.003 8.268-8.269 9.01 9.01 8.485-8.485 8.502 8.502"/><path _ngcontent-c3="" d="M4 306.757l9.246-9.003 9.004 9.003 8.268-8.269 9.01 9.01 8.485-8.485 8.502 8.502" opacity=".2"/></g><g _ngcontent-c3="" stroke="#2E6BD1" stroke-linecap="round" stroke-linejoin="round" stroke-width="2"><path _ngcontent-c3="" d="M1108 826.757l9.246-9.003 9.004 9.003 8.268-8.269 9.01 9.01 8.485-8.485 8.502 8.502"/><path _ngcontent-c3="" d="M1111 826.757l9.246-9.003 9.004 9.003 8.268-8.269 9.01 9.01 8.485-8.485 8.502 8.502" opacity=".2"/></g><g _ngcontent-c3="" stroke="#2E6BD1" stroke-linecap="round" stroke-width="2"><path _ngcontent-c3="" d="M608.87 1218.33l-4.659 17.386M615.234 1229.352l-17.387-4.659"/><path _ngcontent-c3="" d="M610.284 1220.779l-4.659 17.387M616.648 1231.802l-17.387-4.66" opacity=".2"/></g><path _ngcontent-c3="" d="M835.405 702.707c0 4.328-3.685 7.837-8.23 7.837s-8.23-3.509-8.23-7.837c0-4.329 3.685-7.838 8.23-7.838s8.23 3.51 8.23 7.838" fill="#2E6BD1" opacity=".2"/><path _ngcontent-c3="" d="M838.555 705.707c0 4.328-3.685 7.837-8.23 7.837s-8.23-3.509-8.23-7.837c0-4.328 3.685-7.838 8.23-7.838s8.23 3.51 8.23 7.838z" stroke="#2E6BD1" stroke-linecap="round" stroke-linejoin="round" stroke-width="2"/><path _ngcontent-c3="" d="M953.576 1138.707a7.837 7.837 0 1 1-15.675 0 7.837 7.837 0 0 1 15.675 0" fill="#2EC5B6" opacity=".2"/><path _ngcontent-c3="" d="M956.576 1141.707a7.837 7.837 0 1 1-15.675 0 7.837 7.837 0 0 1 15.675 0z" stroke="#2EC5B6" stroke-linecap="round" stroke-linejoin="round" stroke-width="2"/><path _ngcontent-c3="" d="M130.576 743.707a7.837 7.837 0 1 1-15.675 0 7.837 7.837 0 0 1 15.675 0" fill="#2EC5B6" opacity=".2"/><path _ngcontent-c3="" d="M133.576 746.707a7.837 7.837 0 1 1-15.675 0 7.837 7.837 0 0 1 15.675 0z" stroke="#2EC5B6" stroke-linecap="round" stroke-linejoin="round" stroke-width="2"/><path _ngcontent-c3="" d="M534.002 949.072l-12.774 5.964a.593.593 0 0 1-.789-.286l-5.963-12.775a.593.593 0 0 1 .286-.79l12.774-5.962a.594.594 0 0 1 .79.286l5.963 12.775a.593.593 0 0 1-.287.788" fill="#FF9F1C" fill-opacity=".2"/><path _ngcontent-c3="" d="M536.316 943.492l-13.85 6.466-6.465-13.849 13.849-6.466z" stroke="#FF9F1C" stroke-linecap="round" stroke-linejoin="round" stroke-width="2"/><g _ngcontent-c3="" stroke="#2E6BD1" stroke-linecap="round" stroke-width="2"><path _ngcontent-c3="" d="M990.345 2107.12l6.743 16.69M1002.06 2112.094l-16.689 6.743"/><path _ngcontent-c3="" d="M992.948 2108.226l6.743 16.69M1004.664 2113.199l-16.689 6.743" opacity=".2"/></g><path _ngcontent-c3="" d="M77.405 2091.707c0 4.328-3.685 7.837-8.23 7.837s-8.23-3.509-8.23-7.837c0-4.329 3.685-7.838 8.23-7.838s8.23 3.51 8.23 7.838" fill="#2E6BD1" opacity=".2"/><path _ngcontent-c3="" d="M80.555 2094.707c0 4.328-3.685 7.837-8.23 7.837s-8.23-3.509-8.23-7.837c0-4.328 3.685-7.838 8.23-7.838s8.23 3.51 8.23 7.838z" stroke="#2E6BD1" stroke-linecap="round" stroke-linejoin="round" stroke-width="2"/><path _ngcontent-c3="" d="M369.002 2179.072l-12.774 5.964a.593.593 0 0 1-.789-.286l-5.963-12.775a.593.593 0 0 1 .286-.79l12.774-5.962a.594.594 0 0 1 .79.286l5.963 12.775a.593.593 0 0 1-.287.788" fill="#2EC5B6" opacity=".2"/><path _ngcontent-c3="" d="M371.316 2173.492l-13.85 6.466-6.465-13.849 13.849-6.466z" stroke="#2EC5B6" stroke-linecap="round" stroke-linejoin="round" stroke-width="2"/><g _ngcontent-c3="" stroke="#2EC5B6" stroke-linecap="round" stroke-linejoin="round" stroke-width="2"><path _ngcontent-c3="" d="M1031 1847.757l9.246-9.003 9.004 9.003 8.268-8.269 9.01 9.01 8.485-8.485 8.502 8.502"/><path _ngcontent-c3="" d="M1034 1847.757l9.246-9.003 9.004 9.003 8.268-8.269 9.01 9.01 8.485-8.485 8.502 8.502" opacity=".2"/></g><path _ngcontent-c3="" d="M700.576 2212.707a7.837 7.837 0 1 1-15.675 0 7.837 7.837 0 0 1 15.675 0" fill="#FF9F1C" opacity=".2"/><path _ngcontent-c3="" d="M703.576 2215.707a7.837 7.837 0 1 1-15.675 0 7.837 7.837 0 0 1 15.675 0z" stroke="#FF9F1C" stroke-linecap="round" stroke-linejoin="round" stroke-width="2"/><path _ngcontent-c3="" d="M392.43 1667.542l-16.146 1.815a.452.452 0 0 0-.314.718l9.644 13.076c.207.281.64.232.78-.088l6.5-14.89a.452.452 0 0 0-.465-.63" fill="#FF9F1C" opacity=".2"/><path _ngcontent-c3="" d="M390.697 1664.103l-17.705 1.99 10.576 14.338z" stroke="#FF9F1C" stroke-linecap="round" stroke-linejoin="round" stroke-width="2"/><g _ngcontent-c3="" stroke="#2E6BD1" stroke-linecap="round" stroke-width="2"><path _ngcontent-c3="" d="M1104.87 2590.33l-4.659 17.386M1111.234 2601.352l-17.387-4.659"/><path _ngcontent-c3="" d="M1106.284 2592.779l-4.659 17.387M1112.648 2603.802l-17.387-4.66" opacity=".2"/></g><path _ngcontent-c3="" d="M707.405 2721.707c0 4.328-3.685 7.837-8.23 7.837s-8.23-3.509-8.23-7.837c0-4.329 3.685-7.838 8.23-7.838s8.23 3.51 8.23 7.838" fill="#2E6BD1" opacity=".2"/><path _ngcontent-c3="" d="M710.555 2724.707c0 4.328-3.685 7.837-8.23 7.837s-8.23-3.509-8.23-7.837c0-4.328 3.685-7.838 8.23-7.838s8.23 3.51 8.23 7.838z" stroke="#2E6BD1" stroke-linecap="round" stroke-linejoin="round" stroke-width="2"/><path _ngcontent-c3="" d="M516.43 2503.542l-16.146 1.815a.452.452 0 0 0-.315.718l9.645 13.076c.207.281.64.232.78-.088l6.5-14.89a.452.452 0 0 0-.465-.63" fill="#FF9F1C" opacity=".2"/><path _ngcontent-c3="" d="M514.697 2500.103l-17.705 1.99 10.576 14.338z" stroke="#FF9F1C" stroke-linecap="round" stroke-linejoin="round" stroke-width="2"/><path _ngcontent-c3="" d="M1149.576 2876.707a7.837 7.837 0 1 1-15.675 0 7.837 7.837 0 0 1 15.675 0" fill="#FF9F1C" opacity=".2"/><path _ngcontent-c3="" d="M1152.576 2879.707a7.837 7.837 0 1 1-15.675 0 7.837 7.837 0 0 1 15.675 0z" stroke="#FF9F1C" stroke-linecap="round" stroke-linejoin="round" stroke-width="2"/><g _ngcontent-c3="" stroke="#2E6BD1" stroke-linecap="round"><g _ngcontent-c3="" stroke-width="2"><path _ngcontent-c3="" d="M847.345 3004.12l6.743 16.69M859.06 3009.094l-16.689 6.743"/><path _ngcontent-c3="" d="M849.948 3005.226l6.743 16.69M861.664 3010.199l-16.689 6.743" opacity=".2"/></g></g><g _ngcontent-c3=""><path _ngcontent-c3="" d="M423.002 2993.072l-12.774 5.964a.593.593 0 0 1-.789-.286l-5.963-12.775a.593.593 0 0 1 .286-.79l12.774-5.962a.594.594 0 0 1 .79.286l5.963 12.775a.593.593 0 0 1-.287.788" fill="#2EC5B6" opacity=".2"/><path _ngcontent-c3="" d="M425.316 2987.492l-13.85 6.466-6.465-13.849 13.849-6.466z" stroke="#2EC5B6" stroke-linecap="round" stroke-linejoin="round" stroke-width="2"/></g><g _ngcontent-c3=""><path _ngcontent-c3="" d="M888.405 3311.707c0 4.328-3.685 7.837-8.23 7.837s-8.23-3.509-8.23-7.837c0-4.329 3.685-7.838 8.23-7.838s8.23 3.51 8.23 7.838" fill="#2E6BD1" opacity=".2"/><path _ngcontent-c3="" d="M891.555 3314.707c0 4.328-3.685 7.837-8.23 7.837s-8.23-3.509-8.23-7.837c0-4.328 3.685-7.838 8.23-7.838s8.23 3.51 8.23 7.838z" stroke="#2E6BD1" stroke-linecap="round" stroke-linejoin="round" stroke-width="2"/></g><g _ngcontent-c3=""><path _ngcontent-c3="" d="M183.576 3352.707a7.837 7.837 0 1 1-15.675 0 7.837 7.837 0 0 1 15.675 0" fill="#2EC5B6" opacity=".2"/><path _ngcontent-c3="" d="M186.576 3355.707a7.837 7.837 0 1 1-15.675 0 7.837 7.837 0 0 1 15.675 0z" stroke="#2EC5B6" stroke-linecap="round" stroke-linejoin="round" stroke-width="2"/></g><g _ngcontent-c3=""><path _ngcontent-c3="" d="M587.002 3558.072l-12.774 5.964a.593.593 0 0 1-.789-.286l-5.963-12.775a.593.593 0 0 1 .286-.79l12.774-5.962a.594.594 0 0 1 .79.286l5.963 12.775a.593.593 0 0 1-.287.788" fill="#FF9F1C" fill-opacity=".2"/><path _ngcontent-c3="" d="M589.316 3552.492l-13.85 6.466-6.465-13.849 13.849-6.466z" stroke="#FF9F1C" stroke-linecap="round" stroke-linejoin="round" stroke-width="2"/></g><g _ngcontent-c3="" stroke="#2E6BD1" stroke-linecap="round" stroke-linejoin="round"><g _ngcontent-c3="" stroke-width="2"><path _ngcontent-c3="" d="M1107 3435.757l9.246-9.003 9.004 9.003 8.268-8.269 9.01 9.01 8.485-8.485 8.502 8.502"/><path _ngcontent-c3="" d="M1110 3435.757l9.246-9.003 9.004 9.003 8.268-8.269 9.01 9.01 8.485-8.485 8.502 8.502" opacity=".2"/></g></g><g _ngcontent-c3="" stroke="#2E6BD1" stroke-linecap="round"><g _ngcontent-c3="" stroke-width="2"><path _ngcontent-c3="" d="M661.87 3827.33l-4.659 17.386M668.234 3838.352l-17.387-4.659"/><path _ngcontent-c3="" d="M663.284 3829.779l-4.659 17.387M669.648 3840.802l-17.387-4.66" opacity=".2"/></g></g><g _ngcontent-c3=""><path _ngcontent-c3="" d="M1006.576 3747.707a7.837 7.837 0 1 1-15.675 0 7.837 7.837 0 0 1 15.675 0" fill="#2EC5B6" opacity=".2"/><path _ngcontent-c3="" d="M1009.576 3750.707a7.837 7.837 0 1 1-15.675 0 7.837 7.837 0 0 1 15.675 0z" stroke="#2EC5B6" stroke-linecap="round" stroke-linejoin="round" stroke-width="2"/></g><g _ngcontent-c3="" stroke="#2E6BD1" stroke-linecap="round" stroke-linejoin="round"><g _ngcontent-c3="" stroke-width="2"><path _ngcontent-c3="" d="M513 5061.757l9.246-9.003 9.004 9.003 8.268-8.269 9.01 9.01 8.485-8.485 8.502 8.502"/><path _ngcontent-c3="" d="M516 5061.757l9.246-9.003 9.004 9.003 8.268-8.269 9.01 9.01 8.485-8.485 8.502 8.502" opacity=".2"/></g></g><g _ngcontent-c3="" stroke="#2E6BD1" stroke-linecap="round"><g _ngcontent-c3="" stroke-width="2"><path _ngcontent-c3="" d="M634.87 4682.33l-4.659 17.386M641.234 4693.352l-17.387-4.659"/><path _ngcontent-c3="" d="M636.284 4684.779l-4.659 17.387M642.648 4695.802l-17.387-4.66" opacity=".2"/></g></g><g _ngcontent-c3=""><path _ngcontent-c3="" d="M861.405 4166.707c0 4.328-3.685 7.837-8.23 7.837s-8.23-3.509-8.23-7.837c0-4.329 3.685-7.838 8.23-7.838s8.23 3.51 8.23 7.838" fill="#2E6BD1" opacity=".2"/><path _ngcontent-c3="" d="M864.555 4169.707c0 4.328-3.685 7.837-8.23 7.837s-8.23-3.509-8.23-7.837c0-4.328 3.685-7.838 8.23-7.838s8.23 3.51 8.23 7.838z" stroke="#2E6BD1" stroke-linecap="round" stroke-linejoin="round" stroke-width="2"/></g><g _ngcontent-c3=""><path _ngcontent-c3="" d="M979.576 4602.707a7.837 7.837 0 1 1-15.675 0 7.837 7.837 0 0 1 15.675 0" fill="#2EC5B6" opacity=".2"/><path _ngcontent-c3="" d="M982.576 4605.707a7.837 7.837 0 1 1-15.675 0 7.837 7.837 0 0 1 15.675 0z" stroke="#2EC5B6" stroke-linecap="round" stroke-linejoin="round" stroke-width="2"/></g><g _ngcontent-c3=""><path _ngcontent-c3="" d="M156.576 4207.707a7.837 7.837 0 1 1-15.675 0 7.837 7.837 0 0 1 15.675 0" fill="#2EC5B6" opacity=".2"/><path _ngcontent-c3="" d="M159.576 4210.707a7.837 7.837 0 1 1-15.675 0 7.837 7.837 0 0 1 15.675 0z" stroke="#2EC5B6" stroke-linecap="round" stroke-linejoin="round" stroke-width="2"/></g><g _ngcontent-c3=""><path _ngcontent-c3="" d="M560.002 4413.072l-12.774 5.964a.593.593 0 0 1-.789-.286l-5.963-12.775a.593.593 0 0 1 .286-.79l12.774-5.962a.594.594 0 0 1 .79.286l5.963 12.775a.593.593 0 0 1-.287.788" fill="#FF9F1C" fill-opacity=".2"/><path _ngcontent-c3="" d="M562.316 4407.493l-13.85 6.465-6.465-13.848 13.849-6.466z" stroke="#FF9F1C" stroke-linecap="round" stroke-linejoin="round" stroke-width="2"/></g><g _ngcontent-c3=""><path _ngcontent-c3="" d="M95.002 5290.072l-12.774 5.964a.593.593 0 0 1-.789-.286l-5.963-12.775a.593.593 0 0 1 .286-.79l12.774-5.962a.594.594 0 0 1 .79.286l5.963 12.775a.593.593 0 0 1-.287.788" fill="#FF9F1C" fill-opacity=".2"/><path _ngcontent-c3="" d="M97.316 5284.493l-13.85 6.465-6.465-13.848 13.849-6.466z" stroke="#FF9F1C" stroke-linecap="round" stroke-linejoin="round" stroke-width="2"/></g><g _ngcontent-c3="" stroke="#2E6BD1" stroke-linecap="round" stroke-linejoin="round"><g _ngcontent-c3="" stroke-width="2"><path _ngcontent-c3="" d="M1134 4290.757l9.246-9.003 9.004 9.003 8.268-8.269 9.01 9.01 8.485-8.485 8.502 8.502"/><path _ngcontent-c3="" d="M1137 4290.757l9.246-9.003 9.004 9.003 8.268-8.269 9.01 9.01 8.485-8.485 8.502 8.502" opacity=".2"/></g></g><g _ngcontent-c3=""><path _ngcontent-c3="" d="M228.194 4940.302l-13.213-9.455a.452.452 0 0 0-.714.324l-1.582 16.171c-.034.347.32.6.638.456l14.795-6.715a.452.452 0 0 0 .076-.78" fill="#2EC5B6" opacity=".2"/><path _ngcontent-c3="" d="M229.208 4936.588l-14.489-10.368-1.734 17.732z" stroke="#2EC5B6" stroke-linecap="round" stroke-linejoin="round" stroke-width="2"/></g><g _ngcontent-c3=""><path _ngcontent-c3="" d="M1037.194 5420.302l-13.213-9.455a.452.452 0 0 0-.714.324l-1.582 16.171c-.034.347.32.6.638.456l14.795-6.715a.452.452 0 0 0 .076-.78" fill="#2E6BD1" opacity=".2"/><path _ngcontent-c3="" d="M1038.208 5416.588l-14.489-10.368-1.734 17.732z" stroke="#2E6BD1" stroke-linecap="round" stroke-linejoin="round" stroke-width="2"/></g><g _ngcontent-c3="" fill="#FF9F1C"><path _ngcontent-c3="" d="M1064.392 4922.498l4.925-17.13.742-2.155 3.404 1.172-.742 2.156-6.703 16.517-1.626-.56zm-3.487 7.176l1.368-3.971 3.48 1.198-1.368 3.971-3.48-1.198z"/><path _ngcontent-c3="" d="M1065.012 4923.77l4.925-17.13.742-2.156 3.404 1.172-.742 2.156-6.703 16.517-1.626-.56zm-3.487 7.175l1.368-3.97 3.48 1.197-1.368 3.971-3.48-1.198z" opacity=".2"/></g></g></svg>